<?xml version="1.0" encoding="UTF-8" standalone="no"?>
<!-- Generator: Adobe Illustrator 19.0.0, SVG Export Plug-In . SVG Version: 6.00 Build 0)  -->

<svg
   version="1.1"
   id="Layer_1"
   x="0px"
   y="0px"
   viewBox="0 0 11 11"
   xml:space="preserve"
   width="11"
   height="11"
   xmlns="http://www.w3.org/2000/svg"
   xmlns:svg="http://www.w3.org/2000/svg"><defs
   id="defs47" />
<g
   id="g6"
   style="fill:#006600;fill-opacity:1;stroke:#006600;stroke-opacity:1"
   transform="matrix(0.0209763,0,0,0.02097581,0.15245388,0.10783444)">
	<g
   id="g4"
   style="fill:#006600;fill-opacity:1;stroke:#006600;stroke-opacity:1">
		<path
   d="m 456.447,194.207 -18.097,18.097 -26.601,-26.602 26.592,-26.593 23.899,23.899 10.754,-10.754 -23.899,-23.899 23.144,-23.144 -10.754,-10.754 -23.144,23.144 -26.592,-26.591 33.882,-33.882 -10.755,-10.754 -33.882,33.882 -26.593,-26.593 23.145,-23.144 -10.754,-10.754 -23.144,23.144 -23.896,-23.895 -10.754,10.754 23.895,23.895 -26.592,26.592 -26.601,-26.6 18.097,-18.097 -10.754,-10.754 -18.097,18.097 -8.353,-8.354 -10.754,10.754 8.354,8.354 -26.593,26.592 -8.353,-8.353 -10.754,10.754 8.353,8.353 -26.592,26.593 -8.354,-8.354 -10.754,10.754 8.354,8.354 -18.113,18.113 10.755,10.754 18.113,-18.113 26.6,26.6 -26.593,26.593 -23.896,-23.896 -10.754,10.754 23.896,23.896 -23.136,23.135 10.754,10.754 23.136,-23.135 26.593,26.592 -33.88,33.88 10.754,10.754 33.88,-33.88 26.592,26.593 -23.136,23.136 10.755,10.753 23.136,-23.136 23.899,23.898 10.754,-10.754 -23.899,-23.898 26.593,-26.593 26.601,26.601 -18.114,18.113 10.754,10.754 18.114,-18.113 8.353,8.353 10.754,-10.754 -8.353,-8.353 26.592,-26.592 8.353,8.353 10.754,-10.754 -8.353,-8.353 26.592,-26.592 8.353,8.353 10.754,-10.754 -8.353,-8.352 18.097,-18.097 z m -55.45,-72.447 26.591,26.592 -26.591,26.592 -26.593,-26.592 z m -10.755,63.94 -26.591,26.592 -26.592,-26.593 26.591,-26.592 z M 363.65,84.413 l 26.592,26.593 -26.592,26.591 -26.592,-26.592 z m -37.346,37.347 26.592,26.592 -26.592,26.592 -26.592,-26.592 z m -10.755,63.938 -26.592,26.593 -26.593,-26.593 26.593,-26.592 z m -26.602,-101.293 26.601,26.6 -26.591,26.592 -26.601,-26.601 z m -63.938,63.939 26.592,-26.592 26.601,26.601 -26.592,26.592 z m 0.008,74.702 26.592,-26.593 26.593,26.592 -26.592,26.592 z m 63.94,63.939 -26.593,-26.593 26.593,-26.593 26.593,26.593 z m 10.754,-63.94 26.593,-26.592 26.592,26.592 -26.591,26.592 z m 63.949,63.949 -26.601,-26.601 26.592,-26.593 26.601,26.601 z m 37.347,-37.346 -26.602,-26.602 26.592,-26.592 26.601,26.602 z"
   id="path2"
   style="fill:#006600;fill-opacity:1;stroke:#006600;stroke-width:5.63198;stroke-miterlimit:4;stroke-dasharray:none;stroke-opacity:1" />
	</g>
</g>
<g
   id="g12"
   transform="matrix(0.0209763,0,0,0.02097581,0.15245388,0.10783444)"
   style="fill:#006600;fill-opacity:1;stroke:#006600;stroke-opacity:1">
	<g
   id="g10"
   style="fill:#006600;fill-opacity:1;stroke:#006600;stroke-opacity:1">
		<path
   d="m 469.708,42.294 c -31.7,-31.699 -76.499,-46.37 -126.13,-41.315 -49.056,4.997 -97.056,28.733 -135.162,66.836 -38.101,38.102 -61.836,86.103 -66.833,135.157 -2.599,25.513 0.028,49.741 7.488,71.575 l -34.35,81.263 -7.263,-7.263 L 0,456.007 l 55.995,55.992 107.456,-107.457 -7.261,-7.261 81.432,-34.423 c 15.927,5.434 33.122,8.351 51.024,8.516 l 0.141,-15.208 C 250.941,355.817 218.046,342.742 193.656,318.351 134.582,259.278 146.028,151.713 219.169,78.57 292.318,5.424 399.885,-6.024 458.954,53.048 c 59.073,59.077 47.623,166.644 -25.522,239.785 -34.734,34.735 -78.365,56.793 -122.86,62.115 l -2.357,0.221 1.417,15.143 2.453,-0.23 0.191,-0.021 c 47.901,-5.705 94.748,-29.313 131.909,-66.474 38.103,-38.102 61.84,-86.103 66.836,-135.16 5.058,-49.638 -9.615,-94.431 -41.313,-126.133 z M 55.995,490.491 21.507,456.007 34.931,442.583 69.418,477.07 Z m 24.176,-24.178 -34.487,-34.487 13.423,-13.421 34.486,34.487 z m 24.177,-24.175 -34.487,-34.488 13.421,-13.42 34.487,34.486 z m 24.176,-24.176 -34.488,-34.486 13.422,-13.423 34.487,34.487 z m 28.822,-123.931 c 6.635,12.899 15.176,24.691 25.556,35.072 10.294,10.294 22.158,18.839 35.195,25.496 l -73.511,31.074 -18.258,-18.258 z"
   id="path8"
   style="fill:#006600;fill-opacity:1;stroke:#006600;stroke-width:10.2865;stroke-miterlimit:4;stroke-dasharray:none;stroke-opacity:1" />
	<g
   id="XMLID_223_"
   transform="matrix(1.1134891,0,0,1.1220773,210.71022,346.42748)"
   style="fill:#006600;fill-opacity:1;stroke:#006600;stroke-opacity:1"><path
     id="XMLID_224_"
     d="m 245.8054,59.979278 c 0.58792,-6.84819 -1.63856,-13.893927 -6.71513,-19.346661 -0.13107,-0.140277 -0.26804,-0.2757 -0.41037,-0.406752 -5.49528,-5.038707 -12.59634,-7.244736 -19.49635,-6.664224 0.12418,-7.815553 -2.56593,-15.261736 -7.89147,-20.547003 -5.39794,-5.3585661 -11.88564,-8.3227667 -17.93312,-8.3227667 -1.1646,0 -2.31305,0.1102247 -3.43362,0.3339379 -4.35367,0.8702772 -10.31801,3.7844826 -14.00402,12.7372728 l -11.43711,27.83688 c -0.008,0.01895 -0.0162,0.03789 -0.024,0.05684 l -17.85192,43.450498 21.37358,21.20954 24.04419,-31.053954 7.72371,7.664579 -31.29492,23.859215 21.43474,21.27118 43.74351,-17.75025 c 0.0225,-0.008 0.0455,-0.018 0.068,-0.0267 l 28.02809,-11.37337 c 9.01645,-3.656342 11.9541,-9.575035 12.83061,-13.894902 1.39643,-6.888954 -1.61214,-14.816142 -8.05093,-21.204196 -5.32505,-5.283815 -12.83354,-7.948542 -20.7035,-7.829134 z m -31.88675,-8.991625 c 4.08612,-3.807302 10.37132,-3.927664 14.58754,-0.258703 3.69726,4.183477 3.57498,10.419595 -0.26266,14.473955 L 211.4843,77.980962 201.04255,67.618153 Z m -55.35817,47.599995 15.33246,-37.32018 7.66941,7.611686 z M 190.5788,57.233977 179.90325,46.640126 189.50714,23.266295 c 0.55271,-1.344492 1.71974,-3.647123 3.31378,-3.96553 1.6234,-0.324243 4.85209,0.790672 8.09447,4.009205 4.26023,4.228134 4.77968,12.100473 1.31182,18.87925 z m -10.55571,63.097123 30.19096,-23.018532 7.70121,7.642742 z m 80.15267,-34.191444 c -0.32135,1.58234 -2.64173,2.739962 -3.99807,3.29038 L 232.64513,98.978385 221.9505,88.365601 237.11079,76.805858 c 6.83107,-3.440351 14.76362,-2.925366 19.02386,1.301786 3.24336,3.217081 4.36834,6.418624 4.04111,8.032012 z"
     style="fill:#006600;fill-opacity:1;stroke:#006600;stroke-width:0.487246;stroke-opacity:1" /><path
     id="XMLID_231_"
     d="m 176.90055,139.76029 -38.0443,-37.75315 -5.18713,5.14791 c -10.57478,10.48949 -10.87461,27.21172 -0.68476,38.06718 0.11743,0.12627 0.24113,0.24754 0.36733,0.365 5.12794,4.7402 11.8147,7.35008 18.82918,7.35008 7.37791,0 14.31461,-2.85062 19.53255,-8.02863 z"
     style="fill:#006600;fill-opacity:1;stroke:#006600;stroke-width:0.487246;stroke-opacity:1" /></g><g
   id="g5"
   transform="translate(227.33067,346.97235)"
   style="fill:#006600;fill-opacity:1;stroke:#006600;stroke-opacity:1" /><g
   id="g7"
   transform="translate(227.33067,346.97235)"
   style="fill:#006600;fill-opacity:1;stroke:#006600;stroke-opacity:1" /><g
   id="g9"
   transform="translate(227.33067,346.97235)"
   style="fill:#006600;fill-opacity:1;stroke:#006600;stroke-opacity:1" /><g
   id="g11"
   transform="translate(227.33067,346.97235)"
   style="fill:#006600;fill-opacity:1;stroke:#006600;stroke-opacity:1" /><g
   id="g13"
   transform="translate(227.33067,346.97235)"
   style="fill:#006600;fill-opacity:1;stroke:#006600;stroke-opacity:1" /><g
   id="g15"
   transform="translate(227.33067,346.97235)"
   style="fill:#006600;fill-opacity:1;stroke:#006600;stroke-opacity:1" /><g
   id="g17"
   transform="translate(227.33067,346.97235)"
   style="fill:#006600;fill-opacity:1;stroke:#006600;stroke-opacity:1" /><g
   id="g19"
   transform="translate(227.33067,346.97235)"
   style="fill:#006600;fill-opacity:1;stroke:#006600;stroke-opacity:1" /><g
   id="g21"
   transform="translate(227.33067,346.97235)"
   style="fill:#006600;fill-opacity:1;stroke:#006600;stroke-opacity:1" /><g
   id="g23"
   transform="translate(227.33067,346.97235)"
   style="fill:#006600;fill-opacity:1;stroke:#006600;stroke-opacity:1" /><g
   id="g25"
   transform="translate(227.33067,346.97235)"
   style="fill:#006600;fill-opacity:1;stroke:#006600;stroke-opacity:1" /><g
   id="g27"
   transform="translate(227.33067,346.97235)"
   style="fill:#006600;fill-opacity:1;stroke:#006600;stroke-opacity:1" /><g
   id="g29"
   transform="translate(227.33067,346.97235)"
   style="fill:#006600;fill-opacity:1;stroke:#006600;stroke-opacity:1" /><g
   id="g31"
   transform="translate(227.33067,346.97235)"
   style="fill:#006600;fill-opacity:1;stroke:#006600;stroke-opacity:1" /><g
   id="g33"
   transform="translate(227.33067,346.97235)"
   style="fill:#006600;fill-opacity:1;stroke:#006600;stroke-opacity:1" /></g>
</g>
<g
   id="g14"
   transform="matrix(0.0209763,0,0,0.02097581,0.15245388,0.10783444)"
   style="fill:#006600;fill-opacity:1;stroke:#006600;stroke-opacity:1">
</g>
<g
   id="g16"
   transform="matrix(0.0209763,0,0,0.02097581,0.15245388,0.10783444)"
   style="fill:#006600;fill-opacity:1;stroke:#006600;stroke-opacity:1">
</g>
<g
   id="g18"
   transform="matrix(0.0209763,0,0,0.02097581,0.15245388,0.10783444)"
   style="fill:#006600;fill-opacity:1;stroke:#006600;stroke-opacity:1">
</g>
<g
   id="g20"
   transform="matrix(0.0209763,0,0,0.02097581,0.15245388,0.10783444)"
   style="fill:#006600;fill-opacity:1;stroke:#006600;stroke-opacity:1">
</g>
<g
   id="g22"
   transform="matrix(0.0209763,0,0,0.02097581,0.15245388,0.10783444)"
   style="fill:#006600;fill-opacity:1;stroke:#006600;stroke-opacity:1">
</g>
<g
   id="g24"
   transform="matrix(0.0209763,0,0,0.02097581,0.15245388,0.10783444)"
   style="fill:#006600;fill-opacity:1;stroke:#006600;stroke-opacity:1">
</g>
<g
   id="g26"
   transform="matrix(0.0209763,0,0,0.02097581,0.15245388,0.10783444)"
   style="fill:#006600;fill-opacity:1;stroke:#006600;stroke-opacity:1">
</g>
<g
   id="g28"
   transform="matrix(0.0209763,0,0,0.02097581,0.15245388,0.10783444)"
   style="fill:#006600;fill-opacity:1;stroke:#006600;stroke-opacity:1">
</g>
<g
   id="g30"
   transform="matrix(0.0209763,0,0,0.02097581,0.15245388,0.10783444)"
   style="fill:#006600;fill-opacity:1;stroke:#006600;stroke-opacity:1">
</g>
<g
   id="g32"
   transform="matrix(0.0209763,0,0,0.02097581,0.15245388,0.10783444)"
   style="fill:#006600;fill-opacity:1;stroke:#006600;stroke-opacity:1">
</g>
<g
   id="g34"
   transform="matrix(0.0209763,0,0,0.02097581,0.15245388,0.10783444)"
   style="fill:#006600;fill-opacity:1;stroke:#006600;stroke-opacity:1">
</g>
<g
   id="g36"
   transform="matrix(0.0209763,0,0,0.02097581,0.15245388,0.10783444)"
   style="fill:#006600;fill-opacity:1;stroke:#006600;stroke-opacity:1">
</g>
<g
   id="g38"
   transform="matrix(0.0209763,0,0,0.02097581,0.15245388,0.10783444)"
   style="fill:#006600;fill-opacity:1;stroke:#006600;stroke-opacity:1">
</g>
<g
   id="g40"
   transform="matrix(0.0209763,0,0,0.02097581,0.15245388,0.10783444)"
   style="fill:#006600;fill-opacity:1;stroke:#006600;stroke-opacity:1">
</g>
<g
   id="g42"
   transform="matrix(0.0209763,0,0,0.02097581,0.15245388,0.10783444)"
   style="fill:#006600;fill-opacity:1;stroke:#006600;stroke-opacity:1">
</g>
</svg>
