<?xml version="1.0" encoding="UTF-8" standalone="no"?>
<svg
   version="1.1"
   id="Capa_1"
   x="0px"
   y="0px"
   viewBox="0 0 11 11"
   xml:space="preserve"
   width="11"
   height="11"
   xmlns="http://www.w3.org/2000/svg"
   xmlns:svg="http://www.w3.org/2000/svg">
	<defs
   id="defs49" />
<g
   id="g14"
   transform="matrix(0.03703697,0,0,0.03802773,9.2592466e-6,0.35288212)"
   style="fill:#006600;fill-opacity:1">
	<path
   d="M 292.957,48.257 283.63,38.93 c -5.392,-5.39 -14.163,-5.39 -19.555,0 L 156.801,146.203 c 6.945,7.269 12.293,16.086 15.474,25.625 1.319,3.957 3.097,7.761 5.256,11.336 0.342,-0.324 0.702,-0.63 1.035,-0.963 L 292.957,67.81 c 5.391,-5.391 5.391,-14.162 0,-19.553 z"
   id="path2"
   style="fill:#006600;fill-opacity:1" />
	<path
   d="m 237.866,246.677 c -1.931,0 -3.747,0.753 -5.113,2.118 l -0.189,0.189 c -2.326,2.328 -6.102,2.328 -8.428,0 l -46.637,-46.637 c -7.475,-7.473 -13.19,-16.723 -16.532,-26.749 -2.761,-8.281 -7.481,-15.919 -13.652,-22.089 L 32.924,39.118 c -2.696,-2.694 -6.237,-4.042 -9.777,-4.042 -3.541,0 -7.082,1.347 -9.777,4.043 l -9.327,9.326 c -5.391,5.391 -5.391,14.163 0,19.555 l 114.39,114.389 c 6.171,6.172 13.809,10.892 22.09,13.653 10.026,3.342 19.275,9.058 26.749,16.532 l 46.637,46.637 c 1.118,1.117 1.746,2.634 1.746,4.214 0,1.581 -0.629,3.098 -1.746,4.215 -1.366,1.366 -2.118,3.181 -2.118,5.112 0,1.931 0.752,3.746 2.118,5.112 1.367,1.367 3.182,2.119 5.113,2.119 1.931,0 3.746,-0.752 5.112,-2.118 l 18.845,-18.844 c 2.818,-2.819 2.818,-7.407 -0.001,-10.227 -1.365,-1.364 -3.181,-2.117 -5.112,-2.117 z"
   id="path4"
   style="fill:#006600;fill-opacity:1" />
	<path
   d="m 119.502,202.159 -46.638,46.637 c -2.327,2.327 -6.103,2.326 -8.428,-0.001 -1.41,-1.409 -3.261,-2.114 -5.113,-2.114 -1.852,0 -3.704,0.705 -5.114,2.115 -2.818,2.819 -2.818,7.406 10e-4,10.227 l 18.843,18.842 c 2.819,2.82 7.404,2.82 10.227,10e-4 1.365,-1.366 2.118,-3.182 2.118,-5.113 0,-1.931 -0.753,-3.747 -2.118,-5.113 l -0.178,-0.177 c -1.122,-1.118 -1.755,-2.635 -1.757,-4.218 -0.002,-1.583 0.626,-3.102 1.746,-4.222 l 46.637,-46.637 c 1.915,-1.916 3.957,-3.705 6.091,-5.377 -5.017,-1.756 -9.823,-4.104 -14.304,-6.971 -0.656,0.719 -1.323,1.431 -2.013,2.121 z"
   id="path6"
   style="fill:#006600;fill-opacity:1" />
	<path
   d="m 130.649,46.286 c 0,-6.343 -2.351,-12.307 -6.557,-16.891 -3.388,4.776 -5.388,10.602 -5.388,16.891 0,6.288 2,12.114 5.388,16.89 4.207,-4.583 6.557,-10.546 6.557,-16.89 z"
   id="path8"
   style="fill:#006600;fill-opacity:1" />
	<path
   d="m 147.974,75.554 c 6.271,0 12.083,-1.989 16.851,-5.36 -6.061,-6.44 -9.461,-14.896 -9.461,-23.908 0,-9.012 3.4,-17.468 9.461,-23.909 -4.769,-3.371 -10.58,-5.36 -16.851,-5.36 -6.271,0 -12.083,1.989 -16.852,5.361 6.061,6.44 9.461,14.896 9.461,23.909 0,9.011 -3.4,17.467 -9.461,23.908 4.768,3.37 10.581,5.359 16.852,5.359 z"
   id="path10"
   style="fill:#006600;fill-opacity:1" />
	<path
   d="m 177.242,46.286 c 0,-6.288 -2,-12.115 -5.388,-16.891 -4.206,4.583 -6.556,10.548 -6.556,16.891 0,6.343 2.351,12.307 6.557,16.89 3.387,-4.775 5.387,-10.602 5.387,-16.89 z"
   id="path12"
   style="fill:#006600;fill-opacity:1" />
</g>
<g
   id="g16"
   transform="matrix(1.0000002,0,0,0.90909088,0,0.99999982)">
</g>
<g
   id="g18"
   transform="matrix(1.0000002,0,0,0.90909088,0,0.99999982)">
</g>
<g
   id="g20"
   transform="matrix(1.0000002,0,0,0.90909088,0,0.99999982)">
</g>
<g
   id="g22"
   transform="matrix(1.0000002,0,0,0.90909088,0,0.99999982)">
</g>
<g
   id="g24"
   transform="matrix(1.0000002,0,0,0.90909088,0,0.99999982)">
</g>
<g
   id="g26"
   transform="matrix(1.0000002,0,0,0.90909088,0,0.99999982)">
</g>
<g
   id="g28"
   transform="matrix(1.0000002,0,0,0.90909088,0,0.99999982)">
</g>
<g
   id="g30"
   transform="matrix(1.0000002,0,0,0.90909088,0,0.99999982)">
</g>
<g
   id="g32"
   transform="matrix(1.0000002,0,0,0.90909088,0,0.99999982)">
</g>
<g
   id="g34"
   transform="matrix(1.0000002,0,0,0.90909088,0,0.99999982)">
</g>
<g
   id="g36"
   transform="matrix(1.0000002,0,0,0.90909088,0,0.99999982)">
</g>
<g
   id="g38"
   transform="matrix(1.0000002,0,0,0.90909088,0,0.99999982)">
</g>
<g
   id="g40"
   transform="matrix(1.0000002,0,0,0.90909088,0,0.99999982)">
</g>
<g
   id="g42"
   transform="matrix(1.0000002,0,0,0.90909088,0,0.99999982)">
</g>
<g
   id="g44"
   transform="matrix(1.0000002,0,0,0.90909088,0,0.99999982)">
</g>
</svg>
