<?xml version="1.0" encoding="UTF-8" standalone="no"?>

<svg
   version="1.1"
   id="basket"
   x="0px"
   y="0px"
   viewBox="0 0 11 11"
   xml:space="preserve"
   width="11"
   height="11"
   xmlns="http://www.w3.org/2000/svg"
   xmlns:svg="http://www.w3.org/2000/svg"><defs
   id="defs53" />
<g
   id="g18"
   transform="matrix(0.03751353,0,0,0.03703704,-0.0707596,0)"
   style="fill:#006600;fill-opacity:1">
	<path
   d="M 104.525,44.686 C 102.869,40.711 100.511,37.433 97.443,34.889 86.836,26.095 67.153,27.555 61.233,28.236 31.509,49.864 10.077,82.222 2.681,119.573 21.571,83.507 58.868,55.725 104.525,44.686 Z"
   id="path2"
   style="fill:#006600;fill-opacity:1" />
	<path
   d="m 141.904,0 c -21.123,0.927 -41.113,6.283 -59.068,15.161 7.63,1.101 16.023,3.768 23.026,9.574 5.424,4.497 9.351,10.286 11.785,17.288 7.894,-1.308 15.995,-2.122 24.256,-2.406 V 0 Z"
   id="path4"
   style="fill:#006600;fill-opacity:1" />
	<path
   d="m 220.135,278.718 c 1.591,-0.771 40.152,-25.365 25.503,-82.477 -4.162,-16.226 -16.118,-30.468 -28.503,-45.619 -18.84,-23.051 -40.194,-49.175 -40.73,-88.281 -0.035,-2.564 0.067,-5.021 0.277,-7.393 -7.03,-1.14 -14.238,-1.863 -21.587,-2.134 V 297 c 23.496,-1.031 45.048,-8.59 65.04,-18.282 z"
   id="path6"
   style="fill:#006600;fill-opacity:1" />
	<path
   d="m 155.096,0 v 39.617 c 8.262,0.284 16.363,1.098 24.256,2.406 2.435,-7.003 6.362,-12.791 11.785,-17.288 7.003,-5.806 15.396,-8.473 23.026,-9.574 C 196.209,6.283 176.219,0.927 155.096,0 Z"
   id="path8"
   style="fill:#006600;fill-opacity:1" />
	<path
   d="m 2.22,175.029 c 2.415,26.916 16.718,50.745 33.684,70.421 -3.04,-13.307 -3.302,-30.629 2.735,-52.691 5.16,-18.855 17.718,-34.219 31.013,-50.485 18.328,-22.424 37.28,-45.611 37.754,-80.113 0.022,-1.58 -0.014,-3.107 -0.106,-4.581 C 46.772,72.302 -2.667,120.559 2.22,175.029 Z"
   id="path10"
   style="fill:#006600;fill-opacity:1" />
	<path
   d="m 235.6,28.114 c -7.205,-0.714 -25.977,-1.611 -36.086,6.812 -3.047,2.539 -5.392,5.805 -7.039,9.761 45.657,11.039 82.954,38.82 101.845,74.887 -7.411,-37.422 -28.91,-69.832 -58.72,-91.46 z"
   id="path12"
   style="fill:#006600;fill-opacity:1" />
	<path
   d="M 294.78,175.029 C 299.667,120.559 250.228,72.303 189.7,57.58 c -0.091,1.474 -0.127,3 -0.106,4.581 0.474,34.502 19.426,57.69 37.754,80.113 13.295,16.266 25.853,31.63 31.013,50.485 6.037,22.062 5.775,39.384 2.735,52.691 16.966,-19.676 31.27,-43.505 33.684,-70.421 z"
   id="path14"
   style="fill:#006600;fill-opacity:1" />
	<path
   d="m 75.764,278.718 c 20.049,9.573 42.644,17.251 66.14,18.282 V 52.813 c -7.349,0.271 -14.557,0.994 -21.587,2.134 0.21,2.373 0.313,4.83 0.277,7.393 -0.536,39.106 -21.889,65.23 -40.73,88.281 -12.384,15.151 -24.269,29.412 -28.503,45.619 -15.493,59.311 24.005,82.288 24.403,82.478 z"
   id="path16"
   style="fill:#006600;fill-opacity:1" />
</g>
<g
   id="g20">
</g>
<g
   id="g22">
</g>
<g
   id="g24">
</g>
<g
   id="g26">
</g>
<g
   id="g28">
</g>
<g
   id="g30">
</g>
<g
   id="g32">
</g>
<g
   id="g34">
</g>
<g
   id="g36">
</g>
<g
   id="g38">
</g>
<g
   id="g40">
</g>
<g
   id="g42">
</g>
<g
   id="g44">
</g>
<g
   id="g46">
</g>
<g
   id="g48">
</g>
</svg>
