<?xml version="1.0" encoding="UTF-8" standalone="no"?>
<svg
   width="11"
   height="11"
   id="pins"
   version="1.1"
   viewBox="0 0 11 11"
   xmlns="http://www.w3.org/2000/svg"
   xmlns:svg="http://www.w3.org/2000/svg">
  <defs
     id="defs3802" />
  <g
     transform="matrix(0.78571429,0,0,0.782657,1.2194596,2.1996182)"
     id="g97"
     style="fill:#006600;fill-opacity:1">
    <g
       id="g105"
       style="fill:#006600;fill-opacity:1">
      <path
         id="path818-3"
         transform="translate(-1.5520395,-2.8104498)"
         d="M 11,0 C 9.8954305,-1e-7 8.9999999,0.8954305 9,2 9.00107,2.3513949 9.3232274,2.6963044 9.5,3 h 3 C 12.67609,2.696115 12.999519,2.3512172 13,2 13,0.8954303 12.104569,-3e-7 11,0 Z M 9.5,4 v 1 h 3 V 4 Z m 0,2 C 9.2156306,6.5752845 8.8489337,7.2576044 8.5488281,8 A 4.2222223,4.4444442 0 0 1 9,10 4.2222223,4.4444442 0 0 1 8.3730469,12.318359 C 8.578129,12.913881 8.8249294,13.482017 9,14 h 4 c 0.350634,-1.043098 0.999701,-2.283099 1,-3.554688 C 13.999882,8.7729298 13.076063,7.1701786 12.5,6 Z M 4,6.0546875 a 4,4 0 0 0 -4,4.0000005 4,4 0 0 0 4,4 4,4 0 0 0 4,-4 A 4,4 0 0 0 4,6.0546875 Z M 4,7 A 1,1 0 0 1 5,8 1,1 0 0 1 4,9 1,1 0 0 1 3,8 1,1 0 0 1 4,7 Z M 6,9 A 1,1 0 0 1 7,10 1,1 0 0 1 6,11 1,1 0 0 1 5,10 1,1 0 0 1 6,9 Z M 3.5,9.5 a 1,1 0 0 1 1,1 1,1 0 0 1 -1,1 1,1 0 0 1 -1,-1 1,1 0 0 1 1,-1 z"
         style="fill:#006600;fill-opacity:1;stroke:none;stroke-width:3.41398;stroke-linecap:square;stroke-miterlimit:4;stroke-dasharray:none;stroke-opacity:1;paint-order:markers stroke fill" />
    </g>
  </g>
</svg>
