<?xml version="1.0" encoding="UTF-8" standalone="no"?>
<svg
   version="1.1"
   viewBox="0 0 9 11"
   enable-background="new 0 0 312.021 312.021"
   id="svg14"
   width="9"
   height="11"
   xmlns="http://www.w3.org/2000/svg"
   xmlns:svg="http://www.w3.org/2000/svg">
  <defs
     id="defs18" />
  <g
     id="g12"
     transform="matrix(0.02753507,0.02006209,-0.02308907,0.02392521,3.3388946,-0.96736482)"
     style="fill:#006600;fill-opacity:1">
    <g
       id="g10"
       style="fill:#006600;fill-opacity:1">
      <path
         d="M 302.15,120.556 C 234.139,119.672 178.707,108.786 136.633,96.012 l 3.38,21.826 c 48.269,13.719 103.141,21.953 161.878,22.717 0.045,0.001 0.088,0.001 0.133,0.001 5.462,0 9.925,-4.393 9.996,-9.87 0.071,-5.524 -4.348,-10.059 -9.87,-10.13 z"
         id="path2"
         style="fill:#006600;fill-opacity:1" />
      <path
         d="m 220.833,203.895 -6.919,2.255 -19.293,19.648 7.214,1.408 48.721,45.66 c 6.04,5.663 15.533,5.36 21.201,-0.687 5.665,-6.045 5.357,-15.537 -0.686,-21.202 z"
         id="path4"
         style="fill:#006600;fill-opacity:1" />
      <circle
         cx="35.91"
         cy="147.114"
         r="25.907"
         id="circle6"
         style="fill:#006600;fill-opacity:1" />
      <path
         d="m 257.646,179.275 c 7.892,-2.573 12.176,-11.049 9.614,-18.91 -2.568,-7.877 -11.033,-12.181 -18.91,-9.614 l -53.726,17.511 c -2.29,0.746 -4.367,2.034 -6.055,3.752 l -52.218,53.178 25.33,-40.49 -32.148,-19.459 -40.696,22.738 38.763,-35.404 c 3.091,-2.824 4.564,-7.006 3.923,-11.143 l -7.642,-49.353 c -1.058,-6.835 -7.471,-11.493 -14.266,-10.44 -6.814,1.055 -11.498,7.434 -10.44,14.266 l 6.616,42.729 -35.103,32.061 C 78.332,158.914 85.056,148.55 93.232,135.947 87.558,99.302 87.713,100.305 87.316,97.743 86.126,90.06 88.666,82.591 93.671,77.244 91.325,71.319 84.815,68.042 78.573,69.85 76.928,70.327 75.458,71.114 74.204,72.127 36.272,54.189 16.929,37.866 16.528,37.524 12.346,33.919 6.038,34.387 2.432,38.564 c -3.61,4.18 -3.148,10.495 1.033,14.105 0.984,0.849 23.679,20.209 68.9,40.641 l 10.409,35.869 c 0,0 -8.836,18.045 -26.215,48.833 -5.005,8.269 -2.359,19.029 5.909,24.034 8.474,5.129 68.705,41.586 77.332,46.808 l -0.005,-0.036 c 5.89,3.263 13.221,2.223 17.962,-2.605 l 49.649,-50.563 z"
         id="path8"
         style="fill:#006600;fill-opacity:1" />
    </g>
  </g>
</svg>
