<?xml version="1.0" encoding="UTF-8" standalone="no"?>
<!-- Generator: Adobe Illustrator 16.0.0, SVG Export Plug-In . SVG Version: 6.00 Build 0)  -->

<svg
   version="1.1"
   id="gym"
   x="0px"
   y="0px"
   width="12"
   height="11"
   viewBox="0 0 12 11"
   xml:space="preserve"
   xmlns="http://www.w3.org/2000/svg"
   xmlns:svg="http://www.w3.org/2000/svg"><defs
   id="defs39" />
<g
   id="g4"
   transform="matrix(0.26563365,0,0,0.33677121,0,-0.60648289)"
   style="fill:#006600;fill-opacity:1">
	<path
   d="M 41.894788,16.472557 V 14.204 c 0,-1.922 -1.584406,-3.495 -3.537966,-3.495 h -2.807796 c -1.95356,0 -3.006458,1.576396 -3.1537,3.495 v 4.988504 H 12.779165 V 14.204 c 0,-1.922 -1.201665,-3.495 -3.1552243,-3.495 H 6.8161441 c -1.9535593,0 -3.5379661,1.573 -3.5379661,3.495 v 2.268557 C 1.2656356,16.472557 0,17.496 0,19.492 v 6.172 c 0,1.996 1.3561438,3.018627 3.2781777,3.018627 l 3e-7,2.268373 c 2e-7,1.922 1.5844068,3.513 3.5379661,3.513 h 2.8077966 c 1.9535593,0 3.0075403,-1.594416 3.1552243,-3.513 V 25.977526 H 32.396343 V 30.951 c 0,1.922 1.20014,3.513 3.1537,3.513 h 2.808813 c 1.952542,0 3.537966,-1.591 3.537966,-3.513 v -2.268373 c 2.012543,0 3.278177,-1.61788 3.278177,-3.61188 V 19.492 c -0.0031,-1.996 -1.359194,-3.019443 -3.280211,-3.019443 z"
   id="path2"
   style="fill:#006600;fill-opacity:1;stroke-width:1.00844" />
</g>
<g
   id="g6">
</g>
<g
   id="g8">
</g>
<g
   id="g10">
</g>
<g
   id="g12">
</g>
<g
   id="g14">
</g>
<g
   id="g16">
</g>
<g
   id="g18">
</g>
<g
   id="g20">
</g>
<g
   id="g22">
</g>
<g
   id="g24">
</g>
<g
   id="g26">
</g>
<g
   id="g28">
</g>
<g
   id="g30">
</g>
<g
   id="g32">
</g>
<g
   id="g34">
</g>
</svg>
