<?xml version="1.0" encoding="UTF-8" standalone="no"?>
<!-- Generator: Adobe Illustrator 19.0.0, SVG Export Plug-In . SVG Version: 6.00 Build 0)  -->

<svg
   version="1.1"
   id="Layer_1"
   x="0px"
   y="0px"
   viewBox="0 0 11 11"
   xml:space="preserve"
   width="11"
   height="11"
   xmlns="http://www.w3.org/2000/svg"
   xmlns:svg="http://www.w3.org/2000/svg">
	<defs
   id="defs43" />
<g
   id="g8"
   transform="matrix(0.02268041,0,0,0.02307512,0,-0.0957156)"
   style="fill:#006600;fill-opacity:1">
	<polygon
   points="71.581,17.555 208.966,292.584 225.733,259.018 98.419,4.148 "
   id="polygon2"
   style="fill:#006600;fill-opacity:1" />
	<path
   d="M 450,390.852 H 291.587 l -15.552,-31.134 -16.767,33.566 30.66,61.378 c 7.457,14.931 25.666,26.19 42.356,26.19 H 450 c 19.299,0 35,-15.701 35,-35 v -20 c 0,-19.3 -15.701,-35 -35,-35 z"
   id="path4"
   style="fill:#006600;fill-opacity:1" />
	<path
   d="M 386.581,4.148 193.413,390.852 H 35 c -19.299,0 -35,15.701 -35,35 v 20 c 0,19.299 15.701,35 35,35 h 117.716 c 16.69,0 34.899,-11.259 42.356,-26.189 L 413.419,17.555 Z"
   id="path6"
   style="fill:#006600;fill-opacity:1" />
</g>
<g
   id="g10">
</g>
<g
   id="g12">
</g>
<g
   id="g14">
</g>
<g
   id="g16">
</g>
<g
   id="g18">
</g>
<g
   id="g20">
</g>
<g
   id="g22">
</g>
<g
   id="g24">
</g>
<g
   id="g26">
</g>
<g
   id="g28">
</g>
<g
   id="g30">
</g>
<g
   id="g32">
</g>
<g
   id="g34">
</g>
<g
   id="g36">
</g>
<g
   id="g38">
</g>
</svg>
