<?xml version="1.0" encoding="UTF-8" standalone="no"?>
<!-- Generator: Adobe Illustrator 16.0.0, SVG Export Plug-In . SVG Version: 6.00 Build 0)  -->

<svg
   version="1.1"
   id="Capa_1"
   x="0px"
   y="0px"
   width="11"
   height="11"
   viewBox="0 0 11 11"
   xml:space="preserve"
   xmlns="http://www.w3.org/2000/svg"
   xmlns:svg="http://www.w3.org/2000/svg"><defs
   id="defs978" />
<g
   id="g943"
   transform="matrix(0.36665261,0,0,0.34647785,-0.31959168,0)"
   style="fill:#006600;fill-opacity:1">
	<path
   d="m 30.116,5.689 c 0,0 -1.6,-3.198 -2.082,-3.311 L 27.923,0.334 27.069,2.156 26.845,0 25.396,2.045 c 0,0 -4.103,0.504 -6.592,6.325 -0.933,0.166 -2.038,0.274 -2.215,-0.101 0,0 1.717,-1.935 1.76,-2.381 0,0 0.959,-0.104 1.189,-0.123 0.118,-0.013 -0.017,-0.217 0.108,-0.66 0,0 0.252,-0.082 0.301,-0.17 0.142,-0.26 -0.188,-0.881 -0.158,-1.176 0.023,-0.227 0.597,-0.191 0.749,-0.358 0.13,-0.138 0.201,-0.644 -0.568,-0.474 0,0 -0.955,-2.32 -3.127,-0.951 0,0 -0.984,0.809 -0.506,1.97 0,0 -5.272,0.915 -5.001,1.45 0,0 -3.074,1.004 -2.302,1.312 0,0 0.19,0.169 0.403,0.253 0,0 -1.625,1.758 -0.334,2.741 0,0 0.09,0.091 0.276,0.217 -0.669,0.037 -1.364,0.239 -2.057,0.752 0,0 -7.14,0.074 -6.396,9.37 0,0 3.123,-1.785 4.016,-7.361 0,0 0.521,-1.487 1.115,-0.968 0,0 -1.785,1.636 -0.445,5.726 0,0 -0.148,2.084 -2.454,2.977 0,0 -0.743,0.299 -0.595,3.198 0,0 -1.041,4.312 0,5.058 0,0 -0.894,2.01 0.817,2.01 0,0 1.338,0.223 1.115,-0.818 0,0 -0.595,-1.041 -0.968,-1.115 0,0 0.148,-1.339 -0.445,-1.562 L 3.38,24.287 c 0,0 0.817,-0.967 1.188,-2.527 0,0 3.086,-0.78 3.756,-2.862 0,0 1.152,0.854 0.187,2.899 0,0 -0.743,1.004 0.78,2.082 0,0 2.083,1.412 2.38,2.343 0,0 0,0.817 0.817,0.854 0,0 0.336,0.372 -0.223,0.559 0,0 -0.559,0.632 0.743,1.375 0,0 1.562,0.968 1.302,-0.407 0,0 -0.596,-2.642 -2.23,-3.496 0,0 -2.156,-2.379 -1.189,-3.531 0,0 1.264,-1.229 1.375,-2.491 0,0 5.579,0.297 6.62,-0.521 0,0 0.26,1.338 1.523,1.338 0,0 -0.818,2.899 -0.335,4.312 l -0.223,3.348 c 0,0 -0.781,0.779 -0.149,1.637 0,0 0.335,0.408 0.112,0.781 0,0 -0.597,1.301 1.412,1.748 0,0 1.301,0.223 1.004,-0.818 0,0 -0.894,-1.264 -1.152,-1.785 0,0 -0.596,-3.979 0.408,-4.908 0,0 0.707,-0.148 0.559,-2.23 0,0 -0.223,-1.301 1.896,-0.521 0,0 2.269,0.929 2.752,5.095 0,0 0.186,0.26 0.521,0.371 0,0 0.111,0.224 -0.408,0.408 0,0 -0.894,0.855 0.93,1.859 0,0 1.115,0.224 0.893,-0.633 L 26.81,22.581 c 0,0 -0.373,-1.599 -1.562,-2.082 0,0 -2.307,-0.78 -1.34,-2.046 0,0 2.344,-5.727 1.414,-9.109 0,0 -0.446,-2.156 0.705,-2.379 0,0 0.373,-0.111 0.854,0 0,0 1.078,1.338 2.193,0.967 0,0 0.67,0.855 1.412,0.297 0.002,-0.01 1.079,-1.051 -0.37,-2.54 z M 17.987,9.876 c -0.131,0.136 -0.287,0.272 -0.48,0.401 l -0.263,-0.275 z"
   id="path941"
   style="fill:#006600;fill-opacity:1" />
</g>
<g
   id="g945"
   transform="matrix(0.36665261,0,0,0.34647785,-0.31959168,0)"
   style="fill:#006600;fill-opacity:1">
</g>
<g
   id="g947"
   transform="matrix(0.36665261,0,0,0.34647785,-0.31959168,0)"
   style="fill:#006600;fill-opacity:1">
</g>
<g
   id="g949"
   transform="matrix(0.36665261,0,0,0.34647785,-0.31959168,0)"
   style="fill:#006600;fill-opacity:1">
</g>
<g
   id="g951"
   transform="matrix(0.36665261,0,0,0.34647785,-0.31959168,0)"
   style="fill:#006600;fill-opacity:1">
</g>
<g
   id="g953"
   transform="matrix(0.36665261,0,0,0.34647785,-0.31959168,0)"
   style="fill:#006600;fill-opacity:1">
</g>
<g
   id="g955"
   transform="matrix(0.36665261,0,0,0.34647785,-0.31959168,0)"
   style="fill:#006600;fill-opacity:1">
</g>
<g
   id="g957"
   transform="matrix(0.36665261,0,0,0.34647785,-0.31959168,0)"
   style="fill:#006600;fill-opacity:1">
</g>
<g
   id="g959"
   transform="matrix(0.36665261,0,0,0.34647785,-0.31959168,0)"
   style="fill:#006600;fill-opacity:1">
</g>
<g
   id="g961"
   transform="matrix(0.36665261,0,0,0.34647785,-0.31959168,0)"
   style="fill:#006600;fill-opacity:1">
</g>
<g
   id="g963"
   transform="matrix(0.36665261,0,0,0.34647785,-0.31959168,0)"
   style="fill:#006600;fill-opacity:1">
</g>
<g
   id="g965"
   transform="matrix(0.36665261,0,0,0.34647785,-0.31959168,0)"
   style="fill:#006600;fill-opacity:1">
</g>
<g
   id="g967"
   transform="matrix(0.36665261,0,0,0.34647785,-0.31959168,0)"
   style="fill:#006600;fill-opacity:1">
</g>
<g
   id="g969"
   transform="matrix(0.36665261,0,0,0.34647785,-0.31959168,0)"
   style="fill:#006600;fill-opacity:1">
</g>
<g
   id="g971"
   transform="matrix(0.36665261,0,0,0.34647785,-0.31959168,0)"
   style="fill:#006600;fill-opacity:1">
</g>
<g
   id="g973"
   transform="matrix(0.36665261,0,0,0.34647785,-0.31959168,0)"
   style="fill:#006600;fill-opacity:1">
</g>
</svg>
