<?xml version="1.0" encoding="UTF-8" standalone="no"?>
<svg
   width="11"
   height="9"
   viewBox="0 0 11 9"
   data-name="Layer 1"
   id="Layer_1"
   version="1.1"
   xmlns="http://www.w3.org/2000/svg"
   xmlns:svg="http://www.w3.org/2000/svg">
  <defs
     id="defs9" />
  <title
     id="title2" />
  <path
     d="M 10.69181,5.4038891 11,4.4155218 10.068722,4.0198618 v 0 L 9.2217591,3.6602182 v 0 L 8.374573,3.3003137 v 0 L 7.5276106,2.9409312 v 0 L 6.8906555,2.670285 7.008519,2.2923723 A 0.17891997,0.20879159 0 1 0 6.6730441,2.14935 L 5.5,5.9081208 4.3276269,2.149872 A 0.17891997,0.20879159 0 1 0 3.9921519,2.2928943 L 4.1100155,2.6708071 3.4723894,2.9409312 v 0 L 2.625427,3.3005747 v 0 L 1.7782409,3.6604792 v 0 L 0.93127846,4.0201228 v 0 L 0,4.4155218 0.30818966,5.403628 v 0 l 0.30818965,0.9881063 v 0 L 0.95543266,7.4784946 1.8023951,7.1185901 v 0 L 2.6495812,6.7586856 v 0 L 3.4965436,6.399042 v 0 L 4.3437297,6.0393985 v 0 L 5.0645535,5.7332579 5.3105685,6.5185752 4.6203847,8.7309834 A 0.17891997,0.20879159 0 0 0 4.9558596,8.8740053 L 5.5,7.1298126 6.0441404,8.8747886 A 0.17891997,0.20879159 0 0 0 6.3796153,8.731766 L 5.6894315,6.5193582 5.9354465,5.7340408 6.6562703,6.0401814 v 0 L 7.5034564,6.399042 v 0 l 0.8469624,0.3599045 v 0 L 9.1976049,7.118851 v 0 l 0.8469621,0.3599045 0.339054,-1.0864992 v 0 L 10.69181,5.4041501 Z M 2.3943966,5.6366917 2.1170706,4.7469785 2.8799406,4.4228295 3.1574902,5.3125427 Z M 4.0885451,4.9171436 4.0661801,4.8477204 3.8114427,4.0274304 4.4488452,3.7570452 4.7263948,4.6464976 Z M 2.656067,3.3976628 3.4200553,3.0745578 3.4424203,3.1442419 3.6982759,3.964532 2.9354058,4.2886808 2.7965192,3.8449987 Z M 1.7247885,3.7941058 2.0023382,4.684341 1.2394681,5.0082289 0.96191851,4.1182547 Z M 0.42314574,5.4665265 1.1860158,5.1423776 1.3249024,5.5860598 1.4635654,6.0297419 0.7004717,6.3562397 Z M 1.8558474,6.9849634 1.5782978,6.0949892 2.3413915,5.7708403 2.6189411,6.6600315 Z M 4.3130896,5.9410054 3.5499959,6.2651544 3.4111093,5.8199064 3.2724463,5.3762242 4.03554,5.0520752 4.057905,5.1212376 Z M 7.8422861,5.3122817 8.1198357,4.4225685 8.8827058,4.7467175 8.6053798,5.6364306 Z M 7.1885573,4.0274304 6.9327017,4.8477204 6.9103367,4.9171436 6.2733816,4.6464976 6.5511548,3.7570452 Z M 9.7605319,5.0082289 8.9976618,4.684341 9.2752115,3.7941058 10.038081,4.1182547 Z M 8.2061646,3.8439548 8.067278,4.2876369 7.3044079,3.963488 7.5602635,3.1431981 7.5826285,3.0735138 8.343933,3.3976627 Z M 6.9429896,5.1201936 6.9653546,5.0510315 7.7284483,5.3751804 7.5897853,5.8188624 7.4508987,6.2641105 6.687805,5.9399616 Z M 8.6586085,5.7705792 9.4217022,6.0947282 9.1441526,6.9847023 8.3810589,6.6600315 Z M 9.5364346,6.0315689 9.6750976,5.5878867 9.8139842,5.1442046 10.576854,5.4665265 10.299528,6.3562397 Z"
     id="path4"
     style="fill:#006600;fill-opacity:1;stroke-width:0.0241599" />
</svg>
