<?xml version="1.0" encoding="UTF-8" standalone="no"?>
<svg
   version="1.1"
   id="ski"
   x="0px"
   y="0px"
   viewBox="0 0 12 12"
   xml:space="preserve"
   width="12"
   height="12"
   xmlns="http://www.w3.org/2000/svg"
   xmlns:svg="http://www.w3.org/2000/svg">
    <defs
     id="defs11" />
    <style
     type="text/css"
     id="style2"><![CDATA[.st0{fill-rule:evenodd;clip-rule:evenodd;}]]>
</style>
    <g
     id="g6"
     transform="matrix(0.1082026,0,0,0.09766159,3.3190334e-4,0)"
     style="fill:#006600;fill-opacity:1">
        <path
       class="st0"
       d="M 39.99,37.79 56.31,25.85 39.36,14.86 C 37.77,13.83 37.32,11.71 38.35,10.12 39.38,8.53 41.5,8.08 43.09,9.11 l 19.14,12.41 3.74,-2.74 c 3.05,-1.9 6.34,-3.18 8.99,-2.83 2.21,0.3 4.25,1.5 6.1,3.84 4.31,5.38 6.96,12.29 9.36,20 l 9.89,6.41 3.25,-0.38 c 4.48,-0.2 6.6,4.45 5.08,7.55 0.02,0.67 -0.16,1.36 -0.55,1.96 -1.03,1.59 -3.15,2.04 -4.74,1.01 l -0.27,-0.18 -9.34,1.03 C 88.7,57.76 85.02,59.15 82.28,53.47 L 76.47,38.9 75.71,38.41 58.52,50.38 c -1.09,1.14 -1.25,2.26 -0.16,3.4 l 13.23,9.62 c 1.74,1.17 3.21,2 3.57,4.34 0.49,3.15 -10.32,22.66 -14.43,29.9 l 23.12,11.7 c 3.87,1.68 7.09,2.38 9.6,2.03 1.93,-0.26 3.53,-1.33 4.77,-3.24 1.72,-2.64 5.25,-3.39 7.9,-1.68 2.64,1.72 3.4,5.25 1.68,7.9 -3.16,4.87 -7.46,7.61 -12.82,8.34 -4.61,0.63 -9.85,-0.37 -15.7,-2.91 -0.22,-0.08 -0.43,-0.17 -0.64,-0.28 L 3.14,81.29 C 0.32,79.87 -0.81,76.43 0.61,73.62 2.03,70.8 5.47,69.67 8.28,71.09 L 48.07,91.23 58.7,72.21 C 55.71,70.43 52.81,68.65 50.02,66.87 40.71,60.96 28.32,47.41 39.99,37.79 Z M 98.62,0 c 6.78,0 12.28,5.5 12.28,12.28 0,6.78 -5.5,12.28 -12.28,12.28 -6.78,0 -12.28,-5.5 -12.28,-12.28 C 86.34,5.5 91.84,0 98.62,0 Z"
       id="path4"
       style="fill:#006600;fill-opacity:1" />
    </g>
</svg>
