<?xml version="1.0" encoding="UTF-8" standalone="no"?>
<svg
   version="1.1"
   width="11"
   height="11"
   viewBox="0 0 11 11"
   overflow="inherit"
   id="svg4"
   xmlns="http://www.w3.org/2000/svg"
   xmlns:svg="http://www.w3.org/2000/svg">
  <defs
     id="defs8" />
  <path
     d="m 7.9710091,1.7363027 c 0.5207353,0 0.9390267,-0.3872957 0.9390267,-0.86689168 C 8.9100358,0.38981494 8.4919949,0 7.9710091,0 7.4525282,0 7.0337357,0.38981494 7.0337357,0.86941102 c 0,0.47959598 0.4187925,0.86689168 0.9372734,0.86689168 z M 3.9879729,5.3571214 7.3636098,3.3388786 C 7.8044439,3.0800707 7.9376962,2.4412676 7.6576662,2.0335882 7.3808926,1.6256795 6.7957854,1.4029154 6.3547009,1.6619521 L 3.865992,3.1490664 C 3.7247248,3.2338084 3.6137648,3.3442029 3.5418788,3.4722327 L 0.95097669,8.1960479 c -0.15253864,0.2796498 -0.0330623,0.7179343 0.26625361,0.859019 0.2993164,0.1406265 0.6680142,0.03069 0.8203021,-0.24644 z M 10.631793,5.0207571 C 11.125494,4.645772 11.07053,3.8288099 10.773029,3.2438584 L 10.103,3.6155067 c 0.18629,0.2916741 0.205646,0.5738055 -0.02006,0.7105385 L 0,10.32 0.37733976,11 Z"
     id="path2"
     style="fill:#006600;fill-opacity:1;stroke-width:0.239514" />
</svg>
