<?xml version="1.0" encoding="UTF-8" standalone="no"?>

<svg
   version="1.1"
   id="soccer"
   x="0px"
   y="0px"
   viewBox="0 0 11 11"
   width="11"
   height="11"
   xmlns="http://www.w3.org/2000/svg"
   xmlns:svg="http://www.w3.org/2000/svg">
<defs
   id="defs39" />
<g
   id="g4"
   transform="scale(0.02044442)"
   style="fill:#006600;fill-opacity:1">
<path
   d="M 269.022,0 C 120.689,0 0,120.677 0,269.022 0,417.367 120.689,538.044 269.022,538.044 417.355,538.044 538.044,417.367 538.044,269.022 538.044,120.677 417.354,0 269.022,0 Z m 198.789,124.503 h -11.502 c -4.962,0 -9.35,3.204 -10.88,7.915 l -24.654,75.876 -64.482,28.337 -75.828,-55.084 v -76.043 l 63.991,-46.463 c 4.017,-2.917 5.691,-8.083 4.161,-12.794 L 344.97,35.02 c 49.834,16.214 92.59,47.97 122.841,89.483 z M 193.086,35.009 189.439,46.236 c -1.53,4.723 0.143,9.876 4.161,12.794 l 63.979,46.463 v 76.043 L 181.751,236.62 117.257,208.271 92.591,132.395 c -1.53,-4.735 -5.93,-7.915 -10.88,-7.915 H 70.232 C 100.482,82.99 143.251,51.234 193.086,35.009 Z M 22.909,268.83 l 9.637,7.007 c 2.009,1.447 4.364,2.2 6.731,2.2 2.355,0 4.723,-0.741 6.731,-2.2 l 63.369,-46.045 64.482,28.349 29.257,89.997 -38.99,46.427 H 84.568 c -4.962,0 -9.35,3.204 -10.88,7.915 l -3.551,10.916 c -29.568,-40.592 -47.24,-90.403 -47.24,-144.375 0,-0.071 0.012,-0.131 0.012,-0.191 z m 169.985,234.133 9.529,-6.959 c 4.017,-2.894 5.703,-8.083 4.173,-12.781 l -24.284,-74.692 38.99,-46.403 h 95.437 l 38.954,46.403 -24.272,74.704 c -1.53,4.723 0.167,9.876 4.185,12.794 l 9.529,6.935 c -23.985,7.808 -49.536,12.196 -76.103,12.196 -26.59,-0.002 -52.141,-4.366 -76.138,-12.197 z m 275,-89.531 -3.551,-10.952 c -1.542,-4.723 -5.942,-7.903 -10.892,-7.903 l -79.547,0.012 -38.954,-46.415 29.234,-90.008 64.505,-28.337 63.358,46.009 c 2.009,1.47 4.364,2.212 6.732,2.212 2.367,0 4.735,-0.741 6.732,-2.212 l 9.637,-6.994 c 0,0.06 0.012,0.12 0.012,0.191 -0.014,53.958 -17.709,103.769 -47.266,144.397 z"
   id="path2"
   style="fill:#006600;fill-opacity:1" />
</g>
</svg>
