<?xml version="1.0" encoding="UTF-8" standalone="no"?>
<!-- Generator: Adobe Illustrator 18.0.0, SVG Export Plug-In . SVG Version: 6.00 Build 0)  -->

<svg
   version="1.1"
   id="Capa_1"
   x="0px"
   y="0px"
   viewBox="0 0 11 11"
   xml:space="preserve"
   width="11"
   height="11"
   xmlns="http://www.w3.org/2000/svg"
   xmlns:svg="http://www.w3.org/2000/svg"><defs
   id="defs69" />
<g
   id="g34"
   transform="matrix(0.03703699,0,0,0.03703701,-2.7777743e-5,0)"
   style="fill:#006600;fill-opacity:1">
	<g
   id="g4"
   style="fill:#006600;fill-opacity:1">
		
	</g>
	<g
   style="opacity:0.3;fill:#006600;fill-opacity:1"
   id="g8">
		<path
   style="fill:#006600;fill-opacity:1"
   d="M 261.214,35.786 C 241.354,15.926 216.356,4.34 190.499,1.012 c 16.202,5.916 31.405,15.366 44.404,28.366 47.715,47.715 47.715,125.076 0,172.791 -15.417,15.417 -33.936,25.824 -53.544,31.276 l 9.816,9.816 c 25.616,-3.441 50.351,-14.997 70.038,-34.684 47.716,-47.714 47.716,-125.076 10e-4,-172.791 z"
   id="path6" />
	</g>
	<g
   id="g12"
   style="fill:#006600;fill-opacity:1">
		<path
   id="path10"
   style="fill:#006600;fill-opacity:1"
   d="m 174.81836,0 c -31.26913,0 -62.53848,11.929609 -86.396485,35.787109 -19.687,19.686 -31.241594,44.42111 -34.683594,70.037111 -1.213178,9.02925 -1.407432,18.16685 -0.601562,27.23242 L 163.17969,243.78516 c 9.3162,0.88691 18.71286,0.72386 27.99609,-0.52344 25.616,-3.441 50.35206,-14.99659 70.03906,-34.6836 47.715,-47.715 47.715,-125.076011 0,-172.791011 C 237.35734,11.929609 206.08748,0 174.81836,0 Z" />
	</g>
	
	<g
   id="g20"
   style="fill:#006600;fill-opacity:1">
		<path
   style="fill:#006600;fill-opacity:1"
   d="M 62.804,197.169 2.931,257.043 c -3.907,3.907 -3.907,10.243 0,14.15 l 22.877,22.877 c 3.907,3.907 10.243,3.907 14.15,0 l 59.873,-59.873 c 5.051,-5.051 12.723,-6.358 19.141,-3.297 L 66.101,178.029 c 3.061,6.417 1.754,14.09 -3.297,19.14 z"
   id="path18" />
	</g>
	
	<g
   id="g28"
   transform="translate(140.16495,176.2268)"
   style="fill:#006600;fill-opacity:1">
		<ellipse
   style="fill:#006600;fill-opacity:1;stroke-width:0.957561"
   cx="125.49621"
   cy="89.278748"
   id="circle26"
   rx="32.40004"
   ry="32.400024" />
	</g>
	
</g>
<g
   id="g36"
   transform="matrix(0.03703699,0,0,0.03703701,-2.7777743e-5,0)"
   style="fill:#006600;fill-opacity:1">
</g>
<g
   id="g38"
   transform="matrix(0.03703699,0,0,0.03703701,-2.7777743e-5,0)"
   style="fill:#006600;fill-opacity:1">
</g>
<g
   id="g40"
   transform="matrix(0.03703699,0,0,0.03703701,-2.7777743e-5,0)"
   style="fill:#006600;fill-opacity:1">
</g>
<g
   id="g42"
   transform="matrix(0.03703699,0,0,0.03703701,-2.7777743e-5,0)"
   style="fill:#006600;fill-opacity:1">
</g>
<g
   id="g44"
   transform="matrix(0.03703699,0,0,0.03703701,-2.7777743e-5,0)"
   style="fill:#006600;fill-opacity:1">
</g>
<g
   id="g46"
   transform="matrix(0.03703699,0,0,0.03703701,-2.7777743e-5,0)"
   style="fill:#006600;fill-opacity:1">
</g>
<g
   id="g48"
   transform="matrix(0.03703699,0,0,0.03703701,-2.7777743e-5,0)"
   style="fill:#006600;fill-opacity:1">
</g>
<g
   id="g50"
   transform="matrix(0.03703699,0,0,0.03703701,-2.7777743e-5,0)"
   style="fill:#006600;fill-opacity:1">
</g>
<g
   id="g52"
   transform="matrix(0.03703699,0,0,0.03703701,-2.7777743e-5,0)"
   style="fill:#006600;fill-opacity:1">
</g>
<g
   id="g54"
   transform="matrix(0.03703699,0,0,0.03703701,-2.7777743e-5,0)"
   style="fill:#006600;fill-opacity:1">
</g>
<g
   id="g56"
   transform="matrix(0.03703699,0,0,0.03703701,-2.7777743e-5,0)"
   style="fill:#006600;fill-opacity:1">
</g>
<g
   id="g58"
   transform="matrix(0.03703699,0,0,0.03703701,-2.7777743e-5,0)"
   style="fill:#006600;fill-opacity:1">
</g>
<g
   id="g60"
   transform="matrix(0.03703699,0,0,0.03703701,-2.7777743e-5,0)"
   style="fill:#006600;fill-opacity:1">
</g>
<g
   id="g62"
   transform="matrix(0.03703699,0,0,0.03703701,-2.7777743e-5,0)"
   style="fill:#006600;fill-opacity:1">
</g>
<g
   id="g64"
   transform="matrix(0.03703699,0,0,0.03703701,-2.7777743e-5,0)"
   style="fill:#006600;fill-opacity:1">
</g>
</svg>
