<?xml version="1.0" encoding="UTF-8" standalone="no"?>

<svg
   version="1.1"
   id="volleyball"
   x="0px"
   y="0px"
   viewBox="0 0 11 11"
   xml:space="preserve"
   width="11"
   height="11"
   xmlns="http://www.w3.org/2000/svg"
   xmlns:svg="http://www.w3.org/2000/svg"><defs
   id="defs39" />
<g
   id="g4"
   style="fill:#006600;fill-opacity:1"
   transform="scale(0.18965517)">
	<path
   d="m 58.000001,29.164489 c 0,1.89005 -0.185884,3.736875 -0.528641,5.527507 C 54.591775,22.717351 49.969397,14.295873 38.425269,8.2712686 39.14624,7.3883803 39.902668,6.4914437 40.701001,5.5480393 41.290886,4.8510223 41.905484,4.1226665 42.530827,3.3705365 51.721861,8.2723492 58.000001,17.992765 58.000001,29.164489 Z M 6.6058541,47.706222 C 4.6137829,45.278009 3.0095962,42.518038 1.8749537,39.526808 c 4.9909226,2.153729 9.1985553,3.24302 13.6124863,3.24302 5.243424,0 10.800593,-1.551808 18.291812,-4.658667 1.363505,2.476842 2.52286,5.060668 3.442608,7.763365 -13.338495,5.335152 -19.214783,4.762409 -30.6160059,1.831696 z M 15.049055,32.413993 c 4.88455,0 9.433865,-0.66892 13.538348,-1.98839 l 0.125713,0.168581 c 1.476325,1.792793 2.800074,3.672037 3.991664,5.621523 C 17.98129,42.277054 11.576362,41.676214 0.9799185,36.75495 0.44483142,34.758996 0.11174509,32.680912 0.01289366,30.542313 5.2606151,31.785056 10.310634,32.413993 15.049055,32.413993 Z m 15.352057,-3.156569 -0.29548,-0.396597 c 0.434087,-4.163731 1.149685,-7.4208 2.122082,-10.165642 11.546277,7.920058 16.522157,17.532409 16.499593,31.826121 -2.09522,1.960293 -4.475176,3.614763 -7.073249,4.888845 C 40.315265,45.506025 36.528826,36.699837 30.401112,29.257424 Z M 28.00289,28.345359 c -3.031085,0.982307 -6.327566,1.585308 -9.840015,1.80576 C 19.849796,15.094471 24.30026,9.697722 31.547574,0.91638826 l 0.618895,-0.75104934 c 2.942979,0.32419396 5.752724,1.09253368 8.36584,2.23693828 -0.49963,0.5975976 -0.991738,1.1811467 -1.468804,1.7441635 C 33.459059,10.766481 29.38681,15.602375 28.00289,28.345359 Z M 29.511449,0 C 22.42638,8.5889786 17.697629,14.569277 15.993516,30.237571 13.581327,30.281877 11.079956,30.155441 8.5022973,29.858264 10.096814,15.081503 13.653316,10.782691 20.583661,2.4228095 L 21.857985,0.88072692 C 24.558165,0.1230061 27.13506,0.17347878 29.511449,0 Z M 17.997407,2.1688576 C 11.608596,9.9041255 7.9682847,14.885906 6.3716192,29.575134 4.2892924,29.263908 2.1629122,28.844617 0,28.317262 0.33738422,16.505795 7.6824751,6.4330888 17.997407,2.1688576 Z M 9.3403854,50.606677 c 3.9938126,0.93584 7.3923676,1.499937 10.8510936,1.499937 5.044646,0 10.25691,-1.211404 17.665394,-4.163731 0.787588,2.691891 1.371027,5.48104 1.7299,8.37285 C 29.139046,60.031744 16.831421,57.366067 9.3403854,50.606677 Z M 50.846166,48.317868 C 50.365877,34.260818 44.920453,24.638741 33.035717,16.632231 34.134902,14.142421 35.485514,12.056773 37.061764,9.9927385 49.39348,16.295069 53.507633,25.504339 56.252909,39.138856 55.019415,42.53857 53.1681,45.641106 50.846166,48.317868 Z"
   id="path2"
   style="fill:#006600;fill-opacity:1;stroke-width:20.9654;stroke-miterlimit:4;stroke-dasharray:none" />
</g>
<g
   id="g6">
</g>
<g
   id="g8">
</g>
<g
   id="g10">
</g>
<g
   id="g12">
</g>
<g
   id="g14">
</g>
<g
   id="g16">
</g>
<g
   id="g18">
</g>
<g
   id="g20">
</g>
<g
   id="g22">
</g>
<g
   id="g24">
</g>
<g
   id="g26">
</g>
<g
   id="g28">
</g>
<g
   id="g30">
</g>
<g
   id="g32">
</g>
<g
   id="g34">
</g>
</svg>
