<?xml version="1.0" encoding="UTF-8" standalone="no"?>
<svg
   width="11"
   height="11"
   version="1.1"
   viewBox="0 0 11 11"
   id="svg20"
   xmlns="http://www.w3.org/2000/svg"
   xmlns:svg="http://www.w3.org/2000/svg">
  <defs
     id="defs7">
    <linearGradient
       id="linearGradient837"
       x1="7"
       x2="7"
       y1="3"
       gradientUnits="userSpaceOnUse">
      <stop
         offset="0"
         id="stop2" />
      <stop
         stop-opacity="0"
         offset="1"
         id="stop4" />
    </linearGradient>
  </defs>
  <path
     d="M 4.711217,0 V 2.570452 A 1.5714287,1.5714286 0 0 0 3.9255024,3.9285714 1.5714287,1.5714286 0 0 0 4.711217,5.2882256 V 11 H 6.2826455 V 5.2866908 A 1.5714287,1.5714286 0 0 0 7.0683598,3.9285714 1.5714287,1.5714286 0 0 0 6.2826455,2.5689174 V 0 Z m 3.9331746,0 v 1.0066964 c 0.9401072,0.55825 1.5299964,1.5028824 1.5299964,2.7054967 0,1.2026143 -0.5898892,2.1625925 -1.5299964,2.7208426 V 7.4535435 C 10.034085,6.8237464 11,5.3671431 11,3.7121931 11,2.0572431 10.034007,0.62975 8.6443916,0 Z M 2.3540739,0.0030692 C 0.96438092,0.63286634 0,2.0710545 0,3.7260045 0,5.3809544 0.96445949,6.8376049 2.3540739,7.4673549 V 6.5051619 C 1.4139666,5.9469118 0.81026787,4.8719172 0.81026787,3.6692244 c 0,-1.2026143 0.60365943,-2.1411083 1.54380603,-2.69935834 z m 0.7857143,1.4578683 c -0.9098573,0.3368829 -1.5714286,1.2172384 -1.5714286,2.265067 0,1.0479071 0.6615478,1.9373603 1.5714286,2.2742746 V 5.1010045 C 2.6704024,4.8224216 2.4108541,4.2992174 2.4108541,3.6983817 c 0,-0.6009065 0.2595483,-1.0534955 0.7289341,-1.3320312 z m 4.7188892,0.00768 v 0.8685826 c 0.4693858,0.2785829 0.7995255,0.787897 0.7995263,1.3888113 0,0.6009065 -0.3301249,1.0243383 -0.7995263,1.302874 v 0.883925 C 8.7685345,5.5759236 9.4024841,4.7739112 9.4024841,3.726004 c 0,-1.0479072 -0.6339259,-1.9205582 -1.5438067,-2.257394 z"
     id="path12"
     style="stroke-width:0.785713" />
  <path
     d="M 3.1397882,11 5.4969312,8.6428571 7.8540742,11 Z"
     fill-rule="evenodd"
     id="path14"
     style="stroke-width:0.785713" />
</svg>
