<?xml version="1.0" encoding="UTF-8" standalone="no"?>
<svg
   viewBox="0 0 10 11"
   height="11"
   width="10"
   id="svg109"
   version="1.1"
   xmlns="http://www.w3.org/2000/svg"
   xmlns:svg="http://www.w3.org/2000/svg">
  <defs
     id="defs113">
    <linearGradient
       id="linearGradient831">
      <stop
         id="stop829"
         offset="0"
         style="stop-color:#ffffff;stop-opacity:1;" />
    </linearGradient>
  </defs>
  <path
     id="rect837-8"
     d="M 0.71428572,0 C 0.31857143,0 0,0.35042857 0,0.78571429 0,1.5714286 0,2.3571429 0,3.1428571 H 0.71428572 V 11 H 1.4285715 V 8.6428571 L 3.5714285,11 H 4.2857143 V 3.1428571 H 7.8571428 V 7.0714286 H 6.4285715 V 8.6428571 H 10 V 7.0714286 H 8.5714285 V 3.1428571 H 10 L 9.2857145,1.5714286 H 4.2857143 L 3.5714285,0 C 2.6190476,0 1.6666666,0 0.71428572,0 Z m 0,0.78571429 c 0.95238088,0 1.90476188,0 2.85714278,0 L 3.9285715,1.5714286 H 0.71428572 Z M 1.4285715,3.1428571 h 2.142857 V 5.5 Z m 0,0.7857143 1.7857142,1.9642857 -1.7857142,1.9642858 z m 2.142857,2.3571429 V 10.214286 L 1.7857143,8.25 Z"
     style="opacity:1;fill:#000000;fill-opacity:1;stroke:none;stroke-width:2.05163;stroke-linecap:butt;stroke-linejoin:round;stroke-miterlimit:4;stroke-dasharray:none;stroke-opacity:1;paint-order:stroke fill markers" />
</svg>
