<?xml version="1.0" encoding="UTF-8" standalone="no"?>
<svg
   version="1.1"
   width="10"
   height="11"
   viewBox="0 0 10 11"
   id="svg2"
   xmlns="http://www.w3.org/2000/svg"
   xmlns:svg="http://www.w3.org/2000/svg">
  <defs
     id="defs6" />
  <rect
     width="14"
     height="14"
     x="0"
     y="0"
     id="canvas"
     style="visibility:hidden;fill:none;stroke:none" />
  <path
     d="M 1.4322917,0 0,1.3504464 4.140625,4.7142857 0,8.078125 1.4322917,9.4285712 5,5.5245536 8.5677083,9.4285712 10,8.078125 5.859375,4.7142857 10,1.3504464 8.5677083,0 5,3.9040179 Z M 5,1.5714286 c -0.3461618,0 -0.6356731,0.070872 -0.8854167,0.171875 L 5,2.7008929 5.8854167,1.7433036 C 5.6370752,1.6368551 5.3420049,1.5714286 5,1.5714286 Z m 0,2.75 c 0.2301187,0 0.4166667,0.1758881 0.4166667,0.3928571 0,0.216969 -0.186548,0.3928572 -0.4166667,0.3928572 -0.2301187,0 -0.4166667,-0.1758882 -0.4166667,-0.3928572 0,-0.216969 0.186548,-0.3928571 0.4166667,-0.3928571 z M 2.65625,4.5424107 2.6302083,4.9107143 2.8645833,4.7142857 Z m 4.6875,0 -0.2083333,0.171875 0.234375,0.1964286 z M 5,6.7276786 2.1875,9.796875 2.0833333,11 H 7.9166667 L 7.8125,9.796875 Z"
     id="windmill"
     style="stroke-width:0.809173" />
</svg>
