<?xml version="1.0" encoding="UTF-8" standalone="no"?>
<svg
   id="svg2"
   viewBox="0 0 11 10"
   height="10"
   width="11"
   version="1.1"
   xmlns="http://www.w3.org/2000/svg"
   xmlns:svg="http://www.w3.org/2000/svg">
  <rect
     style="visibility:hidden;fill:none;stroke:none"
     id="canvas"
     y="0"
     x="0"
     height="14"
     width="14" />
  <defs
     id="defs6" />
  <path
     style="stroke-width:1.06263;fill:#009900;fill-opacity:1"
     id="water"
     d="M 3.1509247,9.9693164 C 2.9728087,9.9237347 2.8094835,9.8557858 2.2688363,9.6023322 1.737666,9.3533234 1.5557199,9.2877856 1.344267,9.2692953 1.1457647,9.2519345 0.9193762,9.3227061 0.40441688,9.5630765 0.18372292,9.6660912 0.00194936,9.747486 4.7497956e-4,9.7439532 -0.00101325,9.7404578 0.00111659,9.4074224 0.00517599,9.0039556 L 0.01254027,8.2703811 0.32341394,8.1266652 C 1.2663563,7.6907523 1.3009724,7.691296 2.3176424,8.1580235 3.0404092,8.4898292 3.1374908,8.5238611 3.3639559,8.5248103 3.5944239,8.5257425 3.6459638,8.5082573 4.3808304,8.1792488 5.3015946,7.7670064 5.4074927,7.7432255 5.786006,7.86369 5.9129205,7.9040821 6.2576661,8.0468232 6.552104,8.1808901 7.2226378,8.4862079 7.4120016,8.5492476 7.6114663,8.5335552 7.8278661,8.5165439 8.0134309,8.4492421 8.6519221,8.1562664 8.9683426,8.0110738 9.3084137,7.8691468 9.4076328,7.8408731 9.7254851,7.7502957 9.9445337,7.7986167 10.627725,8.1100407 L 11,8.2797366 10.98847,8.7644474 c -0.01455,0.6114622 -0.03003,0.9641995 -0.0429,0.9764158 -0.0055,0.0052 -0.190577,-0.074772 -0.411272,-0.1777882 C 10.09502,9.3580283 9.8088612,9.2607889 9.64473,9.2607889 c -0.1755792,0 -0.4123778,0.083785 -1.0172908,0.3599513 C 8.3110137,9.7651972 7.9584825,9.9116815 7.8440324,9.946261 7.5079398,10.047809 7.4073118,10.026281 6.6811761,9.6974658 5.6618144,9.2358709 5.5232258,9.2028907 5.1296695,9.3282694 5.0034359,9.3684867 4.6509049,9.5153098 4.346267,9.6545484 3.5833575,10.003247 3.4355641,10.042164 3.1509044,9.9693172 Z" />
  <path
     style="stroke-width:1.06263;fill:#009900;fill-opacity:1"
     id="umberella"
     d="M 4.7001969,4.063574 C 4.6317277,3.9968876 2.7551075,4.8112865 1.9844988,5.242109 1.6873207,5.4082524 1.3849186,5.5441875 1.3124946,5.5441875 c -0.3035872,0 -0.46048074,-0.3624851 -0.46048074,-1.0638888 0,-0.9642395 0.38560074,-1.9467744 1.08335704,-2.7604595 C 2.1969091,1.4148463 2.9278224,0.86170178 3.2225134,0.74574767 3.3851116,0.68176298 3.4009922,0.65501524 3.4009922,0.4450337 c 0,-0.4472613 0.4084661,-0.59917731 0.7024763,-0.26126391 0.1508522,0.17338192 0.1652877,0.17814524 0.405775,0.13388946 0.4627167,-0.0851521 1.3354059,-0.0582625 1.8058963,0.0556425 C 7.4791299,0.65510069 8.4968012,1.3580352 9.0674841,2.2744272 9.305084,2.6559609 9.3163439,2.7293716 9.1652305,2.9118623 9.070351,3.026442 8.9723649,3.0560796 8.4310149,3.1339185 7.400137,3.2821497 5.60061,3.6921575 5.5344259,3.7938856 c 0.623961,1.843176 1.0464696,3.0109042 1.746896,4.82434 L 6.2040829,8.201212 C 5.6051775,6.4779395 5.3339088,5.712248 4.7001969,4.063574 Z" />
</svg>
