<?xml version="1.0" encoding="UTF-8" standalone="no"?>
<svg
   version="1.1"
   id="svg109"
   width="7"
   height="9"
   viewBox="0 0 7 9"
   xmlns="http://www.w3.org/2000/svg"
   xmlns:svg="http://www.w3.org/2000/svg">
  <defs
     id="defs113" />
  <path
     id="path4157-6"
     d="M 2.8382982,0 C 3.7905565,2.1534815 -1.2055672,3.5646129 3.1388819,6.5145733 L 3.3267468,6.4393042 C 2.2450353,4.7145261 6.6351179,2.6926479 2.8382982,0 Z M 4.8137255,2.2066502 C 5.4260629,4.1898962 3.3353141,4.7581479 3.9916746,6.1720973 L 4.9765417,5.778187 C 5.3716667,4.7161635 6.3836406,3.8598359 4.8137255,2.2066502 Z M 0.28105907,5.7869685 A 0.29150431,0.32118189 0 0 0 0.19680454,6.4117051 L 2.6538491,7.3964808 0.1979431,8.3800019 A 0.28812935,0.31746334 0 0 0 0.39377803,8.9771401 L 3.4963944,7.7339392 6.6092582,8.9809034 A 0.29172854,0.32142896 0 0 0 6.8073704,8.3762387 L 4.3503256,7.3914631 6.8062318,6.4079416 A 0.28810611,0.31743772 0 0 0 6.7140074,5.7907319 0.28810611,0.31743772 0 0 0 6.6103967,5.8108038 L 3.5077802,7.0540047 0.39491656,5.8070403 A 0.29150431,0.32118189 0 0 0 0.28105907,5.7869685 Z"
     style="fill:#502d16;fill-opacity:1;stroke-width:0.611906" />
</svg>
