<?xml version="1.0" encoding="UTF-8" standalone="no"?>
<svg
   width="10"
   height="10"
   id="svg3800"
   version="1.1"
   viewBox="0 0 10 10"
   xmlns="http://www.w3.org/2000/svg"
   xmlns:svg="http://www.w3.org/2000/svg">
  <defs
     id="defs3802" />
  <g
     transform="matrix(0.71428571,0,0,0.71428571,1.1085996,2.0074641)"
     id="g97"
     style="fill:#502d16;fill-opacity:1">
    <g
       id="g105"
       style="fill:#502d16;fill-opacity:1">
      <path
         id="path822"
         transform="translate(-1.5520395,-2.8104498)"
         d="M 0,0 V 5 A 3,3 0 0 0 3,8 3,3 0 0 0 6,5 V 3 L 4,5 H 5 A 2,2 0 0 1 3,7 2,2 0 0 1 1,5 V 0 Z m 5.5,9 c -2.3571424,-10e-8 -4.71428521,1.25 -5.5,2.5 0.78571457,1.25 3.142857,2.5 5.5,2.5 2.3571441,10e-7 4.714284,-1.25 5.5,-2.5 C 10.214286,10.25 7.8571436,9.0000001 5.5,9 Z M 11,11.5 14,14 V 9 Z M 3,10 a 1,1 0 0 1 1,1 1,1 0 0 1 -1,1 1,1 0 0 1 -1,-1 1,1 0 0 1 1,-1 z"
         style="opacity:1;fill:#502d16;fill-opacity:1;stroke:none;stroke-width:1.93238;stroke-linecap:square;stroke-miterlimit:4;stroke-dasharray:none;stroke-opacity:1;paint-order:markers stroke fill" />
    </g>
  </g>
</svg>
