<?xml version="1.0" encoding="UTF-8" standalone="no"?>
<svg
   version="1.0"
   width="11"
   height="11"
   id="svg4"
   xmlns="http://www.w3.org/2000/svg"
   xmlns:svg="http://www.w3.org/2000/svg">
  <defs
     id="defs8" />
  <path
     d="m 5.6708597,0 -0.467776,0.63914915 c -0.1156321,0.1504064 -0.087427,0.2790964 0.081675,0.38768055 0.1598667,0.091776 0.2964554,0.066903 0.4120888,-0.075091 L 5.9641484,0.57628202 10.125872,3.1451025 6.7252126,3.7213842 c -0.1245912,0.02499 -0.2251257,0.085522 -0.3007131,0.1816162 -0.075598,0.096107 -0.094964,0.1970172 -0.059398,0.3056041 L 7.0983219,6.9031594 4.696328,10.273535 c -0.044518,0.07494 -0.066829,0.153887 -0.066825,0.237499 -3.7e-6,0.133572 0.051738,0.249666 0.1540691,0.345769 0.1023245,0.0961 0.2253058,0.143195 0.3675386,0.143197 0.1867372,-2e-6 0.3372932,-0.08275 0.4529261,-0.249722 L 8.1118374,7.2035241 8.2454879,7.6924905 7.8723806,10.348627 c -0.01792,0.133572 0.012735,0.253478 0.092813,0.357993 0.080064,0.104513 0.1918895,0.168857 0.3341257,0.193841 0.1424915,0.02498 0.2735456,-0.0028 0.3935252,-0.08208 0.1199629,-0.07928 0.1881218,-0.185748 0.2060442,-0.319574 L 9.2868463,7.7798041 C 9.2957794,7.6877825 9.28551,7.5918449 9.258998,7.4916625 L 8.4051203,4.2976633 10.634482,3.9204605 c 0.115619,-0.016568 0.209171,-0.071538 0.280296,-0.1676456 0.0711,-0.096095 0.09773,-0.1987517 0.07982,-0.3073504 -0.02661,-0.1085834 -0.09381,-0.2007081 -0.200477,-0.2759134 z M 0,0.25146849 V 0.47674239 10.778219 H 0.75178347 V 3.2376572 L 4.4642941,1.819654 0.75178347,0.52214643 V 0.25146849 Z M 6.5637184,1.8528338 c -0.2399472,7.1e-6 -0.4434698,0.077662 -0.6125641,0.2322591 -0.1691044,0.1546116 -0.254311,0.345453 -0.2543064,0.5710431 -4.6e-6,0.2253488 0.085203,0.4146991 0.2543064,0.5692969 0.1690943,0.1546096 0.3726169,0.2322639 0.6125641,0.2322586 0.2402078,5.3e-6 0.4483967,-0.077654 0.621846,-0.2322586 C 7.3589997,3.0708351 7.445433,2.8814848 7.4454397,2.656136 7.445433,2.4305459 7.3589997,2.2397045 7.1855644,2.0850929 7.0121151,1.9304962 6.8039262,1.8528409 6.5637184,1.8528338 Z"
     id="path2"
     style="fill:#009900;fill-opacity:1;stroke-width:0.648057" />
</svg>
