<?xml version="1.0" encoding="UTF-8" standalone="no"?>
<!-- Created with Inkscape (http://www.inkscape.org/) -->

<svg
   version="1.1"
   width="11"
   height="11"
   viewBox="0 0 11 11"
   id="svg2"
   xmlns="http://www.w3.org/2000/svg"
   xmlns:svg="http://www.w3.org/2000/svg">
  <defs
     id="defs7" />
  <rect
     width="14"
     height="14"
     x="0"
     y="0"
     id="canvas"
     style="visibility:hidden;fill:none;stroke:none" />
  <path
     d="M 2.6763393,1.0019391 C 2.0842014,1.0382344 1.5702689,1.5748244 1.5714286,2.1555616 1.5716541,2.7594565 2.1330446,3.3087624 2.75,3.3087624 c 0.6169554,0 1.1783459,-0.5493059 1.1785714,-1.1532008 C 3.9298286,1.5267254 3.3175199,0.96263559 2.6763393,1.0019391 Z M 8.9620536,3.309184 C 8.3699157,3.345479 7.8559831,3.8820694 7.8571429,4.4628065 c 2.255e-4,0.6038949 0.561616,1.1532008 1.1785714,1.1532008 0.6169554,0 1.1783457,-0.5493059 1.1785717,-1.1532008 C 10.215586,3.8339704 9.6032341,3.2698805 8.9620536,3.309184 Z M 2.3571429,3.6937248 c -1.1557779,0 -1.46601326,1.4408027 -1.54687504,2.2111097 L 0,5.6164289 V 6.3855105 L 4.6897321,8.019809 3.9285714,11 H 7.0714286 L 6.3348214,8.5966202 11,10.230918 V 9.4618367 L 10.263393,9.1974649 c 0.128906,-0.6624312 0.540178,-3.1964952 -0.8348216,-3.1964952 -1.287363,0 -1.504807,1.7262045 -1.546875,2.3793463 L 3.2165179,6.7460175 C 3.3667951,5.8760178 3.6252857,3.6937248 2.3571429,3.6937248 Z"
     id="playground"
     style="fill:#009900;fill-opacity:1;stroke-width:0.777353" />
</svg>
