<?xml version="1.0" encoding="UTF-8" standalone="no"?>
<svg
   viewBox="0 0 11 10"
   height="10"
   width="11"
   version="1.1"
   id="svg4"
   xmlns="http://www.w3.org/2000/svg"
   xmlns:svg="http://www.w3.org/2000/svg">
  <defs
     id="defs8" />
  <path
     id="swimming"
     d="M 6.8038609,0.00174706 C 6.7059549,0.00914719 6.6114238,0.03936233 6.5107417,0.09461011 L 3.3515679,1.704236 C 2.9508102,1.884514 2.7941466,2.4492699 3.0584488,2.7876381 l 0.8467888,1.2691281 -3.64770534,1.981078 0.0325687,0.6190868 c 0,0 0.48765386,-0.371452 1.00963274,-0.371452 0.4937807,0 1.4832911,0.7429044 2.0844032,0.7429044 0.5246068,0 1.5593409,-0.7429044 2.084403,-0.7429044 0.5464655,0 1.5379375,0.7429044 2.0844025,0.7429044 H 7.9112 L 4.9474392,2.5709576 7.1295486,1.4875555 C 7.596446,1.2313543 7.7473445,0.78608374 7.5529424,0.46606226 7.3736199,0.1708627 7.0975759,-0.02045417 6.8038609,0.00174706 Z M 8.5951447,2.5709576 c -0.8633918,0 -1.5633025,0.665246 -1.5633025,1.4858086 0,0.8205625 0.6999107,1.4858085 1.5633025,1.4858085 0.8633915,0 1.5633023,-0.665246 1.5633023,-1.4858085 0,-0.8205626 -0.6999108,-1.4858086 -1.5633023,-1.4858086 z M 1.2997337,7.771287 c -0.33500734,0 -0.83037862,0.2692909 -1.28705909,0.483611 L 0,9.7606264 C 0.4791847,9.5434791 0.99264404,9.2570955 1.2997337,9.2570955 1.8252503,9.2570955 2.8277075,10 3.3841369,10 3.8797057,10 4.9393985,9.2570955 5.4685399,9.2570955 5.9940564,9.2570955 7.0544897,10 7.5529424,10 8.07846,10 9.1427429,9.2570955 9.6373468,9.2570955 c 0.3095643,0 0.8422882,0.2910181 1.3264082,0.5087672 L 11,8.2625418 C 10.528724,8.0400274 9.9805526,7.7531659 9.6373491,7.771287 c -0.4984542,0 -1.527115,0.7429046 -2.0844043,0.7429046 -0.4636904,0 -1.558886,-0.7429046 -2.0844026,-0.7429046 -0.5255166,0 -1.6196823,0.7429046 -2.084403,0.7429046 -0.495569,0 -1.5279739,-0.7429046 -2.0844032,-0.7429046 z"
     style="fill:#009900;fill-opacity:1;stroke-width:0.762034" />
</svg>
