<?xml version="1.0" encoding="UTF-8" standalone="no"?>
<svg
   viewBox="0 0 12 12"
   height="12"
   width="12"
   id="svg109"
   version="1.1"
   xmlns="http://www.w3.org/2000/svg"
   xmlns:svg="http://www.w3.org/2000/svg">
  <defs
     id="defs113">
    <linearGradient
       id="linearGradient831">
      <stop
         id="stop829"
         offset="0"
         style="stop-color:#ffffff;stop-opacity:1;" />
    </linearGradient>
  </defs>
  <path
     id="path4"
     d="M 11.999636,0.00195313 C 11.42774,0.0788945 10.85617,0.17208247 10.285395,0.26143968 V 8.7190272 L 9.8501391,8.6855472 C 8.722759,8.6051558 7.5307221,9.1657357 7.0075785,10.021485 6.8149947,10.3365 6.794703,10.836194 6.9640525,11.10798 c 0.264384,0.424297 0.8923325,0.779431 1.5752939,0.893973 1.5705076,-0.04558 2.6957756,-0.600107 3.4586156,-1.742745 0.0017,-3.4018189 0.0017,-6.8298287 0.0017,-10.2572523 z M 6.0918658,0.00530134 C 3.9882895,-0.0492366 1.9211086,1.0204915 0.79512831,2.9701445 -0.84265999,5.8060016 0.12965414,9.4321897 2.9663889,11.069473 3.4401298,11.342903 4.0421709,11.18146 4.3156842,10.707867 4.4442036,10.485334 4.4786847,10.236659 4.4261724,10.004741 4.3793664,9.7761182 4.4131374,9.5363616 4.5400087,9.3166837 4.8135231,8.8430892 5.4155632,8.6816481 5.8893041,8.9550766 L 6.1052583,9.0789603 C 6.7245089,8.2624911 7.6517823,7.8353768 8.656531,7.6459248 A 1.1771562,1.1767927 0 0 1 8.5359987,6.2999429 1.1771562,1.1767927 0 0 1 8.9997143,5.8529564 V 4.7580905 A 1.1771562,1.1767927 0 0 1 8.5862205,4.6141174 1.1771562,1.1767927 0 0 1 8.1576603,3.0069748 1.1771562,1.1767927 0 0 1 8.9997143,2.4327562 V 0.86411813 C 8.9648732,0.84316553 8.9329729,0.81924643 8.8975961,0.79882796 8.0111176,0.28717655 7.0480368,0.0300913 6.0918658,0.00530134 Z M 6.2525759,0.783761 A 1.1771562,1.1767927 0 0 1 6.8987644,0.93945291 1.1771562,1.1767927 0 0 1 7.3289988,2.5499437 1.1771562,1.1767927 0 0 1 5.7202236,2.9801891 1.1771562,1.1767927 0 0 1 5.2899893,1.3730466 1.1771562,1.1767927 0 0 1 6.2525759,0.783761 Z M 3.2191725,2.0878902 A 1.1771562,1.1767927 0 0 1 3.863687,2.2435821 1.1771562,1.1767927 0 0 1 4.2939213,3.8523987 1.1771562,1.1767927 0 0 1 2.6868202,4.2843183 1.1771562,1.1767927 0 0 1 2.2549118,2.6755017 1.1771562,1.1767927 0 0 1 3.2191725,2.0878902 Z"
     style="fill:#804000;fill-opacity:1;stroke-width:0.847245" />
</svg>
