<?xml version="1.0" encoding="UTF-8" standalone="no"?>
<svg
   id="svg4"
   viewBox="0 0 8 9"
   height="9"
   width="8"
   version="1.1"
   xmlns="http://www.w3.org/2000/svg"
   xmlns:svg="http://www.w3.org/2000/svg">
  <defs
     id="defs8" />
  <rect
     style="visibility:hidden;fill:none;stroke:none"
     id="canvas"
     y="0"
     x="0"
     height="14"
     width="14" />
  <path
     id="atm"
     d="M 0,0 C 0,0.64285714 0,1.2857143 0,1.9285714 H 0.57142857 V 0.64285714 H 7.4285715 V 1.9285714 H 8 V 0 C 5.3333333,0 2.6666667,0 0,0 Z m 1.1428572,1.2857143 c 0,1.9285714 0,3.8571428 0,5.7857143 0,0.3852276 0.229004,0.6428571 0.5714285,0.6428571 h 4.5714286 c 0.3013337,0 0.5714285,-0.2884474 0.5714285,-0.6428571 0,-1.9285715 0,-3.8571429 0,-5.7857143 H 6.2857143 c 0,1.5 0,3 0,4.5 -0.5714286,0 -1.1428571,0.6428571 -1.1428571,1.2857143 H 2.8571428 c 0,-0.6428572 -0.5714285,-1.2857143 -1.1428571,-1.2857143 0,-1.5 0,-3 0,-4.5 z M 4,2.5714286 c -0.8975977,0 -1.7142857,0.6125158 -1.7142857,1.2857143 0,0.6731987 0.816688,1.2857142 1.7142857,1.2857142 0.8975977,0 1.7142857,-0.6125155 1.7142857,-1.2857142 C 5.7142857,3.1839444 4.8975977,2.5714286 4,2.5714286 Z M 1.1428572,8.0357143 C 1.1428572,8.7137151 1.3855583,9 1.7142857,9 H 6.2857143 C 6.587048,9 6.8571428,8.7137151 6.8571428,8.0357143 6.6828085,8.2100481 6.5733508,8.3524629 6.2857143,8.3370536 L 1.7142857,8.3772321 C 1.4403463,8.3618229 1.3171915,8.2318404 1.1428572,8.0357143 Z"
     style="stroke-width:0.606091;fill:#6e6e6e;fill-opacity:1" />
</svg>
