<?xml version="1.0" encoding="UTF-8" standalone="no"?>
<!-- Created with Inkscape (http://www.inkscape.org/) -->

<svg
   version="1.1"
   width="12"
   height="12"
   viewBox="0 0 12 12"
   id="svg4"
   xmlns="http://www.w3.org/2000/svg"
   xmlns:svg="http://www.w3.org/2000/svg">
  <defs
     id="defs8" />
  <rect
     width="14"
     height="14"
     x="0"
     y="0"
     id="canvas"
     style="visibility:hidden;fill:none;stroke:none" />
  <path
     d="m 0,3 v 6.3 c 0,0.5644071 0.3631963,0.9 0.8571429,0.9 H 11.142857 C 11.636804,10.2 12,9.8186439 12,9.3 V 3 Z M 2.5714286,3.9 H 9.428571 c 0,0.9 0.857143,1.8 1.714286,1.8 V 7.5 C 10.285714,7.5 9.428571,8.4 9.428571,9.3 H 2.5714286 c 0,-0.9 -0.8571429,-1.8 -1.7142857,-1.8 V 5.7 C 1.7142857,5.7 2.5714286,4.8 2.5714286,3.9 Z M 6,4.8 C 4.5798394,4.8 3.4285714,5.6058874 3.4285714,6.6 3.4285714,7.594113 4.5798394,8.4 6,8.4 7.420161,8.4 8.571429,7.594113 8.571429,6.6 8.571429,5.6058874 7.420161,4.8 6,4.8 Z M 0,10.65 C 0,11.663919 0.3845966,12 0.8571429,12 H 11.142857 C 11.615403,12 12,11.5992 12,10.65 11.753026,10.894067 11.520581,11.1 11.142857,11.1 H 0.8571429 C 0.4794189,11.1 0.2324451,10.878813 0,10.65 Z"
     id="bank"
     style="stroke-width:0.87831" />
</svg>
