<?xml version="1.0" encoding="UTF-8" standalone="no"?>
<svg
   id="svg2"
   height="12"
   width="12"
   version="1.0"
   xmlns="http://www.w3.org/2000/svg"
   xmlns:svg="http://www.w3.org/2000/svg">
  <defs
     id="defs4">
    <marker
       id="ArrowStart"
       markerHeight="3"
       markerUnits="strokeWidth"
       markerWidth="4"
       orient="auto"
       refX="10"
       refY="5"
       viewBox="0 0 10 10">
      <path
         d="M 10,0 0,5 10,10 Z"
         id="path2111" />
    </marker>
    <marker
       id="ArrowEnd"
       markerHeight="3"
       markerUnits="strokeWidth"
       markerWidth="4"
       orient="auto"
       refX="0"
       refY="5"
       viewBox="0 0 10 10">
      <path
         d="M 0,0 10,5 0,10 Z"
         id="path2108" />
    </marker>
  </defs>
  <g
     style="fill:#000000"
     transform="matrix(0.02891259,0,0,0.02891259,1.9346195,0.82263881)"
     id="g2117">
    <g
       style="fill:#000000"
       id="g2119">
      <g
         style="fill:#000000"
         id="g2121">
        <path
           d=""
           style="fill:#000000;stroke:none"
           id="path2125" />
      </g>
      <g
         style="fill:#000000"
         id="g2127">
        <path
           d=""
           style="fill:#000000;stroke:none"
           id="path2131" />
      </g>
    </g>
  </g>
  <path
     id="path1329-9"
     d="M 5.9996135,0.39687101 C 4.9663131,0.40503929 3.5652595,0.69717244 2.9809279,0.94036583 2.3882256,1.1870426 1.9943614,1.4324162 1.8708953,2.0490953 L 1.425543,5.4689322 v 4.7108458 h 0.7668097 v 0.737481 c 0,0.900757 1.3176401,0.900757 1.3176401,0 v -0.737481 h 2.4377186 0.00668 2.533152 v 0.737481 c 0,0.900757 1.3193148,0.900757 1.3193148,0 V 10.179778 H 10.573675 V 5.4689322 L 10.128324,2.0490953 C 10.004834,1.4324162 9.611007,1.1870426 9.0182986,0.94036583 8.4339135,0.69715053 7.0329362,0.40499648 5.9996135,0.39687101 Z M 4.1177487,1.2597737 h 1.8366602 1.9270702 c 0.3704535,5.1e-6 0.3704535,0.5552003 0,0.5552003 H 5.9510606 4.1177487 c -0.3704534,0 -0.3704534,-0.5552003 0,-0.5552003 z M 3.1182169,2.3751919 h 2.8328437 2.9282759 c 0.391326,0 0.4949475,0.2004225 0.542459,0.501688 L 9.7666918,5.3568881 C 9.7989314,5.5945575 9.730457,5.8284742 9.4017039,5.8284742 H 5.9544089 2.5975228 c -0.3287387,0 -0.3972511,-0.2339167 -0.3649879,-0.4715861 L 2.577432,2.8768799 C 2.6249392,2.5756144 2.7268926,2.3751919 3.1182169,2.3751919 Z M 2.8520098,7.4388916 c 0.3495828,0 0.6328691,0.2829452 0.6328691,0.6321261 8e-7,0.3491878 -0.2832863,0.630454 -0.6328691,0.630454 -0.3495871,0 -0.6328691,-0.2812662 -0.6328691,-0.630454 0,-0.3491809 0.283282,-0.6321261 0.6328691,-0.6321261 z m 6.2952078,0 c 0.3495811,0 0.6328691,0.2829452 0.6328691,0.6321261 0,0.3491878 -0.283288,0.630454 -0.6328691,0.630454 -0.349587,0 -0.6328694,-0.2812662 -0.6328694,-0.630454 0,-0.3491809 0.2832824,-0.6321261 0.6328694,-0.6321261 z"
     style="fill:#ffffff;fill-opacity:1;stroke:none;stroke-width:0.0708482" />
  <path
     style="fill:#0092da;fill-opacity:1;stroke:none;stroke-width:0.0708835"
     d="M 1.3438114,0.00132076 C 0.48334141,0.00132076 -4.5000001e-8,0.44449236 -4.5000001e-8,1.3519089 V 10.706669 C -4.5000001e-8,11.555461 0.43531798,12 1.2949761,12 H 10.705023 C 11.564912,12 12,11.577717 12,10.706669 V 1.3519089 c 0,-0.88530521 -0.435137,-1.35058814 -1.32192,-1.35058814 -8.2e-5,0 -9.3372246,-0.00297171 -9.3342686,0 z m 4.6561888,0.39406187 c 1.0332294,0.008134 2.433348,0.30046076 3.0176818,0.54394017 0.5926551,0.2469449 0.987935,0.4924238 1.111422,1.1097725 l 0.444571,3.423623 V 10.18799 H 9.8074662 v 0.739286 c 0,0.901735 -1.3202361,0.901735 -1.3202361,0 V 10.18799 H 5.9545328 5.9477991 3.5110884 v 0.739286 c 0,0.901735 -1.3185518,0.901735 -1.3185518,0 V 10.18799 H 1.4263262 V 5.4727183 L 1.8708953,2.0490953 C 1.9943502,1.4317466 2.3896695,1.1862677 2.9823183,0.9393228 3.5665979,0.69586534 4.9667927,0.40356249 6.0000002,0.39538263 Z M 4.119001,1.2592875 c -0.3704199,0 -0.3704199,0.5557283 0,0.5557283 h 1.8321639 1.9298346 c 0.3704202,0 0.3704202,-0.5557228 0,-0.5557283 H 5.9545328 Z M 3.1187202,2.3757962 c -0.3912897,0 -0.493053,0.2002471 -0.5405557,0.5018394 L 2.2329498,5.3598885 c -0.03226,0.237927 0.036713,0.473211 0.3654224,0.473211 h 3.3561606 3.4470943 c 0.3287229,0 0.3976611,-0.235284 0.3654231,-0.473211 L 9.421836,2.8776356 C 9.3743288,2.5760433 9.2708871,2.3757962 8.8795963,2.3757962 H 5.9511649 Z M 2.8526523,7.4447115 c -0.3495561,0 -0.6331743,0.2836332 -0.6331743,0.6331935 0,0.3495664 0.2836182,0.6315099 0.6331743,0.6315099 0.3495512,0 0.6331744,-0.2819434 0.6331744,-0.6315099 0,-0.3495603 -0.2836232,-0.6331935 -0.6331744,-0.6331935 z m 6.2946957,0 c -0.3495557,0 -0.6331743,0.2836332 -0.6331743,0.6331935 0,0.3495664 0.2836186,0.6315099 0.6331743,0.6315099 0.3495497,0 0.6331748,-0.2819434 0.6331748,-0.6315099 0,-0.3495603 -0.2836251,-0.6331935 -0.6331748,-0.6331935 z"
     id="path1329-9-7" />
</svg>
