<?xml version="1.0" encoding="UTF-8" standalone="no"?>
<!-- Created with Inkscape (http://www.inkscape.org/) -->

<svg
   version="1.1"
   width="11"
   height="11"
   viewBox="0 0 11 11"
   id="svg4"
   xmlns="http://www.w3.org/2000/svg"
   xmlns:svg="http://www.w3.org/2000/svg">
  <defs
     id="defs8" />
  <rect
     width="14"
     height="14"
     x="0"
     y="0"
     id="canvas"
     style="visibility:hidden;fill:none;stroke:none" />
  <path
     d="m 0.78571429,1 v 5 c 0,1.6666667 1.57142861,2.5 3.53571431,2.5 C 6.2857143,8.5 7.8571429,7.6666667 7.8571429,6 H 9.4285712 C 10.214286,6 11,5.1666667 11,4.3333333 V 3.5 C 11,2.6666667 10.214286,1.8333333 9.4285712,1.8333333 H 7.8571429 V 1 Z M 7.8571429,2.875 h 1.3750004 c 0.5246899,0 0.7857137,0.4690299 0.7857137,1.0416667 0,0.5726367 -0.3050147,1.0416666 -0.7857137,1.0416666 H 7.8571429 Z M 0,9.3333333 C 0,10.166666 0.78571429,11 1.5714286,11 h 5.5 c 0.7857143,0 1.5714285,-0.833334 1.5714285,-1.6666667 z"
     id="cafe"
     style="fill:#b37700;fill-opacity:1;stroke-width:0.809173" />
</svg>
