<?xml version="1.0" encoding="UTF-8" standalone="no"?>
<svg
   id="svg2"
   viewBox="0 0 8 11"
   height="11"
   width="8"
   version="1.1"
   xmlns="http://www.w3.org/2000/svg"
   xmlns:svg="http://www.w3.org/2000/svg">
  <defs
     id="defs6" />
  <rect
     width="14"
     height="14"
     x="0"
     y="0"
     id="canvas"
     style="visibility:hidden;fill:none;stroke:none" />
  <path
     d="M 2.4,1.5714286 0.8,3.9285714 H 0 L 1.6,1.5714286 Z m 3.2,0 1.6,2.3571428 H 8 L 6.4,1.5714286 Z m -2,0 H 4.4 V 3.9285714 H 3.6 Z M 3.2,0 1.6,0.78571429 H 6.4 L 4.8,0 Z M 1.6,4.7142857 0.8,7.0714286 c -0.3781328,0 -0.8,0.3019464 -0.8,0.7857143 v 2.3571431 h 0.8 c 0,0 0,0.785714 0.8,0.785714 0.8,0 0.8,-0.785714 0.8,-0.785714 h 3.2 c 0,0 0,0.785714 0.8,0.785714 0.8,0 0.8,-0.785714 0.8,-0.785714 H 8 V 7.8571429 C 8,7.4480956 7.63566,7.0714286 7.2,7.0714286 L 6.4,4.7142857 Z M 2.4,5.5 H 5.6 L 6.1,7.0714286 H 1.9 Z M 1.6,8.0535714 c 0.3313712,0 0.6,0.2638319 0.6,0.5892857 C 2.2,8.968311 1.9313712,9.2321429 1.6,9.2321429 1.2686288,9.2321429 1,8.968311 1,8.6428571 1,8.3174033 1.2686288,8.0535714 1.6,8.0535714 Z m 4.8,0 c 0.3313712,0 0.6,0.2638319 0.6,0.5892857 0,0.3254539 -0.2686288,0.5892858 -0.6,0.5892858 -0.3313712,0 -0.6,-0.2638319 -0.6,-0.5892858 0,-0.3254538 0.2686288,-0.5892857 0.6,-0.5892857 z"
     style="fill:#000000;fill-opacity:1;fill-rule:evenodd;stroke:none;stroke-width:0.792825;stroke-opacity:1"
     id="path4290-2" />
</svg>
