<?xml version="1.0" encoding="UTF-8" standalone="no"?>
<!-- Created with Inkscape (http://www.inkscape.org/) -->

<svg
   width="11"
   height="11"
   version="1.1"
   viewBox="0 0 2.9104429 2.9104429"
   id="svg8"
   xmlns="http://www.w3.org/2000/svg"
   xmlns:svg="http://www.w3.org/2000/svg">
  <defs
     id="defs12" />
  <path
     d="m 1.654073,1.1332813 c -0.2320251,0 -0.4188246,0.1981509 -0.4188246,0.4442946 v 0.8885723 c 0,0.2461354 0.1867916,0.4442947 0.4188246,0.4442947 h 0.8376334 c 0.2320251,0 0.4188244,-0.198151 0.4188244,-0.4442947 V 1.5775759 c 0,-0.2461353 -0.1867914,-0.4442946 -0.4188244,-0.4442946 z M 2.4917064,1.299896 A 0.26176139,0.27767991 0 0 1 2.7534678,1.5775759 0.26176139,0.27767991 0 0 1 2.4917064,1.8552558 0.26176139,0.27767991 0 0 1 2.229945,1.5775759 0.26176139,0.27767991 0 0 1 2.4917064,1.299896 Z M 1.654073,2.1884683 A 0.26176139,0.27767991 0 0 1 1.9158344,2.4661482 0.26176139,0.27767991 0 0 1 1.654073,2.7438281 0.26176139,0.27767991 0 0 1 1.3923116,2.4661482 0.26176139,0.27767991 0 0 1 1.654073,2.1884683 Z"
     stroke-width="0"
     id="path4"
     style="fill:#804000;fill-opacity:1" />
  <path
     d="M 0.80987035,0.26550643 C 0.67585536,0.27549794 0.54863134,0.35440565 0.47610717,0.48765372 L 0.0572826,1.2582423 C -0.05873392,1.471414 0.00685364,1.7391024 0.20780016,1.8622163 l 0.72641316,0.4442946 c 0.0295506,0.017967 0.0603359,0.038771 0.0916154,0.048595 V 1.5775901 c 0,-0.3653616 0.2838201,-0.66644179 0.6282368,-0.66644179 H 1.9092967 C 1.8746937,0.85640409 1.8295228,0.80763127 1.7718704,0.77230836 L 1.0454572,0.3280138 C 0.97010266,0.28183625 0.89027783,0.2595745 0.80987041,0.26553498 Z M 0.87367625,0.4230028 C 0.99117288,0.4241908 1.0935205,0.5082832 1.1239848,0.6286599 1.1614598,0.77674409 1.0786998,0.92902639 0.93911657,0.9688077 0.79952161,1.0085613 0.65596916,0.9207687 0.6184684,0.7726971 0.5809937,0.62461292 0.6637535,0.47233061 0.80333659,0.4325493 c 0.0229326,-0.006553 0.0466005,-0.009764 0.07035,-0.009546 z M 0.4294924,1.2391241 c 0.11760741,0.00124 0.21998657,0.085541 0.25030853,0.2060938 0.037185,0.1480757 -0.0457338,0.300123 -0.18527976,0.339728 C 0.35506072,1.8244232 0.21179321,1.7366885 0.1742687,1.5888352 0.1367941,1.4407511 0.2195538,1.2884687 0.35913689,1.2486874 c 0.0229326,-0.00654 0.0466005,-0.00976 0.07035,-0.00954 z"
     stroke-width="0"
     id="path6"
     style="fill:#804000;fill-opacity:1" />
</svg>
