<?xml version="1.0" encoding="UTF-8" standalone="no"?>
<svg
   id="svg2"
   viewBox="0 0 10 10"
   height="10"
   width="10"
   version="1.1"
   xmlns="http://www.w3.org/2000/svg"
   xmlns:svg="http://www.w3.org/2000/svg">
  <defs
     id="defs6" />
  <rect
     style="visibility:hidden;fill:none;stroke:none"
     id="canvas"
     y="0"
     x="0"
     height="14"
     width="14" />
  <path
     style="fill:#000000;fill-opacity:1;stroke:none;stroke-width:0.754849"
     id="charging-station"
     d="M 1.4814722,0 C 0.61812376,0 0,0.6119396 0,1.5384615 V 10 H 5.1851527 V 3.9423077 c 0,0 0.648144,-0.096154 0.648144,0.6730769 v 3.0769231 c 0,1.5384613 1.3812491,1.6346153 1.5740642,1.6346153 0.2041854,0 1.5740642,-0.09614 1.5740642,-1.6346153 V 4.6153846 c 0,0 1.0278139,0.013367 1.0185121,-2.2836538 H 9.4443852 V 0.7932692 c 0,-0.4362756 -0.5555521,-0.4336477 -0.5555521,-0.024038 V 2.3076923 H 8.148097 V 0.7692308 c 0,-0.4201418 -0.5555521,-0.4193748 -0.5555521,0 v 1.5384615 h -0.555552 c 0.00928,2.2972234 1.0185121,2.3076923 1.0185121,2.3076923 v 3.0769231 c 0,0.67243 -0.5682453,0.6730769 -0.6481441,0.6730769 -0.079899,0 -0.648144,-0.032915 -0.648144,-0.6730769 V 4.6153846 c 0,-0.9853141 -0.8333281,-1.6346154 -1.5740642,-1.6346154 V 1.5384615 C 5.1851527,0.5981109 4.580345,0 3.7036804,0 Z m 0.717588,1.5384615 H 4.2360846 L 2.9629443,3.5897436 H 4.4907126 L 1.6898042,7.6923077 H 1.1805481 L 2.1990602,4.6153846 H 0.92592011 Z" />
</svg>
