<?xml version="1.0" encoding="UTF-8" standalone="no"?>
<svg
   id="svg2"
   viewBox="0 0 11 11"
   height="11"
   width="11"
   version="1.1"
   xmlns="http://www.w3.org/2000/svg"
   xmlns:svg="http://www.w3.org/2000/svg">
  <defs
     id="defs8" />
  <rect
     width="14"
     height="14"
     x="0"
     y="0"
     id="canvas"
     style="visibility:hidden;fill:none;stroke:none" />
  <path
     id="path4"
     d="M 0.78571429,1 C 0.35042857,1 0,1.3430769 0,1.7692308 V 10.230769 C 0,10.656923 0.35042857,11 0.78571429,11 H 10.214286 C 10.649571,11 11,10.656923 11,10.230769 V 1.7692308 C 11,1.3430769 10.649571,1 10.214286,1 Z M 0.98214286,1.7692308 H 1.375 c 0.1088214,0 0.1964286,0.085769 0.1964286,0.1923077 v 0.3846153 c 0,0.1065385 -0.087607,0.1923077 -0.1964286,0.1923077 H 0.98214286 c -0.10882143,0 -0.19642857,-0.085769 -0.19642857,-0.1923077 V 1.9615385 c 0,-0.1065385 0.0876071,-0.1923077 0.19642857,-0.1923077 z m 2.16071424,0 H 7.8571429 V 5.6153846 H 3.1428571 Z m 6.4821429,0 h 0.392857 c 0.108822,0 0.196429,0.085769 0.196429,0.1923077 v 0.3846153 c 0,0.1065385 -0.08761,0.1923077 -0.196429,0.1923077 H 9.625 c -0.1088214,0 -0.1964286,-0.085769 -0.1964286,-0.1923077 V 1.9615385 C 9.4285714,1.855 9.5161786,1.7692308 9.625,1.7692308 Z M 0.98214286,3.3076923 H 1.375 c 0.1088214,0 0.1964286,0.085769 0.1964286,0.1923077 v 0.3846154 c 0,0.1065384 -0.087607,0.1923077 -0.1964286,0.1923077 H 0.98214286 c -0.10882143,0 -0.19642857,-0.085769 -0.19642857,-0.1923077 V 3.5 c 0,-0.1065385 0.0876071,-0.1923077 0.19642857,-0.1923077 z m 8.64285714,0 h 0.392857 c 0.108822,0 0.196429,0.085769 0.196429,0.1923077 v 0.3846154 c 0,0.1065384 -0.08761,0.1923077 -0.196429,0.1923077 H 9.625 c -0.1088214,0 -0.1964286,-0.085769 -0.1964286,-0.1923077 V 3.5 c 0,-0.1065385 0.087607,-0.1923077 0.1964286,-0.1923077 z M 0.98214286,4.8461538 H 1.375 c 0.1088214,0 0.1964286,0.085769 0.1964286,0.1923077 v 0.3846154 c 0,0.1065385 -0.087607,0.1923077 -0.1964286,0.1923077 H 0.98214286 c -0.10882143,0 -0.19642857,-0.085769 -0.19642857,-0.1923077 V 5.0384615 c 0,-0.1065384 0.0876071,-0.1923077 0.19642857,-0.1923077 z m 8.64285714,0 h 0.392857 c 0.108822,0 0.196429,0.085769 0.196429,0.1923077 v 0.3846154 c 0,0.1065385 -0.08761,0.1923077 -0.196429,0.1923077 H 9.625 c -0.1088214,0 -0.1964286,-0.085769 -0.1964286,-0.1923077 V 5.0384615 c 0,-0.1065384 0.087607,-0.1923077 0.1964286,-0.1923077 z M 0.98214286,6.3846154 H 1.375 c 0.1088214,0 0.1964286,0.085769 0.1964286,0.1923077 v 0.3846154 c 0,0.1065384 -0.087607,0.1923077 -0.1964286,0.1923077 H 0.98214286 c -0.10882143,0 -0.19642857,-0.085769 -0.19642857,-0.1923077 V 6.5769231 c 0,-0.1065385 0.0876071,-0.1923077 0.19642857,-0.1923077 z m 2.16071424,0 H 7.8571429 V 10.230769 H 3.1428571 Z m 6.4821429,0 h 0.392857 c 0.108822,0 0.196429,0.085769 0.196429,0.1923077 v 0.3846154 c 0,0.1065384 -0.08761,0.1923077 -0.196429,0.1923077 H 9.625 c -0.1088214,0 -0.1964286,-0.085769 -0.1964286,-0.1923077 V 6.5769231 c 0,-0.1065385 0.087607,-0.1923077 0.1964286,-0.1923077 z M 0.98214286,7.9230769 H 1.375 c 0.1088214,0 0.1964286,0.085769 0.1964286,0.1923077 V 8.5 c 0,0.1065385 -0.087607,0.1923077 -0.1964286,0.1923077 H 0.98214286 C 0.87332143,8.6923077 0.78571429,8.6065385 0.78571429,8.5 V 8.1153846 c 0,-0.1065384 0.0876071,-0.1923077 0.19642857,-0.1923077 z m 8.64285714,0 h 0.392857 c 0.108822,0 0.196429,0.085769 0.196429,0.1923077 V 8.5 c 0,0.1065385 -0.08761,0.1923077 -0.196429,0.1923077 H 9.625 C 9.5161786,8.6923077 9.4285714,8.6065385 9.4285714,8.5 V 8.1153846 c 0,-0.1065384 0.087607,-0.1923077 0.1964286,-0.1923077 z M 0.98214286,9.4615385 H 1.375 c 0.1088214,0 0.1964286,0.085769 0.1964286,0.1923077 v 0.3846158 c 0,0.106538 -0.087607,0.192307 -0.1964286,0.192307 H 0.98214286 c -0.10882143,0 -0.19642857,-0.08577 -0.19642857,-0.192307 V 9.6538462 c 0,-0.1065385 0.0876071,-0.1923077 0.19642857,-0.1923077 z m 8.64285714,0 h 0.392857 c 0.108822,0 0.196429,0.085769 0.196429,0.1923077 v 0.3846158 c 0,0.106538 -0.08761,0.192307 -0.196429,0.192307 H 9.625 c -0.1088214,0 -0.1964286,-0.08577 -0.1964286,-0.192307 V 9.6538462 c 0,-0.1065385 0.087607,-0.1923077 0.1964286,-0.1923077 z"
     style="fill:#804000;fill-opacity:1;stroke-width:0.777429" />
</svg>
