<?xml version="1.0" encoding="UTF-8" standalone="no"?>
<svg
   id="svg2"
   viewBox="0 0 11 11"
   height="11"
   width="11"
   version="1.1"
   xmlns="http://www.w3.org/2000/svg"
   xmlns:svg="http://www.w3.org/2000/svg">
  <defs
     id="defs6" />
  <rect
     style="visibility:hidden;fill:none;stroke:none"
     id="canvas"
     y="0"
     x="0"
     height="14"
     width="14" />
  <path
     d="m 9.0148976,2.25 c 0,0.6903558 -0.5183444,1.25 -1.1577547,1.25 C 7.2177326,3.5 6.699388,2.9403558 6.699388,2.25 6.699388,1.5596441 7.2177326,1 7.8571429,1 8.4965532,1 9.0148976,1.5596441 9.0148976,2.25 Z M 2.3571429,5.1666667 h 1.5714285 v 2.5 H 2.3571429 Z M 4.300612,2.25 c 0,0.6903558 -0.5183446,1.25 -1.1577549,1.25 C 2.5034469,3.5 1.9851023,2.9403558 1.9851023,2.25 1.9851023,1.5596441 2.5034469,1 3.1428571,1 3.7822674,1 4.300612,1.5596441 4.300612,2.25 Z M 0,4.3333333 H 5.5 V 5.1666667 H 0 Z M 0.78571429,11 2.3571429,7.6666667 H 3.1428571 L 1.5714286,11 Z M 5.5,11 3.9285714,7.6666667 H 3.1428571 L 4.7142857,11 Z M 7.0714286,5.1666667 h 1.5714285 v 2.5 H 7.0714286 Z M 5.5,4.3333333 H 11 V 5.1666667 H 5.5 Z M 5.5,11 7.0714286,7.6666667 H 7.8571429 L 6.2857143,11 Z M 10.214286,11 8.6428571,7.6666667 H 7.8571429 L 9.4285714,11 Z"
     style="fill:#665200;fill-opacity:1;fill-rule:evenodd;stroke:none;stroke-width:0.809173;stroke-opacity:1"
     id="path4139-0" />
</svg>
