<?xml version="1.0" encoding="UTF-8" standalone="no"?>
<!-- Created with Inkscape (http://www.inkscape.org/) -->

<svg
   version="1.1"
   width="11"
   height="11"
   viewBox="0 0 11 11"
   id="svg2"
   xmlns="http://www.w3.org/2000/svg"
   xmlns:svg="http://www.w3.org/2000/svg">
  <defs
     id="defs6" />
  <rect
     width="14"
     height="14"
     x="0"
     y="0"
     id="canvas"
     style="visibility:hidden;fill:none;stroke:none" />
  <path
     d="M 5.5,0 C 4.7142857,0 4.7142857,0.78571429 4.7142857,0.78571429 L 1.7678571,1.5714286 V 2.3571429 L 0,6.2857143 c 0,0.7857143 0.622292,1.5714286 1.9642857,1.5714286 1.3419937,0 1.9642857,-0.7857143 1.9642857,-1.5714286 L 2.1607143,2.3571429 H 4.7142857 V 10.214286 H 1.5714286 L 0.78571429,11 H 10.214286 L 9.4285714,10.214286 H 6.2857143 V 2.3571429 H 8.8392857 L 7.0714286,6.2857143 c 0,0.7857143 0.60731,1.5714286 1.9642857,1.5714286 C 10.39269,7.8571429 11,7.0714286 11,6.2857143 L 9.2321429,2.3571429 V 1.5714286 L 6.2857143,0.78571429 C 6.2857143,0.78571429 6.2857143,0 5.5,0 Z m -3.5357143,3.1428571 1.375,3.1428572 H 0.58928571 Z m 7.0714286,0 1.3749997,3.1428572 H 7.6607143 Z"
     id="courthouse"
     style="stroke-width:0.785714" />
</svg>
