<?xml version="1.0" encoding="UTF-8" standalone="no"?>
<!-- Created with Inkscape (http://www.inkscape.org/) -->

<svg
   version="1.1"
   width="8.5"
   height="11"
   viewBox="0 0 8.5 11"
   id="svg4"
   xmlns="http://www.w3.org/2000/svg"
   xmlns:svg="http://www.w3.org/2000/svg">
  <defs
     id="defs8" />
  <rect
     width="14"
     height="14"
     x="0"
     y="0"
     id="canvas"
     style="visibility:hidden;fill:none;stroke:none" />
  <path
     d="m 4.25,6.2857143 c 1.7,0 1.7,0.7857143 1.7,2.3571428 C 5.95,9.4285714 5.0922471,11 5.95,11 6.8,11 7.4386552,10.101958 7.65,8.6428571 7.8613449,7.1837566 7.65,6.2857143 7.65,5.5 7.65,3.9285714 8.5,2.3571429 8.5,1.5714286 8.5,0.78571429 8.159797,0.17083 7.65,0 5.95,0 5.95,0.78571429 4.25,0.78571429 2.55,0.78571429 2.55,0 0.85,0 0.3406791,0.17083 0,0.78571429 0,1.5714286 0,2.3571429 0.85,3.9285714 0.85,5.5 c 0,0.7857143 -0.1040315,2.02191 0,3.1428571 C 0.9540315,9.7638043 1.7,11 2.55,11 c 0.8573967,0 0,-1.5714286 0,-2.3571429 0,-1.5714285 0,-2.3571428 1.7,-2.3571428 z"
     id="dentist"
     style="fill:#990000;fill-opacity:1;stroke-width:0.817225" />
</svg>
