<?xml version="1.0" encoding="UTF-8" standalone="no"?>
<!-- Created with Inkscape (http://www.inkscape.org/) -->

<svg
   version="1.1"
   width="12"
   height="11"
   viewBox="0 0 12 11"
   id="svg4"
   xmlns="http://www.w3.org/2000/svg"
   xmlns:svg="http://www.w3.org/2000/svg">
  <defs
     id="defs8" />
  <rect
     width="14"
     height="14"
     x="0"
     y="0"
     id="canvas"
     style="visibility:hidden;fill:none;stroke:none" />
  <path
     d="M 6,0 C 5.0051057,0 4.0010006,0.4626464 3.3214286,1.375 2.7321549,2.1661245 2.5714286,2.75 2.4910714,3.666667 0.00864857,3.6884837 0,4.6582345 0,11 H 12 C 12,4.6582345 11.991343,3.6884379 9.5089286,3.666667 9.4285714,2.75 9.2533174,2.1505878 8.6785714,1.375 8.0011329,0.4608339 6.9948943,0 6,0 Z M 6,1.8333333 C 7.0983531,1.8288508 7.7142857,2.75 7.7678571,3.666667 H 4.2321429 C 4.2857143,2.75 4.9016469,1.8378192 6,1.8333333 Z M 5.1428571,4.5833337 h 1.7142858 v 1.833333 H 8.5714286 V 8.25 H 6.8571429 v 1.833333 H 5.1428571 V 8.25 H 3.4285714 V 6.4166667 h 1.7142857 z"
     id="doctor"
     style="fill:#990000;fill-opacity:1;stroke-width:0.886405" />
</svg>
