<?xml version="1.0" encoding="UTF-8" standalone="no"?>
<svg
   version="1.1"
   width="9"
   height="9"
   viewBox="0 0 9 9"
   id="svg2"
   xmlns="http://www.w3.org/2000/svg"
   xmlns:svg="http://www.w3.org/2000/svg">
  <defs
     id="defs6" />
  <rect
     width="14"
     height="14"
     x="0"
     y="0"
     id="canvas"
     style="visibility:hidden;fill:none;stroke:none" />
  <path
     d="M 1.2857143,0 C 0.64285714,0 0,0.75000001 0,1.4999999 V 2.25 H 2.5714286 L 3.2142857,1.4999999 H 5.7857143 L 6.4285714,2.25 H 9 V 1.4999999 C 9,0.75000001 8.3571427,0 7.7142856,0 Z M 0,2.8125 v 0.3749999 c 0,0 0.23809855,0.5625 0.64285714,0.5625 H 1.9285714 c 0.3640851,-0.01416 0.6428572,-0.5625 0.6428572,-0.5625 V 2.8125 Z m 6.4285714,0 v 0.3749999 c 0,0 0.2788168,0.5625 0.6428572,0.5625 H 8.3571427 C 8.7214328,3.7499999 9,3.1874999 9,3.1874999 V 2.8125 Z M 0.96428574,5.2500001 C 0.45490315,5.2500001 0,5.6801497 0,6.3750001 c 0,0.7341756 0.46443704,1.125 0.96428574,1.125 H 1.6071428 c 0,0 0.3214286,0 0.3214286,0.3749999 0,0.3749999 -0.3214286,0.3749999 -0.3214286,0.3749999 H 0.32142857 V 9 H 1.6071428 C 2.1069916,9 2.5714286,8.5476893 2.5714286,7.8515626 2.5714286,7.1947612 2.0974577,6.75 1.6071428,6.75 H 0.96428574 c 0,0 -0.3214286,0 -0.3214286,-0.3749999 0,-0.3750002 0.3214286,-0.3750002 0.3214286,-0.3750002 H 2.25 V 5.2500001 Z m 3.21428566,0 c -0.9642857,0 -0.9642857,1.125 -0.9642857,1.125 V 7.875 c 0,0 0,1.125 0.9642857,1.125 H 4.8214286 C 5.7857143,9 5.7857143,7.875 5.7857143,7.875 V 6.3750001 c 0,0 0,-1.125 -0.9642857,-1.125 z m 3.2142858,0 c -0.5093827,0 -0.9642858,0.4301496 -0.9642858,1.125 0,0.7341756 0.4644373,1.125 0.9642858,1.125 h 0.6428572 c 0,0 0.3214283,0 0.3214283,0.3749999 0,0.3749999 -0.3214283,0.3749999 -0.3214283,0.3749999 H 6.75 V 9 H 8.0357144 C 8.5355626,9 9,8.5476893 9,7.8515626 9,7.1947612 8.5260293,6.75 8.0357144,6.75 H 7.3928572 c 0,0 -0.3214286,0 -0.3214286,-0.3749999 0,-0.3750002 0.3214286,-0.3750002 0.3214286,-0.3750002 H 8.6785718 V 5.2500001 Z M 3.8571428,6.5624999 c 0,0 0,-0.5625 0.4821429,-0.5625 h 0.3214286 c 0.4821428,0 0.4821428,0.5625 0.4821428,0.5625 v 1.125 c 0,0 0,0.5625 -0.4821428,0.5625 H 4.3392857 c -0.4821429,0 -0.4821429,-0.5625 -0.4821429,-0.5625 z"
     id="emergency-phone"
     style="color:#000000;display:inline;overflow:visible;visibility:visible;fill:#4d4d4d;fill-opacity:1;stroke-width:0.694364;marker:none" />
</svg>
