<?xml version="1.0" encoding="UTF-8" standalone="no"?>
<!-- Created with Inkscape (http://www.inkscape.org/) -->

<svg
   version="1.1"
   width="9"
   height="12"
   viewBox="0 0 9 12"
   id="svg4"
   xmlns="http://www.w3.org/2000/svg"
   xmlns:svg="http://www.w3.org/2000/svg">
  <defs
     id="defs8" />
  <rect
     width="14"
     height="14"
     x="0"
     y="0"
     id="canvas"
     style="visibility:hidden;fill:none;stroke:none" />
  <path
     d="M 4.5,0 C 1.2817449,1.0640814 0,4.2857143 0,6.8571429 0,9.4285714 1.5704397,11.365511 3.6,12 1.8,9.206928 1.8,6.8571429 4.5,5.1428571 4.0455702,6.3024154 4.5,8.5714286 5.4,9.4285714 5.7883095,9.0850654 6.3,8.2073769 6.3,7.7142857 8.1,9.4285714 6.8066082,10.828509 6.3,12 7.279362,11.52077 9,10.285714 9,7.7142857 9,5.1428571 7.2,4.2857143 7.2,1.7142857 5.9548356,2.2279227 5.4,3.4285714 5.4,4.2857143 4.5431451,3.8086632 3.6,1.9255077 4.5,0 Z"
     id="fire-station"
     style="stroke-width:0.87831" />
</svg>
