<?xml version="1.0" encoding="UTF-8" standalone="no"?>
<svg
   id="svg2"
   viewBox="0 0 11 11"
   height="11"
   width="11"
   version="1.1"
   xmlns="http://www.w3.org/2000/svg">
  <defs
     id="defs6" />
  <rect
     style="visibility:hidden;fill:none;stroke:none"
     id="canvas"
     y="0"
     x="0"
     height="14"
     width="14" />
  <path
     d="M 0,8.6402894 H 11 C 10.214286,10.21343 7.0714286,11 5.5,11 3.9285714,11 1.0225935,10.21343 0,8.6402894 Z M 7.0714286,0.03594771 c -0.7857143,0 -1.3161924,0.81417593 -1.5806362,1.42659119 C 5.2255615,0.82021887 4.7142857,0 3.9285714,0 2.7497124,0 2.3571429,1.5132275 2.3571429,2.2997977 c 0,0.7865702 0.7857142,0.5306567 0.7857142,0.023965 C 3.9285714,0.75062251 4.7142857,1.0542358 4.9045759,3.5411122 V 3.8161046 C 4.6036494,3.6672779 4.2665819,3.5733738 3.9285714,3.5733738 c -1.1526876,0 -2.1607143,0.812116 -2.1607143,2.3597106 v 0.7865702 c 0,0.7865701 1.1785715,0.7865701 1.1785715,0 V 5.9330844 c 0,-0.759795 0.5366554,-1.1798553 0.9821428,-1.1798553 0.4317283,0 0.9444589,0.4217421 0.9760045,1.115332 V 5.900823 7.8537193 C 5.5,7.3989405 5.5,7.3863453 6.0711638,7.8537193 l 0.018122,-1.9206389 v -0.098321 c 0.032252,-0.6926556 0.5446009,-1.1137957 0.9760045,-1.1137957 0.4454874,0 0.9821432,0.4200603 0.9821432,1.1798553 v 0.78657 c 0,0.7865702 1.1785715,0.7865702 1.1785715,0 V 5.9008188 c 0,-1.5475946 -1.0080267,-2.3597106 -2.1607147,-2.3597106 -0.338188,4e-6 -0.6749581,0.095309 -0.9760045,0.2442708 0,-0.070668 -0.013126,-0.1425691 0,-0.2120052 0.1964286,-2.1585123 0.9821429,-2.79878622 1.7678572,-1.2256459 0,0.4151106 0.7857142,0.7266574 0.7857142,-0.059913 0,-0.7865702 -0.3925695,-2.25186742 -1.5714286,-2.25186719 z"
     style="fill:#0073e6;fill-opacity:1;fill-rule:evenodd;stroke:none;stroke-width:0.786142px;stroke-linecap:butt;stroke-linejoin:miter;stroke-opacity:1"
     id="path4182" />
</svg>
