<?xml version="1.0" encoding="UTF-8" standalone="no"?>
<!-- Created with Inkscape (http://www.inkscape.org/) -->

<svg
   version="1.1"
   width="9"
   height="11"
   viewBox="0 0 9 11"
   id="svg4"
   xmlns="http://www.w3.org/2000/svg"
   xmlns:svg="http://www.w3.org/2000/svg">
  <defs
     id="defs7" />
  <rect
     width="14"
     height="14"
     x="0"
     y="0"
     id="canvas"
     style="visibility:hidden;fill:none;stroke:none" />
  <path
     d="m 7.3359375,0 -0.46875,0.56473214 0.890625,0.85937496 c 0.027158,0.028452 0.0642,0.066545 0.09375,0.098214 l -0.1875,0.2209825 C 7.363899,2.0577607 7.5792672,2.4647332 7.6875003,2.578125 l 0.5625,0.5892857 v 4.6897322 c 0,0.7857142 -0.294102,0.7857142 -0.375,0.7857142 -0.080898,0 -0.3750001,0 -0.3750001,-0.7857142 V 4.7142857 C 7.5,3.7078577 6.75,3.1428571 6,3.1428571 V 1.5714286 C 6,1.1382615 5.6814548,0.78571429 5.25,0.78571429 H 0.75 C 0.30056775,0.78571429 0,1.1194281 0,1.5714286 V 11 H 6 V 3.9285714 c 0,0 0.75,0 0.75,0.7857143 v 3.1428572 c 0,1.5714283 0.9297735,1.5714283 1.125,1.5714283 0.206739,0 1.125,0 1.125,-1.5714283 v -5.5 C 9,1.5714286 8.7854873,1.4070445 8.53125,1.1540179 Z M 0.75,2.3571429 h 4.5 v 2.3571428 h -4.5 z"
     id="fuel"
     style="stroke-width:0.767649" />
</svg>
