<?xml version="1.0" encoding="UTF-8" standalone="no"?>
<!-- Created with Inkscape (http://www.inkscape.org/) -->

<svg
   version="1.1"
   width="7"
   height="10"
   viewBox="0 0 7 10"
   id="svg2"
   xmlns="http://www.w3.org/2000/svg"
   xmlns:svg="http://www.w3.org/2000/svg">
  <defs
     id="defs6" />
  <rect
     width="14"
     height="14"
     x="0"
     y="0"
     id="canvas"
     style="visibility:hidden;fill:none;stroke:none" />
  <path
     d="M 2.1,0 C 0.94020202,0 0,0.95938973 0,2.1428572 0,2.3968095 0.05178502,2.6310916 0.13125,2.8571428 h 3.9375 C 4.148215,2.6310916 4.2,2.3968095 4.2,2.1428572 4.2,0.95938973 3.259798,0 2.1,0 Z M 4.9,0 C 4.6172992,0 4.3586706,0.07521785 4.1125,0.17857143 4.5940808,0.69172349 4.9,1.3762567 4.9,2.1428572 4.9,2.3905545 4.8517574,2.6278642 4.790625,2.8571428 H 6.86875 C 6.9482147,2.6310916 7,2.3968095 7,2.1428572 7,0.95938973 6.0597978,0 4.9,0 Z M 0.875,3.5714285 3.5,10 6.125,3.5714285 Z"
     id="ice-cream"
     style="fill:#b37000;fill-opacity:1;stroke:none;stroke-width:0.707107" />
</svg>
