<?xml version="1.0" encoding="UTF-8" standalone="no"?>
<!-- Generator: Adobe Illustrator 18.0.0, SVG Export Plug-In . SVG Version: 6.00 Build 0)  -->

<svg
   version="1.1"
   id="Capa_1"
   x="0px"
   y="0px"
   viewBox="0 0 10 10"
   xml:space="preserve"
   width="10"
   height="10"
   xmlns="http://www.w3.org/2000/svg"
   xmlns:svg="http://www.w3.org/2000/svg"><defs
   id="defs45" />
<g
   id="g10"
   transform="matrix(0.04840793,0,0,0.05349859,-2.3721016e-4,-0.73613332)">
	<path
   d="m 203.05351,128.13943 c 3.64214,-2.50613 4.62,-7.57573 2.18429,-11.3217 L 177.46922,74.100232 c -3.67857,-5.655343 -9.30142,-8.603911 -15.205,-8.603911 h -11.89857 c -6.84857,0 -12.30643,4.264106 -15.78643,9.794509 -0.34785,0.553411 1.73,-2.703834 -27.13071,41.51367 -2.44286,3.7423 -1.47357,8.81263 2.16286,11.32611 3.635,2.51202 8.56428,1.51765 11.00785,-2.22538 l 11.89715,-18.22792 0.0243,82.80024 c 0,5.63476 4.43929,10.2024 9.91572,10.2024 5.47643,0 9.91571,-4.56764 9.91571,-10.2024 v -45.91227 h 7.93357 v 45.91227 c 0,5.63476 4.43929,10.2024 9.91572,10.2024 5.47643,0 9.91571,-4.56764 9.91571,-10.2024 0,-87.99845 -0.0236,-82.28578 -0.0236,-82.94869 l 11.93714,18.36314 c 2.43857,3.75258 7.36929,4.74989 11.00286,2.24743 z"
   id="path2"
   style="fill:#665200;fill-opacity:1;stroke-width:0.724536" />
	<path
   d="m 156.33851,62.993409 c 10.49714,0 19.01071,-8.751633 19.01071,-19.559621 0,-7.042169 -3.62571,-13.216376 -9.06142,-16.659558 1.12357,-0.81725 2.43214,-1.572031 3.97857,-2.217306 0.64928,-0.270456 1.08643,-0.904708 1.11928,-1.624946 0.0336,-0.720973 -0.34357,-1.394176 -0.96571,-1.727102 -3.00643,-1.606573 -6.67,-1.639645 -10.12714,-0.957624 0.58642,-1.130333 1.325,-2.284919 2.27357,-3.455675 0.44857,-0.554142 0.54357,-1.325826 0.24285,-1.976246 -0.30071,-0.651155 -0.94142,-1.062719 -1.64285,-1.05537 -6.94857,0.08158 -13.32072,7.328795 -15.85929,11.66272 -0.59,1.006863 -1.03286,2.073258 -1.31214,3.148471 -4.07857,3.587229 -6.66786,8.914054 -6.66786,14.862636 7.2e-4,10.807988 8.51429,19.559621 19.01143,19.559621 z"
   id="path4"
   style="fill:#665200;fill-opacity:1;stroke-width:0.724536" />
	<path
   d="M 71.701358,74.82488 C 68.277076,69.481886 62.828504,65.496321 56.164218,65.496321 H 44.264932 c -6.779286,0 -12.67643,3.889288 -15.697859,9.617389 -0.367142,0.543852 -26.8607156,41.14105 -27.219287,41.69152 -2.4428573,3.7423 -1.47357152,8.81263 2.1628573,11.32612 3.6349999,2.51201 8.5642867,1.51764 11.0078577,-2.22539 l 11.897144,-18.22791 v 0.22562 l -10.798572,45.30006 c -0.504286,2.11295 -0.03643,4.34716 1.268571,6.05883 1.305714,1.7124 3.302857,2.71192 5.417858,2.71192 h 4.136429 v 28.50381 c 0,5.63476 4.439285,10.20239 9.915715,10.20239 5.476428,0 9.915714,-4.56763 9.915714,-10.20239 v -28.50381 h 7.932858 v 28.50381 c 0,5.63476 4.439286,10.20239 9.915715,10.20239 5.476429,0 9.915718,-4.56763 9.915718,-10.20239 v -28.50381 h 4.09 c 2.115,0 4.112143,-0.99952 5.417858,-2.71192 1.305,-1.71167 1.772857,-3.94588 1.268571,-6.05883 l -10.799286,-45.303 h -7.14e-4 v -0.29618 l 11.945714,18.30141 c 2.443572,3.74377 7.373572,4.73667 11.007858,2.22539 3.637138,-2.51349 4.605718,-7.58382 2.162857,-11.32612 C 69.827791,71.911589 72.044216,75.360648 71.701358,74.82488 Z"
   id="path6"
   style="fill:#665200;fill-opacity:1;stroke-width:0.724536" />
	<path
   d="m 12.309215,68.980207 c 0.698572,0.05953 1.365715,-0.304263 1.711429,-0.9319 5.222143,-9.483631 13.414287,-8.679609 15.249287,-12.181585 0.252857,-0.483589 0.452143,-0.981876 0.599285,-1.488248 0.559286,0.620287 1.346429,0.984816 2.174286,0.984816 0.327143,0 0.660714,-0.05586 0.986429,-0.17418 0.55,-0.199168 1.000714,-0.551938 1.337857,-0.989961 3.402143,5.298898 9.239286,8.794995 15.872144,8.794995 6.632143,0 12.470001,-3.496097 15.87143,-8.794995 0.337143,0.438023 0.787857,0.790793 1.338571,0.989961 0.326429,0.118325 0.659286,0.17418 0.986429,0.17418 0.827857,0 1.615,-0.364529 2.174286,-0.984816 0.147143,0.506372 0.345714,1.004659 0.599285,1.488248 1.83429,3.501976 10.026433,2.697954 15.248576,12.181585 0.345,0.627637 1.012857,0.99143 1.711428,0.9319 0.699286,-0.05953 1.299286,-0.532094 1.539286,-1.209706 2.377857,-6.717327 -1.962143,-15.410165 -5.008572,-19.384706 -2.62,-3.419663 -6.653571,-5.26656 -10.38,-3.200651 -0.132857,0.07349 -0.255,0.158011 -0.381428,0.237384 l 0.03071,-0.08966 c 0.545,-1.594814 -0.27,-3.34176 -1.820007,-3.902517 -1.056425,-0.382902 -2.171425,-0.105096 -2.952854,0.607793 -0.697143,-10.142134 -8.916429,-18.15736 -18.95643,-18.15736 -10.041429,0 -18.260715,8.015961 -18.957144,18.158095 -0.782857,-0.712889 -1.898571,-0.990695 -2.952857,-0.608528 -1.55,0.560757 -2.365,2.307703 -1.82,3.902517 l 0.03071,0.08966 c -0.126428,-0.08011 -0.249286,-0.164625 -0.380714,-0.237384 -3.726429,-2.065909 -7.760001,-0.219747 -10.380715,3.200651 -3.046429,3.974541 -7.386429,12.667379 -5.008572,19.384706 0.238572,0.677612 0.839286,1.150176 1.537857,1.209706 z"
   id="path8"
   style="fill:#665200;fill-opacity:1;stroke-width:0.724536" />
</g>
<g
   id="g12">
</g>
<g
   id="g14">
</g>
<g
   id="g16">
</g>
<g
   id="g18">
</g>
<g
   id="g20">
</g>
<g
   id="g22">
</g>
<g
   id="g24">
</g>
<g
   id="g26">
</g>
<g
   id="g28">
</g>
<g
   id="g30">
</g>
<g
   id="g32">
</g>
<g
   id="g34">
</g>
<g
   id="g36">
</g>
<g
   id="g38">
</g>
<g
   id="g40">
</g>
</svg>
