<?xml version="1.0" encoding="UTF-8" standalone="no"?>
<svg
   version="1.1"
   width="11"
   height="10"
   viewBox="0 0 11 10"
   id="svg2"
   xmlns="http://www.w3.org/2000/svg"
   xmlns:svg="http://www.w3.org/2000/svg">
  <defs
     id="defs6" />
  <rect
     style="visibility:hidden;fill:none;stroke:none"
     id="canvas"
     y="0"
     x="0"
     height="14"
     width="14" />
  <path
     d="M 2.0364119,0.0012773 C 1.8804343,0.00787521 1.7253498,0.0406151 1.5714286,0.10276265 V 6.7009206 c 0,0 2.5044643,-0.1030961 3.1428571,2.4743094 V 2.2468419 C 4.2271507,1.1700236 3.1282547,-0.04490808 2.0364119,0.0012773 Z M 4.7142857,9.17523 C 3.09375,7.8607531 0.78571429,7.5256905 0.78571429,7.5256905 V 1.2577625 L 0,0.92753246 V 8.3504605 L 4.7142857,10 H 6.2857143 L 11,8.3504605 V 0.92753246 L 10.214286,1.2577625 V 7.8559208 L 6.2857143,9.17523 c -0.5238098,-0.2100521 -1.1344292,-0.172676 -1.5714286,0 z M 9.4285712,0.10276265 C 7.86302,0.01488311 6.0557393,1.0014993 5.1071429,1.8505657 V 8.8321128 C 5.9830345,8.0694983 7.5535295,7.0660553 9.4285712,6.8652305 Z"
     id="path4176"
     style="fill:#806600;fill-opacity:1;stroke-width:0.805006" />
</svg>
