<?xml version="1.0" encoding="UTF-8" standalone="no"?>
<svg
   version="1.1"
   width="11"
   height="11"
   viewBox="0 0 11 11"
   id="svg6"
   xmlns="http://www.w3.org/2000/svg"
   xmlns:svg="http://www.w3.org/2000/svg">
  <defs
     id="defs10" />
  <path
     d="M 0,0 V 0.78571429 1.5714286 A 1.5714286,1.5714286 0 0 0 1.5714286,3.1428571 1.5714286,1.5714286 0 0 0 3.1428571,1.5714286 H 3.9285714 A 1.5714286,1.5714286 0 0 0 5.5,3.1428571 1.5714286,1.5714286 0 0 0 7.0714286,1.5714286 H 7.8571429 A 1.5714286,1.5714286 0 0 0 9.4285714,3.1428571 1.5714286,1.5714286 0 0 0 11,1.5714286 V 0.78571429 0 H 9.4285714 Z"
     id="path2"
     style="fill:#860073;fill-opacity:1;stroke-width:0.785714" />
  <path
     d="M 0,3.9285714 V 7.0714286 8.6428571 11 H 1.5714286 V 8.6428571 H 9.4285714 V 11 H 11 V 8.6428571 7.0714286 3.9285714 H 9.4285714 V 7.0714286 H 1.5714286 V 3.9285714 Z"
     id="path4"
     style="fill:#860073;fill-opacity:1;stroke-width:0.785714" />
</svg>
