<?xml version="1.0" encoding="UTF-8" standalone="no"?>
<!-- Created with Inkscape (http://www.inkscape.org/) -->

<svg
   version="1.1"
   width="11"
   height="11"
   viewBox="0 0 11 11"
   id="svg2"
   xmlns="http://www.w3.org/2000/svg"
   xmlns:svg="http://www.w3.org/2000/svg">
  <defs
     id="defs6" />
  <rect
     width="14"
     height="14"
     x="0"
     y="0"
     id="canvas"
     style="visibility:hidden;fill:none;stroke:none" />
  <path
     d="M 11,0 2.542887,1.5717755 V 8.3009387 C 2.2169761,8.2464531 1.8768285,8.241612 1.5386049,8.3254977 0.56199275,8.5677036 -0.16407998,9.4158006 0.0321817,10.093745 0.22844338,10.771689 1.3019909,11.170956 2.2786023,10.92875 3.2552136,10.686545 3.811454,9.8786193 3.811454,9.1605034 V 3.6838487 L 9.7314331,2.6032531 V 7.0238714 C 9.4055518,6.9757436 9.0653323,6.9891194 8.7271509,7.0729894 7.7506612,7.3151654 7.0246824,8.1387708 7.2207276,8.8166775 7.4171567,9.4944892 8.4906588,9.8938585 9.4671483,9.6516832 10.443638,9.4095072 11,8.6447646 11,7.8588769 Z"
     id="nightclub"
     style="fill:#000000;fill-opacity:1;fill-rule:nonzero;stroke:none;stroke-width:0.815251" />
</svg>
