<?xml version="1.0" encoding="UTF-8" standalone="no"?>
<svg
   width="8"
   height="8"
   viewBox="0 0 8 8"
   id="svg2"
   version="1.1"
   xmlns="http://www.w3.org/2000/svg"
   xmlns:svg="http://www.w3.org/2000/svg">
  <defs
     id="defs8" />
  <rect
     style="visibility:hidden;fill:none;stroke:none"
     id="canvas"
     y="0"
     x="0"
     height="14"
     width="14" />
  <path
     id="path4"
     d="M 0,0 V 1.7142857 H 0.671 V 0.671 H 7.329 V 1.7142857 H 8 V 0 Z M 1.614,1.1424286 V 7.9995714 L 3.4285715,8 V 7.4285715 7.4006685 h 0.00111 C 3.4445629,7.0964583 3.695423,6.8573743 4,6.8571428 4.3045772,6.8573743 4.5554404,7.096456 4.5703124,7.4006697 h 0.00112 V 7.4285715 8 H 6.386 V 1.1428572 H 5.7142857 L 5.714,7.329 H 5.1428572 C 5.1428572,6.6978177 4.6311828,6.186 4,6.186 3.3688174,6.186 2.8571428,6.6978177 2.8571428,7.329 H 2.2857143 V 1.1428572 Z M 2.8571428,2.2857143 V 5.7142857 L 3.529,5.714 V 4.2857143 h 0.752058 c 0.5147151,0 0.8687566,-0.5133272 0.861942,-1.0198582 C 5.1363635,2.7725624 4.7823221,2.2857143 4.281058,2.2857143 Z m 0.6718572,0.5 h 0.625942 c 0.5350824,0 0.5350824,1 0,1 H 3.529 Z"
     style="fill:#00a3cc;fill-opacity:1;fill-rule:evenodd;stroke-width:0.269389" />
</svg>
