<?xml version="1.0" encoding="UTF-8" standalone="no"?>
<svg
   version="1.1"
   width="8"
   height="8"
   viewBox="0 0 8 8"
   id="svg2"
   xmlns="http://www.w3.org/2000/svg"
   xmlns:svg="http://www.w3.org/2000/svg">
  <defs
     id="defs6" />
  <rect
     width="12"
     height="12"
     x="0"
     y="0"
     id="canvas"
     style="visibility:hidden;fill:none;stroke:none" />
  <path
     d="M 0.6666665,0 C 0.30508448,0 -2.5870054e-7,0.30508474 -1.9e-7,0.6666666 L -6.333334e-8,1.3333333 C 0,1.7062147 0.32574457,2 0.66666659,2 V 0.66666667 H 7.3333331 V 2 C 7.6742545,2 7.9999998,1.6761938 7.9999998,1.3333333 V 0.6666666 C 7.9999998,0.30508474 7.6723164,0 7.3333331,0 Z M 4.9999908,7.9918587 1.3333332,8 V 1.3333333 L 4.9851876,1.3252086 2.9925942,4.6629743 Z M 6.6666666,8 5.9999883,7.989638 3.9925917,4.6607539 5.9851851,1.322988 6.6666666,1.3333333 Z"
     id="path4258"
     style="fill:#4d4d4d;fill-opacity:1;stroke-width:0.666667" />
</svg>
