<?xml version="1.0" encoding="UTF-8" standalone="no"?>
<!-- Created with Inkscape (http://www.inkscape.org/) -->

<svg
   version="1.1"
   width="11"
   height="11"
   viewBox="0 0 11 11"
   id="svg4"
   xmlns="http://www.w3.org/2000/svg"
   xmlns:svg="http://www.w3.org/2000/svg">
  <defs
     id="defs8" />
  <rect
     width="14"
     height="14"
     x="0"
     y="0"
     id="canvas"
     style="visibility:hidden;fill:none;stroke:none" />
  <path
     d="M 0,0 V 11 H 11 V 0 Z M 0.78571429,0.78571429 H 3.1428571 V 10.214286 H 2.75 V 6.8995536 C 2.5150149,7.1775079 2.3571429,7.5133929 2.3571429,7.8571429 V 10.214286 H 0.78571429 Z m 3.14285711,0 H 7.0714286 V 10.214286 H 6.6785714 V 6.2857143 H 4.3214286 V 10.214286 H 3.9285714 Z m 3.9285715,0 H 10.214286 V 10.214286 H 8.6428571 V 7.8571429 c 0,-0.34375 -0.157872,-0.679635 -0.3928571,-0.9575893 V 10.214286 H 7.8571429 Z M 5.5,2.3571429 c -0.4720949,0 -0.8905168,0.2106118 -1.1785714,0.5401785 v 2.0625 C 4.6094832,5.2893882 5.0279051,5.5 5.5,5.5 5.9720941,5.5 6.3905168,5.2893882 6.6785714,4.9598214 v -2.0625 C 6.3905168,2.5677547 5.9720941,2.3571429 5.5,2.3571429 Z"
     id="prison"
     style="stroke-width:0.785714" />
</svg>
