<?xml version="1.0" encoding="UTF-8" standalone="no"?>
<svg
   version="1.1"
   width="9"
   height="9"
   viewBox="0 0 9 9"
   id="svg4"
   xmlns="http://www.w3.org/2000/svg"
   xmlns:svg="http://www.w3.org/2000/svg">
  <defs
     id="defs8" />
  <path
     d="M 0,0 V 1.9285714 L 0.743,1.929 V 0.743 H 8.257 V 1.9285714 H 9 V 0 Z M 1.829,1.2857143 V 9 H 3.8570253 V 8.3257714 h 0.00125 c 0.016733,-0.3422378 0.2989488,-0.6111964 0.6415926,-0.61146 0.3426438,2.604e-4 0.6248589,0.2692286 0.6415926,0.61146 h 0.00125 V 9 H 7.171 V 1.2857143 H 6.4283841 L 6.4285448,5.043 H 2.5714552 L 2.5712945,1.2857143 Z M 2.5713588,5.78565 6.4284484,5.7869036 V 8.2568572 H 5.7856022 c 0,-0.7101 -0.5756224,-1.2857143 -1.2857179,-1.2857143 -0.7100956,0 -1.285718,0.5756271 -1.285718,1.2857143 H 2.5713202 Z"
     id="path2"
     style="fill:#4d4d4d;stroke-width:0.642857" />
</svg>
