<?xml version="1.0" encoding="UTF-8" standalone="no"?>
<!-- Created with Inkscape (http://www.inkscape.org/) -->

<svg
   version="1.1"
   width="11"
   height="11"
   viewBox="0 0 11 11"
   id="svg4"
   xmlns="http://www.w3.org/2000/svg"
   xmlns:svg="http://www.w3.org/2000/svg">
  <defs
     id="defs8" />
  <rect
     width="14"
     height="14"
     x="0"
     y="0"
     id="canvas"
     style="visibility:hidden;fill:none;stroke:none" />
  <path
     d="M 3.9677238,6.6811148 2.6500507,4.3330381 H 0 L 1.0772311,4.9708093 0.41125964,6.1446262 c -0.0567971,0.1064467 -0.0851948,0.2176057 -0.0851923,0.333481 -2.48e-6,0.1158802 0.0283944,0.2270408 0.0851923,0.3334802 L 1.4595166,8.6811146 c 0.04728,-0.1353378 0.09456,-0.2513637 0.1418442,-0.348075 L 2.9051947,6.0433433 Z M 1.998349,8.5652368 C 1.922526,8.6908458 1.8846114,8.8260364 1.8846147,8.9708086 1.8846114,9.193129 1.9625987,9.3815425 2.1185696,9.536046 2.274536,9.690551 2.4610658,9.7678015 2.6781589,9.7678015 H 5.2858291 V 7.6085811 H 2.5367485 c -0.019034,0.038631 -0.089953,0.1642363 -0.2127651,0.376823 z M 5.5267042,3.2171611 H 8.1624834 L 9.494428,0.86952726 8.417629,1.5072975 7.7512246,0.33303815 C 7.6284004,0.11102248 7.4395623,1.0249415e-5 7.1847152,0 H 5.0873346 c 0.085043,0.09642796 0.1559639,0.19299225 0.212766,0.28969492 L 6.5892325,2.5793899 6.3768995,2.7098629 Z M 4.2371401,0.1158785 C 3.9347086,0.11588786 3.7079607,0.2510787 3.5568972,0.52145086 L 2.2392232,2.8403359 C 2.7397071,3.1399143 3.3490283,3.4974255 4.0671876,3.9128702 4.4921348,3.1689583 4.9502423,2.3573716 5.4415118,1.4781069 L 4.9173838,0.52145086 C 4.7663079,0.2510787 4.5395608,0.11588786 4.2371401,0.1158785 Z M 7.6240848,7.5793906 V 7.3184429 6.318885 L 6.3059786,8.6665198 7.6240848,11 V 9.7390535 h 1.3176731 c 0.2551341,0 0.4487274,-0.1111598 0.5807792,-0.3334818 L 10.571227,7.5360469 c -0.141565,0.038631 -0.259625,0.057942 -0.354176,0.057942 L 7.6240848,7.5793873 Z M 9.5796211,3.6085801 c -0.047296,0.028904 -0.6567579,0.3864128 -1.8283965,1.0725335 0.5858148,1.033766 1.0488235,1.8502174 1.389027,2.4493607 h 1.0625294 c 0.311928,1.7e-6 0.543432,-0.1353354 0.694514,-0.4060167 C 11.038838,6.463514 11.034081,6.19785 10.883025,5.9274647 L 9.5796228,3.6085801 Z"
     id="recycling"
     style="stroke-width:0.819054" />
</svg>
