<?xml version="1.0" encoding="UTF-8" standalone="no"?>
<svg
   viewBox="0 0 10 12"
   height="12"
   width="10"
   id="svg109"
   version="1.1"
   xmlns="http://www.w3.org/2000/svg"
   xmlns:svg="http://www.w3.org/2000/svg">
  <defs
     id="defs113" />
  <path
     id="restaurant"
     d="M 0.41666667,0 C 0.20833333,0 0,0.21428571 0,0.64285714 V 6 C 0,6.8571429 1.4583333,6.8571429 1.4583333,7.7142857 L 1.0416667,12 H 3.125 L 2.7083333,7.7142857 C 2.7083333,6.8571429 4.1666667,6.8571429 4.1666667,6 V 0.64285714 c 0,-0.85714285 -0.8333334,-0.85714285 -0.8333334,0 V 5.1428571 c 0,0.4828188 -0.8333333,0.4828187 -0.8333333,0 V 0.64285714 c 0,-0.85714285 -0.8333333,-0.85714285 -0.8333333,0 V 5.1428571 c 0,0.4520005 -0.83333337,0.4520005 -0.83333337,0 V 0.64285714 C 0.83333333,0.21428571 0.625,0 0.41666667,0 Z M 7.5,0 C 6.6666667,0 5,1.7142857 5,4.2857143 5,6.8571429 6.875,7.7142857 6.875,7.7142857 L 6.4583333,12 H 8.5416667 L 8.125,7.7142857 c 0,0 1.875,-0.8571428 1.875,-3.4285714 C 10,1.7142857 8.3333333,0 7.5,0 Z"
     style="fill:#b37000;fill-opacity:1;stroke-width:0.845154" />
</svg>
