<?xml version="1.0" encoding="UTF-8" standalone="no"?>
<svg
   version="1.1"
   width="10"
   height="8"
   viewBox="0 0 10 8"
   id="svg2"
   xmlns="http://www.w3.org/2000/svg"
   xmlns:svg="http://www.w3.org/2000/svg">
  <defs
     id="defs3053" />
  <rect
     width="14"
     height="14"
     x="0"
     y="0"
     id="canvas"
     style="visibility:hidden;fill:none;stroke:none" />
  <path
     id="rect4777"
     d="M 5,0 0,3.5556222 H 1.4285715 L 2.1428572,3.1997128 V 7.540072 7.555697 c -1.269e-4,0.1553487 0.064934,0.2995069 0.171596,0.3802151 0.1101987,0.082891 0.2477221,0.085549 0.359933,0.00693 0.1126751,-0.07844 0.182551,-0.2264685 0.1827566,-0.3871453 V 2.8438033 L 5,1.7778111 7.1428572,2.8438033 v 4.7118939 c -1.269e-4,0.1553487 0.064934,0.2995061 0.1715956,0.3802152 0.1101987,0.082899 0.2477229,0.085548 0.3599337,0.00693 0.112675,-0.078438 0.1825507,-0.2264659 0.1827563,-0.3871426 V 3.1997128 L 8.5714284,3.5556222 H 10 Z"
     style="fill:#666666;fill-opacity:1;fill-rule:evenodd;stroke:none;stroke-width:0.796826;stroke-opacity:1" />
</svg>
