<?xml version="1.0" encoding="UTF-8" standalone="no"?>
<svg
   id="svg2"
   viewBox="0 0 10 11"
   height="11"
   width="10"
   version="1.1"
   xmlns="http://www.w3.org/2000/svg"
   xmlns:svg="http://www.w3.org/2000/svg">
  <defs
     id="defs6" />
  <rect
     style="visibility:hidden;fill:none;stroke:none"
     id="canvas"
     y="0"
     x="0"
     height="14"
     width="14" />
  <path
     id="path5687"
     d="m 5.0065104,0 c -0.6901244,-6.999999e-8 -1.2496727,0.51396689 -1.25,1.148174 -5.979e-4,0.6348082 0.5592213,1.1497133 1.25,1.1497131 0.6907787,2e-7 1.2505979,-0.5149049 1.25,-1.1497131 C 6.2561831,0.51396689 5.6966348,-6.999999e-8 5.0065104,0 Z M 0.4166667,1.1497131 A 0.41666667,0.39401146 0 0 0 0,1.5437246 V 6.2718621 C 0,7.059885 -4.8087953e-4,7.059885 0.9733073,7.8479079 1.6661858,8.6359309 1.6666667,8.6359309 1.6666667,9.4239538 V 11 h 2.5 V 8.6359309 c 0,-0.6218518 -0.3443626,-0.5810708 -0.8333334,-0.788023 -1.4490635,-0.7880229 -2.5,-1.5760458 -2.5,-2.3640687 V 1.5437246 A 0.41666667,0.39401146 0 0 0 0.4166667,1.1497131 Z m 9.1666663,0 A 0.41666667,0.39401146 0 0 0 9.166667,1.5437246 v 3.9401146 c 0,0.7880231 -1.050937,1.5760458 -2.5000003,2.3640687 C 6.1776959,8.0548601 5.8333333,8.0140791 5.8333333,8.6359309 V 11 h 2.5 V 9.4239538 c 0,-0.7880229 4.809e-4,-0.7880229 0.6933587,-1.5760459 C 10.000481,7.059885 10,7.059885 10,6.2718621 V 1.5437246 A 0.41666667,0.39401146 0 0 0 9.583333,1.1497131 Z M 5,3.1197705 c -1.6666667,0 -1.6666667,0.7880228 -1.6666667,1.5760458 V 7.059885 H 6.6666667 V 4.6958163 c 0,-0.788023 0,-1.5760458 -1.6666667,-1.5760458 z"
     style="fill:#665200;fill-opacity:1;fill-rule:evenodd;stroke:none;stroke-width:0.810362;stroke-opacity:1" />
</svg>
