<?xml version="1.0" encoding="UTF-8" standalone="no"?>
<svg
   version="1.1"
   width="9"
   height="9"
   viewBox="0 0 9 9"
   id="svg2"
   xmlns="http://www.w3.org/2000/svg"
   xmlns:svg="http://www.w3.org/2000/svg">
  <defs
     id="defs6" />
  <rect
     width="14"
     height="14"
     x="0"
     y="0"
     id="canvas"
     style="visibility:hidden;fill:none;stroke:none" />
  <path
     d="M 0.76078641,5.2964417 C 0.01227217,6.0440099 -0.32993134,7.2433749 0.41896273,7.9842995 L 0.76078641,8.3224853 3.0331918,6.0529527 V 4.9181863 L 4.926863,3.0269089 H 6.0630657 L 8.3354716,0.75737612 7.9487131,0.38873741 C 7.2097775,-0.31557926 6.0484946,0.0154178 5.3055973,0.75737612 Z M 1.173719,8.7291539 1.4303385,8.9961173 c 0,0 0.6439761,0.057429 0.9763178,-0.2694447 L 3.4623397,7.688366 C 3.7515959,7.3842614 3.6951214,6.7014531 3.6951214,6.7014531 L 3.438502,6.4344899 Z M 6.4819817,3.4205448 6.738601,3.6875071 c 0,0 0.6587977,0.1191813 0.9577062,-0.1748073 L 8.7519898,2.474393 C 9.0511027,2.1802032 8.9960068,1.4089435 8.9960068,1.4089435 L 8.7393871,1.1419812 Z"
     id="telephone"
     style="fill:#666666;stroke-width:0.75699" />
</svg>
