<?xml version="1.0" encoding="UTF-8" standalone="no"?>
<!-- Created with Inkscape (http://www.inkscape.org/) -->

<svg
   version="1.1"
   width="11"
   height="11"
   viewBox="0 0 11 11"
   id="svg2"
   xmlns="http://www.w3.org/2000/svg"
   xmlns:svg="http://www.w3.org/2000/svg">
  <defs
     id="defs6" />
  <rect
     width="14"
     height="14"
     x="0"
     y="0"
     id="canvas"
     style="visibility:hidden;fill:none;stroke:none" />
  <path
     d="m 0,0 v 5.5 c 0,0 0,3.1428571 3.1428571,3.1428571 0.3831882,0 0.7112514,-0.065277 1.0066965,-0.1473214 C 4.1036773,8.1158071 4.125,7.8571429 4.125,7.8571429 V 7.6852679 C 3.8554914,7.7904978 3.5278674,7.8571429 3.1428571,7.8571429 0.78571429,7.8571429 0.78571429,5.5 0.78571429,5.5 V 1.1785714 C 2.3571429,1.926619 3.9285714,1.926619 5.5,1.1785714 V 2.0870536 C 5.7628104,2.1916552 6.0316394,2.2893737 6.2857143,2.3571429 V 0 C 3.9285714,1.0786925 2.3571429,1.0254237 0,0 Z m 1.9642857,2.3571429 c -0.4339382,0 -0.7857143,0.3517763 -0.7857143,0.7857142 0,0.433938 0.3517761,0.7857143 0.7857143,0.7857143 C 2.3982239,3.9285714 2.75,3.5767951 2.75,3.1428571 2.75,2.7089192 2.3982239,2.3571429 1.9642857,2.3571429 Z m 2.75,0 v 5.5 c 0,0 0,3.1428571 3.1428572,3.1428571 C 11,11 11,7.8571429 11,7.8571429 v -5.5 c -2.3571429,1.0786925 -3.9285714,1.0254237 -6.2857143,0 z m 1.9642857,2.3571428 c 0.4339382,0 0.7857143,0.3517763 0.7857143,0.7857143 0,0.4339382 -0.3517761,0.7857143 -0.7857143,0.7857143 -0.4339382,0 -0.7857143,-0.3517761 -0.7857143,-0.7857143 0,-0.433938 0.3517761,-0.7857143 0.7857143,-0.7857143 z m 2.3571429,0 c 0.4339382,0 0.7857143,0.3517763 0.7857143,0.7857143 0,0.4339382 -0.3517761,0.7857143 -0.7857143,0.7857143 C 8.6017761,6.2857143 8.25,5.9339382 8.25,5.5 8.25,5.066062 8.6017761,4.7142857 9.0357143,4.7142857 Z M 3.1428571,5.1071429 c -1.1489028,0 -1.5714285,0.7990313 -1.5714285,1.5714285 H 4.125 V 5.3772321 C 3.8859079,5.2031547 3.5717613,5.1071429 3.1428571,5.1071429 Z m 3.1428572,2.75 h 3.1428571 c 0,0.7857142 -0.7857143,1.5714285 -1.5714285,1.5714285 -0.7857143,0 -1.5714286,-0.7857143 -1.5714286,-1.5714285 z"
     id="theatre"
     style="fill:#804000;fill-opacity:1;stroke-width:0.785714" />
</svg>
