<?xml version="1.0" encoding="UTF-8" standalone="no"?>
<!-- Created with Inkscape (http://www.inkscape.org/) -->

<svg
   version="1.1"
   width="9"
   height="9"
   viewBox="0 0 9 9"
   id="svg4"
   xmlns="http://www.w3.org/2000/svg"
   xmlns:svg="http://www.w3.org/2000/svg">
  <defs
     id="defs8" />
  <rect
     width="14"
     height="14"
     x="0"
     y="0"
     id="canvas"
     style="visibility:hidden;fill:none;stroke:none" />
  <path
     d="M 4.0178572,0 V 9 H 4.9821428 V 0 Z M 1.6071428,0.64285715 c -0.5325601,0 -0.96428565,0.43172545 -0.96428565,0.96428565 0,0.5325603 0.43172555,0.9642857 0.96428565,0.9642857 0.5325603,0 0.9642858,-0.4317254 0.9642858,-0.9642857 0,-0.5325602 -0.4317255,-0.96428566 -0.9642858,-0.96428565 z m 5.7857144,0 c -0.5325602,0 -0.9642858,0.43172545 -0.9642858,0.96428565 0,0.5325603 0.4317255,0.9642857 0.9642858,0.9642857 0.5325601,0 0.9642856,-0.4317254 0.9642856,-0.9642857 0,-0.5325602 -0.4317256,-0.96428566 -0.9642856,-0.96428565 z M 0.96428572,3.2142857 c -0.38553558,0 -0.64285715,0.3654933 -0.64285715,0.6428571 C 0.32142857,4.1961432 1.125,4.819266 1.125,5.1428572 1.125,5.500269 0,5.7857143 0,7.0714285 H 1.125 V 9 H 2.0892857 V 7.0714285 h 1.125 c 0,-1.2857142 -1.125,-1.5881727 -1.125,-1.9285713 0,-0.340398 0.8035715,-0.9313049 0.8035715,-1.2857144 C 2.8928572,3.595188 2.6198183,3.2142857 2.25,3.2142857 Z m 5.46428578,0 c -0.3390005,0 -0.6428572,0.3088735 -0.6428572,0.6428571 0,0.6428572 1.125,2.5817612 1.125,3.2142857 V 9 H 7.875 V 7.0714285 C 7.875,6.4514205 9,4.5 9,3.8571428 9,3.501396 8.7115523,3.2142857 8.3571428,3.2142857 Z"
     id="toilets"
     style="fill:#666666;stroke-width:0.642858" />
</svg>
