<?xml version="1.0" encoding="UTF-8" standalone="no"?>
<svg
   version="1.1"
   width="11"
   height="11"
   viewBox="0 0 11 11"
   id="svg2"
   xmlns="http://www.w3.org/2000/svg"
   xmlns:svg="http://www.w3.org/2000/svg">
  <defs
     id="defs6" />
  <path
     id="path757"
     d="M 5.5,0 0,2.75 V 4.3214286 L 1.1785714,3.8104074 V 11 H 2.3571429 V 3.2993862 L 5.5,1.9642857 8.6428571,3.2993862 V 11 H 9.8214286 V 3.8104074 L 11,4.3214286 V 2.75 Z M 5.478515,3.9669364 c -0.3052964,0 -0.5539899,0.2468845 -0.5539899,0.5524553 0,0.3062566 0.2486934,0.5524554 0.5539899,0.5524554 0.3051595,0 0.5524554,-0.2461988 0.5524554,-0.5524554 0,-0.3055708 -0.2474331,-0.5524553 -0.5524554,-0.5524553 z M 3.9669364,4.8616071 C 3.8809434,4.8419951 3.7959844,4.8919431 3.7766462,4.976702 L 3.3899274,6.5803571 c -0.020846,0.085033 0.031184,0.1688944 0.1166295,0.1902902 l 0.4603795,0.1104911 c 0.083936,0.022079 0.1709519,-0.03006 0.1902901,-0.1150949 L 4.5439453,5.163923 C 4.5646553,5.07889 4.5123753,4.9933565 4.4288505,4.9720982 Z M 5.3173828,5.1577846 C 4.8665698,5.1463996 4.7526506,5.6196986 4.7526506,5.6196987 L 3.5832869,10.533482 c -0.00412,0.0262 -0.00614,0.05207 -0.00614,0.07827 C 3.5771485,10.827347 3.7513361,11 3.9669364,11 4.1423516,11 4.2908552,10.882292 4.3383092,10.722237 L 5.007394,7.9568916 5.6427176,10.705357 C 5.6838626,10.875286 5.8385046,11 6.0202288,11 c 0.2147774,0 0.3867188,-0.17279 0.3867188,-0.388254 0,-0.02935 -0.00134,-0.05809 -0.00614,-0.08594 l -0.874721,-3.6523436 0.073661,-0.320731 0.056781,0.2532087 c 0.051843,0.1649921 0.2025668,0.179548 0.2025668,0.179548 L 6.75837,7.2156808 c 0.018378,0.00314 0.036735,0.0046 0.055245,0.0046 0.1472986,0 0.2654854,-0.1169257 0.2654854,-0.2639509 C 7.0791015,6.8305668 6.9930864,6.7232938 6.875,6.695452 L 6.0954241,6.500558 5.8821149,5.6304408 C 5.7800751,5.1453408 5.3173828,5.1577846 5.3173828,5.1577846 Z m 2.40625,0.561663 c -0.064601,0 -0.1122591,0.048365 -0.125837,0.110491 l -0.928432,5.0334824 c 0,0.0033 -0.00153,0.0061 -0.00153,0.0077 0,0.07036 0.057288,0.127371 0.1273716,0.127371 0.063777,0 0.1185937,-0.04919 0.1273717,-0.110491 L 7.8494699,5.8544922 v -0.00921 c 0,-0.068577 -0.055757,-0.125837 -0.1258371,-0.1258368 z"
     style="fill:#782121;stroke-width:0.13715" />
</svg>
