<?xml version="1.0" encoding="UTF-8" standalone="no"?>
<svg
   xml:space="preserve"
   viewBox="0 0 10 10"
   height="10"
   width="10"
   y="0px"
   x="0px"
   id="tourism_apartment"
   version="1.1"
   xmlns="http://www.w3.org/2000/svg"
   xmlns:svg="http://www.w3.org/2000/svg">
<defs
   id="defs11" />
<rect
   height="14"
   width="14"
   fill="none"
   display="none"
   id="canvas"
   x="0"
   y="0" />



<path
   id="hotel"
   d="M 0.35714286,2.1428571 C 0.15928571,2.1428571 0,2.3021429 0,2.5 V 2.8571429 5.7142857 6.4285714 6.7857143 7.8571429 H 0.71428571 V 6.7857143 6.4285714 H 9.2857143 V 7.5 7.8571429 H 9.6428571 10 V 7.5 6.4285714 5.7142857 4.2857143 3.9285714 C 10,3.7307143 9.8407143,3.5714286 9.6428571,3.5714286 9.445,3.5714286 9.2857143,3.7307143 9.2857143,3.9285714 V 4.2857143 5.7142857 H 0.71428571 V 2.8571429 2.5 C 0.71428571,2.3021429 0.555,2.1428571 0.35714286,2.1428571 Z M 2.5,2.8571429 c -0.5917336,0 -1.0714286,0.479695 -1.0714286,1.0714285 C 1.4285714,4.520305 1.9082664,5 2.5,5 3.0917336,5 3.5714286,4.520305 3.5714286,3.9285714 3.5714286,3.3368379 3.0917336,2.8571429 2.5,2.8571429 Z M 4.2857143,3.5714286 V 5 h 4.2857143 c 0,-0.7142857 -0.740125,-1.4285714 -1.4285715,-1.4285714 z"
   style="stroke-width:0.714285;fill:#782121;fill-opacity:1" /><rect
   y="0"
   x="1.5860329e-16"
   height="1.4285715"
   width="10"
   id="rect825"
   style="opacity:1;fill:#782121;fill-opacity:1;stroke:none;stroke-width:0.0570762;stroke-linecap:square;stroke-miterlimit:4;stroke-dasharray:none;stroke-opacity:1;paint-order:markers stroke fill" /><rect
   y="8.5714283"
   x="0"
   height="1.4285715"
   width="10"
   id="rect825-2"
   style="opacity:1;fill:#782121;fill-opacity:1;stroke:none;stroke-width:0.0570762;stroke-linecap:square;stroke-miterlimit:4;stroke-dasharray:none;stroke-opacity:1;paint-order:markers stroke fill" /></svg>
