<?xml version="1.0" encoding="UTF-8" standalone="no"?>
<svg
   width="8"
   height="12"
   id="svg3800"
   version="1.1"
   viewBox="0 0 8 12"
   xmlns="http://www.w3.org/2000/svg"
   xmlns:svg="http://www.w3.org/2000/svg">
  <defs
     id="defs3802" />
  <g
     transform="matrix(1,0,0,0.85714286,-1.4479605,2.408957)"
     id="g97"
     style="fill:#804000;fill-opacity:1">
    <g
       id="g105"
       style="fill:#804000;fill-opacity:1">
      <path
         id="rect818"
         transform="translate(-1.5520395,-2.8104498)"
         d="M 4,0 5,2 H 6 L 5,4 6,6 5,8 6,10 5,12 H 9 L 8,10 9,8 8,6 9,4 8,2 H 9 L 10,0 Z M 7,3 A 1,1 0 0 1 8,4 1,1 0 0 1 7,5 1,1 0 0 1 6,4 1,1 0 0 1 7,3 Z M 7,7 A 1,1 0 0 1 8,8 1,1 0 0 1 7,9 1,1 0 0 1 6,8 1,1 0 0 1 7,7 Z m -4,6 v 1 h 8 v -1 z"
         style="opacity:1;fill:#804000;fill-opacity:1;stroke:none;stroke-width:0.0248193;stroke-linecap:square;stroke-miterlimit:4;stroke-dasharray:none;stroke-opacity:1;paint-order:markers stroke fill" />
    </g>
  </g>
</svg>
