<?xml version="1.0" encoding="UTF-8" standalone="no"?>
<svg
   version="1.1"
   width="12"
   height="11"
   viewBox="0 0 12 11"
   id="svg2"
   xmlns="http://www.w3.org/2000/svg"
   xmlns:svg="http://www.w3.org/2000/svg">
  <defs
     id="defs6" />
  <rect
     width="14"
     height="14"
     x="0"
     y="0"
     id="canvas"
     style="visibility:hidden;fill:none;stroke:none" />
  <path
     d="M 1.7142857,2 C 0.85714286,2 0,2.9 0,3.8 V 7.4 C 0,8.3 0.85714286,9.2 1.7142857,9.2 H 2.625 C 2.8248137,8.1747128 3.6787517,7.4 4.7142857,7.4 c 1.035534,0 1.889472,0.7747128 2.0892857,1.8 H 12 c 0,0 0,-0.9 -0.857143,-0.9 H 9.8571429 V 3.8 C 9.8571429,2.935402 8.9791389,2 8.1428571,2 Z M 2.4375,3.8 c 0.080357,-0.014063 0.1339286,0 0.1339286,0 h 1.7142857 c 0,0 0.8571428,0 0.8571428,0.9 0,0.9 -0.8571428,0.9 -0.8571428,0.9 H 2.5714286 c 0,0 -0.8571429,0 -0.8571429,-0.9 0,-0.675 0.4821429,-0.8578125 0.7232143,-0.9 z m 4.4196429,0 h 0.4285714 c 0,0 0.8571428,0 0.8571428,0.9 0,0.9 -0.8571428,0.9 -0.8571428,0.9 H 6.8571429 C 6.8571429,5.6 6,5.6 6,4.7 6,3.8 6.8571429,3.8 6.8571429,3.8 Z M 4.7142857,8.3 c -0.7100803,0 -1.2857143,0.6044157 -1.2857143,1.35 0,0.745584 0.575634,1.35 1.2857143,1.35 C 5.424366,11 6,10.395584 6,9.65 6,8.9044157 5.424366,8.3 4.7142857,8.3 Z"
     id="caravan"
     style="fill:#782121;fill-opacity:1;stroke:none;stroke-width:0.87831" />
</svg>
