<?xml version="1.0" encoding="UTF-8" standalone="no"?>
<svg
   id="svg2"
   viewBox="0 0 11 11"
   height="11"
   width="11"
   version="1.1"
   xmlns="http://www.w3.org/2000/svg"
   xmlns:svg="http://www.w3.org/2000/svg">
  <defs
     id="defs6" />
  <rect
     style="visibility:hidden;fill:none;stroke:none;stroke-width:0.785714"
     id="canvas"
     y="0"
     x="-1.2772424e-08"
     height="11"
     width="11" />
  <path
     id="hostel"
     d="m 2.75,0.78571429 c -0.650907,0 -1.1785714,0.52766451 -1.1785714,1.17857141 0,0.6509069 0.5276644,1.1785714 1.1785714,1.1785714 0.6509069,0 1.1785714,-0.5276645 1.1785714,-1.1785714 C 3.9285714,1.3133788 3.4009069,0.78571429 2.75,0.78571429 Z M 4.7142857,1.5714286 v 1.5714285 h 4.7142857 c 0,-0.7857142 -0.8141375,-1.5714285 -1.5714286,-1.5714285 z M 2.75,5.5 c -0.650907,0 -1.1785714,0.5276645 -1.1785714,1.1785714 0,0.650907 0.5276644,1.1785715 1.1785714,1.1785715 0.6509069,0 1.1785714,-0.5276645 1.1785714,-1.1785715 C 3.9285714,6.0276645 3.4009069,5.5 2.75,5.5 Z m 1.9642857,0.7857143 v 1.5714286 l 4.7142857,0.01012 c 0,-0.7958343 -0.8141375,-1.5815486 -1.5714286,-1.5815486 z"
     style="stroke-width:0.785714;fill:#782121;fill-opacity:1" />
  <rect
     y="0.78571427"
     x="-1.2772424e-08"
     height="10.214286"
     width="0.78571427"
     id="rect814"
     style="opacity:1;fill:#782121;fill-opacity:1;stroke:none;stroke-width:0.0960987;stroke-linecap:square;stroke-miterlimit:4;stroke-dasharray:none;stroke-opacity:1;paint-order:markers stroke fill" />
  <rect
     ry="0.39285713"
     y="0"
     x="-5.9604645e-08"
     height="10.214286"
     width="0.78571427"
     id="rect814-7"
     style="opacity:1;fill:#782121;fill-opacity:1;stroke:none;stroke-width:0.0960987;stroke-linecap:square;stroke-miterlimit:4;stroke-dasharray:none;stroke-opacity:1;paint-order:markers stroke fill" />
  <rect
     y="3.1428571"
     x="10.214286"
     height="7.8571429"
     width="0.78571427"
     id="rect814-3"
     style="opacity:1;fill:#000000;fill-opacity:1;stroke:none;stroke-width:0.0842838;stroke-linecap:square;stroke-miterlimit:4;stroke-dasharray:none;stroke-opacity:1;paint-order:markers stroke fill" />
  <rect
     ry="0.39285713"
     y="1.5714285"
     x="10.214286"
     height="9.4285717"
     width="0.78571427"
     id="rect814-7-2"
     style="opacity:1;fill:#782121;fill-opacity:1;stroke:none;stroke-width:0.092328;stroke-linecap:square;stroke-miterlimit:4;stroke-dasharray:none;stroke-opacity:1;paint-order:markers stroke fill" />
  <rect
     transform="rotate(90)"
     y="-10.214286"
     x="3.9285715"
     height="10.214286"
     width="0.78571427"
     id="rect814-2"
     style="opacity:1;fill:#782121;fill-opacity:1;stroke:none;stroke-width:0.0960987;stroke-linecap:square;stroke-miterlimit:4;stroke-dasharray:none;stroke-opacity:1;paint-order:markers stroke fill" />
  <rect
     transform="rotate(90)"
     y="-10.214286"
     x="8.6428576"
     height="10.214286"
     width="0.78571427"
     id="rect814-2-7"
     style="opacity:1;fill:#782121;fill-opacity:1;stroke:none;stroke-width:0.0960987;stroke-linecap:square;stroke-miterlimit:4;stroke-dasharray:none;stroke-opacity:1;paint-order:markers stroke fill" />
</svg>
