<?xml version="1.0" encoding="UTF-8" standalone="no"?>
<svg
   id="svg2"
   viewBox="0 0 12 11"
   height="11"
   width="12"
   version="1.1"
   xmlns="http://www.w3.org/2000/svg"
   xmlns:svg="http://www.w3.org/2000/svg">
  <defs
     id="defs6" />
  <rect
     style="visibility:hidden;fill:none;stroke:none"
     id="canvas"
     y="0"
     x="0"
     height="14"
     width="14" />
  <path
     id="hotel"
     d="M 0.42857143,3 C 0.19114286,3 0,3.223 0,3.5 V 4 8 9 9.5 11 H 0.85714286 V 9.5 9 H 11.142857 V 10.5 11 H 11.571429 12 V 10.5 9 8 6 5.5 C 12,5.223 11.808857,5 11.571429,5 11.334,5 11.142857,5.223 11.142857,5.5 V 6 8 H 0.85714286 V 4 3.5 C 0.85714286,3.223 0.666,3 0.42857143,3 Z M 3,4 C 2.2899197,4 1.7142857,4.671573 1.7142857,5.5 1.7142857,6.328427 2.2899197,7 3,7 3.7100803,7 4.2857143,6.328427 4.2857143,5.5 4.2857143,4.671573 3.7100803,4 3,4 Z m 2.1428571,1 v 2 h 5.1428569 c 0,-1 -0.8881497,-2 -1.7142854,-2 z"
     style="fill:#782121;stroke-width:0.92582" />
</svg>
