<?xml version="1.0" encoding="UTF-8" standalone="no"?>
<svg
   version="1.1"
   width="11"
   height="11"
   viewBox="0 0 11 11"
   id="svg2"
   xmlns="http://www.w3.org/2000/svg"
   xmlns:svg="http://www.w3.org/2000/svg">
  <defs
     id="defs6" />
  <rect
     width="11"
     height="11"
     x="0"
     y="0"
     id="canvas"
     style="visibility:hidden;fill:none;stroke:none;stroke-width:0.785714" />
  <path
     d="M 0.39285714,0 C 0.17521429,0 0,0.17521429 0,0.39285714 V 0.78571429 4.7142857 H 0.78571429 V 3.9285714 H 10.214286 V 4.7142857 H 11 V 1.5714286 1.1785714 c 0,-0.21764283 -0.175214,-0.39285711 -0.392857,-0.39285711 -0.217643,0 -0.392857,0.17521428 -0.392857,0.39285711 V 1.5714286 3.1428571 H 0.78571429 V 0.78571429 0.39285714 C 0.78571429,0.17521429 0.6105,0 0.39285714,0 Z M 2.75,0 C 2.0990931,0 1.5714286,0.5276645 1.5714286,1.1785714 c 0,0.650907 0.5276645,1.1785715 1.1785714,1.1785715 0.6509069,0 1.1785714,-0.5276645 1.1785714,-1.1785715 C 3.9285714,0.5276645 3.4009069,0 2.75,0 Z M 4.7142857,0.78571429 V 2.3571429 h 4.7142857 c 0,-0.7857143 -0.8141375,-1.57142861 -1.5714285,-1.57142861 z M 3.1428571,4.7142857 2.3571429,7.0714286 c -0.3713805,0 -0.7857143,0.301946 -0.7857143,0.7857143 v 2.3571431 h 0.7857143 c 0,0 0,0.785714 0.7857142,0.785714 0.7857143,0 0.7857143,-0.785714 0.7857143,-0.785714 h 3.1428572 c 0,0 0,0.785714 0.7857143,0.785714 0.7857142,0 0.7857142,-0.785714 0.7857142,-0.785714 H 9.4285714 V 7.8571429 c 0,-0.4090476 -0.3578339,-0.7857143 -0.7857143,-0.7857143 L 7.8571429,4.7142857 Z M 3.9285714,5.5 H 7.0714286 L 7.5625,7.0714286 H 3.4375 Z M 3.1428571,8.0535714 c 0.3254539,0 0.5892858,0.2638319 0.5892858,0.5892857 0,0.3254539 -0.2638319,0.5892858 -0.5892858,0.5892858 -0.3254538,0 -0.5892857,-0.2638319 -0.5892857,-0.5892858 0,-0.3254538 0.2638319,-0.5892857 0.5892857,-0.5892857 z m 4.7142858,0 c 0.3254538,0 0.5892857,0.2638319 0.5892857,0.5892857 0,0.3254539 -0.2638319,0.5892858 -0.5892857,0.5892858 -0.3254539,0 -0.5892858,-0.2638319 -0.5892858,-0.5892858 0,-0.3254538 0.2638319,-0.5892857 0.5892858,-0.5892857 z"
     id="motel"
     style="fill:#782121;fill-opacity:1;stroke-width:0.785714" />
</svg>
