<?xml version="1.0" encoding="UTF-8" standalone="no"?>
<!-- Created with Inkscape (http://www.inkscape.org/) -->

<svg
   version="1.1"
   width="12"
   height="11"
   viewBox="0 0 12 11"
   id="svg4"
   xmlns="http://www.w3.org/2000/svg"
   xmlns:svg="http://www.w3.org/2000/svg">
  <defs
     id="defs8" />
  <rect
     width="14"
     height="14"
     x="0"
     y="0"
     id="canvas"
     style="visibility:hidden;fill:none;stroke:none" />
  <path
     d="M 6,0 0.85714286,1.8333333 V 2.75 H 11.142857 V 1.8333333 Z M 0.85714286,3.6666667 V 4.5833333 H 1.7142857 V 9.467 H 0.85714286 L 0,11 H 12 L 11.142857,9.467 H 10.285714 V 4.5833333 h 0.857143 V 3.6666667 Z M 4.2857143,4.5833333 c 0.4263188,0 0.8571428,0.4882079 0.8571428,0.9166667 V 9.467 H 3.4285714 V 5.5 c 0,-0.4833894 0.430824,-0.9166667 0.8571429,-0.9166667 z m 3.4285714,0 c 0.4314549,0 0.8571429,0.4332773 0.8571429,0.9166667 V 9.467 H 6.8571429 V 5.5 c 0,-0.4833894 0.425688,-0.9166667 0.8571428,-0.9166667 z"
     id="museum"
     style="fill:#804000;fill-opacity:1;stroke-width:0.886405" />
</svg>
