<?xml version="1.0" encoding="UTF-8" standalone="no"?>
<svg
   version="1.1"
   width="9"
   height="9"
   viewBox="0 0 9.0000003 9"
   id="svg2"
   xmlns="http://www.w3.org/2000/svg"
   xmlns:svg="http://www.w3.org/2000/svg">
  <defs
     id="defs6" />
  <rect
     width="14"
     height="14"
     x="0"
     y="0"
     id="canvas"
     style="visibility:hidden;fill:none;stroke:none" />
  <path
     d="M 6.2068306,0.00937101 C 6.01247,0.04211211 5.8380274,0.18528531 5.7249022,0.36322096 5.4584167,0.75988909 5.3897198,1.2508031 5.2630542,1.712274 5.1208919,2.3082 4.9833466,2.9158218 4.9016078,3.525755 4.8883706,3.7013765 5.0093344,3.7394665 5.1626524,3.5699862 5.6928868,3.026153 6.2150187,2.4516366 6.72892,1.8891989 6.8537845,1.7430678 6.9790068,1.5988863 7.0702859,1.4247708 7.2123841,1.1631728 7.2791332,0.81742835 7.1305274,0.54014594 6.9771059,0.25986733 6.6961969,0.06936394 6.4076347,0.00937101 c -0.066658,-0.01398182 -0.1360168,-0.01091373 -0.2008041,0 z M 2.7128495,0.05360225 C 2.4157413,0.05939478 2.1214443,0.22882182 1.9297158,0.47379907 1.7521708,0.69991351 1.7586305,1.029438 1.8694752,1.2920771 2.0476399,1.744826 2.3936257,2.0680206 2.6927696,2.4199738 3.0897975,2.8540688 3.4994397,3.2749288 3.9377514,3.6584486 4.0691164,3.7590628 4.1547479,3.6683345 4.0983942,3.4372924 3.9367477,2.6594194 3.7607556,1.88678 3.5763046,1.1151521 3.5240443,0.92292013 3.4665782,0.71438973 3.3755011,0.54014594 3.241145,0.27363174 3.0051907,0.05089735 2.7128495,0.05360225 Z M 0.64457331,3.5921018 C 0.43436183,3.6325384 0.23063587,3.7579998 0.12248416,3.9680674 -0.02167645,4.2542482 -0.0343523,4.6136141 0.06224311,4.9190391 0.15111005,5.2015022 0.4228066,5.3798085 0.68473401,5.4055828 1.129794,5.4623277 1.5434913,5.2713648 1.9698765,5.1623109 2.5098217,5.0010425 3.0554489,4.8353647 3.5763046,4.6094204 3.7211453,4.5345293 3.6857274,4.3838381 3.4759029,4.3219173 2.7835507,4.0866826 2.0864038,3.8688137 1.3875463,3.6584486 1.2102858,3.6120536 1.0279274,3.5924786 0.84537682,3.5921015 c -0.0691855,-0.00132 -0.13073305,-0.013478 -0.20080351,3e-7 z m 7.51005159,0 C 7.9720737,3.5924785 7.7897158,3.612054 7.6124555,3.6584486 6.9135982,3.8688137 6.2164502,4.0866826 5.5240987,4.3219173 5.3142744,4.3838382 5.2788549,4.5345317 5.423697,4.6094204 5.9445532,4.8353647 6.4901797,5.0010425 7.0301252,5.1623109 7.4565092,5.2713648 7.8702043,5.46233 8.3152677,5.4055828 8.5771952,5.3798084 8.8488917,5.2015022 8.9377587,4.9190391 9.0343485,4.6136141 9.0216801,4.2542482 8.8775181,3.9680674 8.7333167,3.6879773 8.4313674,3.5868224 8.1546249,3.5921018 Z M 4.0381527,5.2950047 c -0.025818,0.00157 -0.06756,0.019077 -0.1004018,0.044231 C 3.4994393,5.7227572 3.0897971,6.1657333 2.6927691,6.5998264 2.3936252,6.9517804 2.0476395,7.2528576 1.8694748,7.7056079 1.7586305,7.9682459 1.7521708,8.2977716 1.9297154,8.5238859 2.1214438,8.7688633 2.4157408,8.9603747 2.712849,8.9661983 3.0051903,8.9688876 3.2411445,8.7240518 3.3755007,8.457539 3.4665778,8.2832942 3.5240439,8.096881 3.5763042,7.9046485 3.7607552,7.1330206 3.9367472,6.3382653 4.0983933,5.5603922 4.1406582,5.3871103 4.1156076,5.2902883 4.0381518,5.2950047 Z m 0.9437765,0.044231 c -0.047288,0.00969 -0.08694,0.066998 -0.080321,0.1548093 0.081739,0.609934 0.2192841,1.1954386 0.3614464,1.7913661 C 5.3897198,7.7468824 5.458419,8.2599103 5.7249022,8.6565797 5.8757358,8.8938255 6.1409989,9.0442432 6.4076342,8.988314 6.6961964,8.9283223 6.9771054,8.7378172 7.130527,8.457539 7.2791358,8.1802559 7.2123838,7.8345105 7.0702855,7.5729142 6.9790068,7.398798 6.8537845,7.2546155 6.72892,7.1084861 6.2150187,6.5460457 5.6928868,5.9936445 5.1626524,5.4498141 5.0859934,5.3650742 5.0292169,5.3295408 4.9819292,5.3392357 Z"
     id="viewpoint"
     style="fill:#502d16;stroke-width:0.67435" />
</svg>
