<?xml version="1.0" encoding="UTF-8" standalone="no"?>
<svg
   version="1.1"
   width="11"
   height="11"
   viewBox="0 0 11 11"
   id="svg2"
   xmlns="http://www.w3.org/2000/svg"
   xmlns:svg="http://www.w3.org/2000/svg">
  <defs
     id="defs6" />
  <rect
     width="14"
     height="14"
     x="0"
     y="0"
     id="canvas"
     style="visibility:hidden;fill:none;stroke:none" />
  <path
     id="wilderness-hut"
     d="M 6.2857143,0 V 1.5714286 L 5.5,1.1785714 0,3.9285714 V 5.5 L 1.1785714,4.9889788 V 11 H 2.3571429 V 4.4779576 L 5.5,3.1428571 6.2857143,3.4773995 v 3.5940291 h -2.75 c 0.01989,1.2976621 -0.026932,2.6631943 0,3.9285714 h 3.9285714 c 0.014305,-2.3204217 0.00474,-4.6746962 0,-7.0223214 l 1.1785714,0.500279 V 11 H 9.8214286 V 4.9889788 L 11,5.5 V 3.9285714 L 7.4642857,2.1607143 c -0.00122,-0.7217554 0,-1.44113665 0,-2.1607143 z M 5.5,8.6428571 c 0,0 0.7857143,0 0.7857143,0.7857143 V 10.214286 H 4.7142857 V 9.4285714 C 4.7142857,8.6428571 5.5,8.6428571 5.5,8.6428571 Z"
     style="fill:#502d16;fill-opacity:1;stroke:none;stroke-width:0.785714" />
</svg>
