<?xml version="1.0" encoding="UTF-8" standalone="no"?>
<svg
   version="1.1"
   width="12"
   height="12"
   id="svg352"
   xmlns="http://www.w3.org/2000/svg"
   xmlns:svg="http://www.w3.org/2000/svg">
  <defs
     id="defs356" />
  <path
     style="fill:#000000;stroke-width:0.0145844"
     d="M 5.5623416,11.985126 C 4.4109244,11.893551 3.3422248,11.496385 2.4339609,10.822505 1.663697,10.251015 1.0405587,9.5062725 0.61943068,8.653875 0.08540443,7.5729624 -0.10857886,6.3661878 0.05794411,5.1608537 0.29212003,3.4658333 1.261891,1.9386392 2.7110676,0.98272098 3.9209986,0.18461522 5.3839583,-0.14326708 6.838488,0.05767246 8.4049337,0.27407272 9.8502693,1.1311871 10.808115,2.4117468 12.141418,4.1942552 12.37563,6.5904156 11.41199,8.5898157 10.601303,10.271864 9.0830168,11.468455 7.253172,11.867461 6.7341914,11.980626 6.0790297,12.026219 5.5623416,11.985126 Z M 6.5030444,9.9794558 C 7.6593916,9.8382618 8.7036373,9.1874693 9.3538972,8.2027525 9.6885131,7.6960279 9.9009642,7.1189938 9.9825409,6.4953007 10.01564,6.2421257 10.015801,5.76124 9.9828307,5.5035806 9.8105833,4.1572647 8.9861692,2.9978414 7.7791904,2.4044715 7.1900038,2.1148183 6.6612328,1.9923433 5.9998781,1.9923433 c -0.6618618,0 -1.1919022,0.1228644 -1.7793124,0.4124475 C 3.4272155,2.7958993 2.7935935,3.4293921 2.4048091,4.220178 2.1151498,4.8093479 1.9926686,5.3381044 1.9926686,5.9994406 c 0,0.6605524 0.1234353,1.1930144 0.4124591,1.7792627 0.7564082,1.5342632 2.3865442,2.4097147 4.0979167,2.2007525 z"
     id="path413" />
  <path
     style="fill:#000000;stroke-width:0.0147054"
     d="M 5.7111569,7.9911198 C 5.2785657,7.9226749 4.8850893,7.7231052 4.5805036,7.4176575 4.308023,7.1444054 4.1373925,6.8387072 4.0394439,6.4483075 4.0043465,6.3084525 4.0005102,6.2660032 4.0000205,6.0139903 3.9994137,5.705319 4.0118965,5.6158363 4.088217,5.3807466 4.2858928,4.7719904 4.7719602,4.2862349 5.3811056,4.088686 5.6128463,4.013531 5.7072828,4 6.0000452,4 c 0.2927612,0 0.3871976,0.013534 0.61894,0.088686 0.5114795,0.1658763 0.9346234,0.5281286 1.1756955,1.0065129 0.075383,0.1495862 0.119727,0.2710205 0.166182,0.4550727 0.035873,0.1421703 0.039137,0.1793482 0.039137,0.4490179 0,0.2696706 -0.00322,0.3068467 -0.039137,0.449018 C 7.8618758,6.8404708 7.6898375,7.1484984 7.4193215,7.4179034 7.1478677,7.6882444 6.8400342,7.8605841 6.457103,7.9565988 6.3336173,7.9875607 6.2661079,7.994619 6.0515282,7.9989927 5.9099429,8.0018816 5.7567836,7.9983419 5.7111733,7.991114 Z"
     id="path452" />
</svg>
