<?xml version="1.0" encoding="UTF-8" standalone="no"?>
<svg
   version="1.1"
   width="11"
   height="11"
   id="svg214"
   xmlns="http://www.w3.org/2000/svg"
   xmlns:svg="http://www.w3.org/2000/svg">
  <defs
     id="defs218" />
  <path
     style="fill:#000000;stroke-width:0.0133723"
     d="M 5.0984132,10.987316 C 4.5238692,10.941592 4.0076873,10.823229 3.4875398,10.617937 2.4795508,10.220101 1.6202024,9.5417744 0.99118871,8.6474414 0.02442163,7.2728904 -0.25529625,5.4944654 0.24114697,3.8787333 0.68548746,2.4325758 1.7277435,1.2156336 3.0931767,0.54869255 3.6546818,0.27442733 4.2262661,0.1088097 4.9045737,0.02383693 c 0.2537091,-0.03178258 0.9360645,-0.03178258 1.1897736,0 0.7820054,0.09796319 1.4490665,0.31088029 2.0768393,0.66289977 1.0433388,0.5850453 1.8826554,1.5033743 2.3549834,2.5766796 0.598693,1.3604544 0.631247,2.8830905 0.0908,4.2470261 -0.27878,0.70357 -0.6570622,1.2871112 -1.1868138,1.8307935 -1.0442506,1.0717111 -2.4750617,1.6704651 -3.9634464,1.6585911 -0.1290377,-10e-4 -0.2947713,-0.0067 -0.3682966,-0.01251 z"
     id="path294" />
  <path
     style="fill:#ffffff;stroke-width:0.00850964"
     d="M 5.2444452,8.991928 C 4.8788262,8.962831 4.5503468,8.887509 4.2193438,8.756869 3.5778962,8.503701 3.0310381,8.072038 2.6307565,7.502917 2.015541,6.6282033 1.8375388,5.4964783 2.1534572,4.4682853 2.4362194,3.5480033 3.0994733,2.7735855 3.9683854,2.3491685 4.3257069,2.1746361 4.6894424,2.0692431 5.1210928,2.0151695 c 0.1614512,-0.020226 0.5956774,-0.020226 0.7571287,0 C 6.3758613,2.0775095 6.800355,2.2130024 7.199846,2.4370148 7.863789,2.8093163 8.3979,3.3937075 8.698472,4.0767199 9.079458,4.9424636 9.100175,5.9114138 8.756252,6.7793727 8.578846,7.227099 8.338121,7.598443 8.001007,7.944423 7.336484,8.626421 6.4259678,9.007446 5.4788138,8.99989 5.3966988,8.999254 5.291232,8.99559 5.2444432,8.99189 Z"
     id="path294-1" />
</svg>
