<?xml version="1.0" encoding="UTF-8" standalone="no"?>
<svg
   version="1.1"
   width="9"
   height="9"
   id="svg19"
   xmlns="http://www.w3.org/2000/svg"
   xmlns:svg="http://www.w3.org/2000/svg">
  <defs
     id="defs23" />
  <path
     style="fill:#000000;stroke-width:0.0113367"
     d="M 4.1602828,8.9877335 C 2.7631069,8.8744208 1.5290199,8.1502048 0.75345207,6.9884568 c -1.00460276,-1.5048269 -1.00460276,-3.4715437 0,-4.9763707 C 1.5941671,0.75275196 2.9959614,0 4.5004115,0 5.8726934,0 7.1622306,0.62458805 8.0278627,1.7085229 8.84957,2.7374557 9.1748552,4.0999167 8.9094799,5.4011872 8.5506612,7.160658 7.16125,8.5498332 5.4014802,8.9085909 5.0031355,8.9897999 4.5455353,9.0189781 4.1602828,8.9877335 Z"
     id="path160" />
  <path
     style="fill:#ffffff;stroke-width:0.00692799"
     d="M 4.292395,7.2425038 C 3.4385653,7.1732571 2.684401,6.7306806 2.2104429,6.0207236 1.596519,5.1011071 1.596519,3.8992246 2.2104429,2.9796082 2.7242132,2.210015 3.5808653,1.75 4.5002515,1.75 5.3388682,1.75 6.1269187,2.1316927 6.6559161,2.7940973 7.1580705,3.4228896 7.356856,4.2555046 7.1946821,5.0507254 6.975404,6.1259576 6.1263194,6.974898 5.0509046,7.1941389 4.8074717,7.2437666 4.5278271,7.2615977 4.292395,7.2425038 Z"
     id="path160-5" />
</svg>
