<?xml version="1.0" encoding="UTF-8" standalone="no"?>
<svg
   viewBox="0 0 8 11"
   height="11"
   width="8"
   id="svg109"
   version="1.1"
   xmlns="http://www.w3.org/2000/svg"
   xmlns:svg="http://www.w3.org/2000/svg">
  <defs
     id="defs113" />
  <path
     id="path26"
     d="M 4,0 A 1.6,1.5714286 0 0 0 2.4,1.5714286 1.6,1.5714286 0 0 0 4,3.1428571 1.6,1.5714286 0 0 0 5.6,1.5714286 1.6,1.5714286 0 0 0 4,0 Z M 3.965625,3.6784319 C 2.6322268,3.681135 1.3100663,4.0989635 0,4.9245256 1.0824056,5.6342774 1.9698876,6.4848266 1.9484375,7.680664 H 6.0328124 C 5.9775188,6.4705696 7.0520312,5.5903578 8,4.9245256 6.6436592,4.0881512 5.2990234,3.6757289 3.965625,3.6784319 Z M 2.4,8.6428571 V 9.4285714 H 5.6 V 8.6428571 Z M 0.8,10.214286 V 11 h 6.4 v -0.785714 z"
     style="opacity:1;fill:#804000;fill-opacity:1;fill-rule:evenodd;stroke:none;stroke-width:0.915625;stroke-linecap:square;stroke-linejoin:miter;stroke-miterlimit:4;stroke-dasharray:none;stroke-opacity:1;paint-order:markers stroke fill" />
</svg>
