<?xml version="1.0" encoding="UTF-8" standalone="no"?>
<svg
   id="svg2"
   viewBox="0 0 12 11"
   height="11"
   width="12"
   version="1.1"
   xmlns="http://www.w3.org/2000/svg"
   xmlns:svg="http://www.w3.org/2000/svg">
  <defs
     id="defs6" />
  <rect
     style="visibility:hidden;fill:none;stroke:none"
     id="canvas"
     y="0"
     x="0"
     height="14"
     width="14" />
  <path
     id="path824"
     d="M 0.85714286,0 0,1.375 V 1.8333333 H 4.2857143 V 1.375 L 3.4285714,0 Z M 8.5714286,0 7.7142857,1.375 V 1.8333333 H 12 V 1.375 L 11.142857,0 Z M 0,2.75 V 11 h 4.2857143 c 0,-0.916667 0,-2.75 1.7142857,-2.75 1.7142857,0 1.7142857,1.833333 1.7142857,2.75 H 12 V 2.75 H 7.7142857 V 4.5833333 H 6 4.2857143 V 2.75 Z M 1.7142857,4.5833333 H 2.5714286 V 5.5 L 2.1428571,6.4166667 1.7142857,5.5 Z m 7.7142857,0 H 10.285714 V 5.5 L 9.8571429,6.4166667 9.4285714,5.5 Z"
     style="fill:#804000;fill-opacity:1;stroke:none;stroke-width:0.886405" />
</svg>
