<?xml version="1.0" encoding="UTF-8" standalone="no"?>
<svg
   id="svg2"
   viewBox="0 0 12 11"
   height="11"
   width="12"
   version="1.1"
   xmlns="http://www.w3.org/2000/svg"
   xmlns:svg="http://www.w3.org/2000/svg">
  <defs
     id="defs6" />
  <rect
     style="visibility:hidden;fill:none;stroke:none"
     id="canvas"
     y="0"
     x="0"
     height="14"
     width="14" />
  <path
     d="m 5.1428571,11 h 1.7142858 c 0,-0.916667 0,-2.75 -0.8571429,-2.75 -0.8571429,0 -0.8571429,1.833333 -0.8571429,2.75 z M 0,0 V 1.8333333 H 4.2857143 V 0 H 3.4285714 V 0.91666667 H 2.5714286 V 0 H 1.7142857 V 0.91666667 H 0.85714286 V 0 Z M 7.7142857,0 V 1.8333333 H 12 V 0 H 11.142857 V 0.91666667 H 10.285714 V 0 H 9.4285714 V 0.91666667 H 8.5714286 V 0 Z M 0,2.75 V 11 h 4.2857143 c 0,-0.916667 0,-3.6666667 1.7142857,-3.6666667 1.7142857,0 1.7142857,2.7499997 1.7142857,3.6666667 H 12 V 2.75 H 7.7142857 V 4.5833333 H 6 4.2857143 V 2.75 Z M 1.7142857,4.5833333 H 2.5714286 V 5.5 L 2.1428571,6.4166667 1.7142857,5.5 Z m 7.7142857,0 H 10.285714 V 5.5 L 9.8571429,6.4166667 9.4285714,5.5 Z"
     style="opacity:1;fill:#804000;fill-opacity:1;fill-rule:nonzero;stroke:none;stroke-width:0.886405;stroke-opacity:1"
     id="fortress" />
</svg>
