<?xml version="1.0" encoding="UTF-8" standalone="no"?>
<svg
   version="1.1"
   width="11"
   height="11"
   viewBox="0 0 11 11"
   id="svg2"
   xmlns="http://www.w3.org/2000/svg"
   xmlns:svg="http://www.w3.org/2000/svg">
  <defs
     id="defs6" />
  <rect
     width="14"
     height="14"
     x="0"
     y="0"
     id="canvas"
     style="visibility:hidden;fill:none;stroke:none" />
  <path
     id="fort"
     d="M 0.78571429,0 V 1.6923077 H 4.7142857 V 0 H 3.9285714 V 0.84615385 H 3.1428571 V 0 H 2.3571429 V 0.84615385 H 1.5714286 V 0 Z M 6.2857143,0 V 1.6923077 H 10.214286 V 0 H 9.4285712 V 0.84615385 H 8.6428571 V 0 H 7.8571429 V 0.84615385 H 7.0714286 V 0 Z M 0.78571429,2.5384615 V 7.6153846 H 10.214286 V 2.5384615 H 6.2857143 V 4.2307692 H 4.7142857 V 2.5384615 Z M 2.3571429,4.2307692 H 3.1428571 V 5.0769231 L 2.75,5.9230769 2.3571429,5.0769231 Z m 5.5,0 H 8.6428571 V 5.0769231 L 8.25,5.9230769 7.8571429,5.0769231 Z M 0.78571429,8.4615385 0,11 H 11 L 10.214286,8.4615385 Z"
     style="fill:#804000;fill-opacity:1;stroke:none;stroke-width:0.815375" />
</svg>
