<?xml version="1.0" encoding="UTF-8" standalone="no"?>
<svg
   version="1.1"
   width="11"
   height="11"
   viewBox="0 0 11 11"
   id="svg2"
   xmlns="http://www.w3.org/2000/svg"
   xmlns:svg="http://www.w3.org/2000/svg">
  <defs
     id="defs6" />
  <rect
     width="14"
     height="14"
     x="0"
     y="0"
     id="canvas"
     style="visibility:hidden;fill:none;stroke:none" />
  <path
     id="palace"
     style="fill:#804000;fill-opacity:1;stroke:none;stroke-width:0.631587"
     d="M 9.4285714,1.6923077 8.6428571,2.9615385 V 3.3846154 H 11 V 2.9615385 L 10.214286,1.6923077 Z m -8.64285711,0 L 0,2.9615385 V 3.3846154 H 2.3571429 V 2.9615385 L 1.5714286,1.6923077 Z M 3.1428571,3.3846154 H 7.8571429 V 2.5384615 L 5.5,0 3.1428571,2.5384615 Z M 0,4.2307692 V 11 h 3.9285714 c 0,-0.846154 0,-2.5384615 1.5714286,-2.5384615 1.5714286,0 1.5714286,1.6923075 1.5714286,2.5384615 H 11 V 4.2307692 H 8.6570401 L 8.6428571,5.0769231 H 7.8571429 L 7.8826707,4.2307692 H 3.1768953 L 3.1428571,5.0769231 H 2.3571429 V 4.2307692 Z m 2.3571429,2.5384616 c 0.7857142,0 0.7857142,0.8461538 0.7857142,1.6923077 H 1.5714286 c 0,-0.8461539 0,-1.6923077 0.7857143,-1.6923077 z m 6.2857142,0 c 0.7857143,0 0.7857143,0.61781 0.7857143,1.6923077 l -1.5714285,0.021484 c -0.027864,-1.081419 0,-1.7137915 0.7857142,-1.7137917 z" />
</svg>
