<?xml version="1.0" encoding="UTF-8" standalone="no"?>
<!-- Created with Inkscape (http://www.inkscape.org/) -->

<svg
   version="1.1"
   width="10"
   height="9"
   viewBox="0 0 10 9"
   id="svg2"
   xmlns="http://www.w3.org/2000/svg"
   xmlns:svg="http://www.w3.org/2000/svg">
  <defs
     id="defs6" />
  <rect
     width="14"
     height="14"
     x="0"
     y="0"
     id="canvas"
     style="visibility:hidden;fill:none;stroke:none" />
  <path
     d="M 1.25,1 C 0.573968,1 0,1.5510093 0,2.2 V 7.8 C 0,8.4154328 0.55649,9 1.25,9 h 7.5 C 9.3735983,9 10,8.432212 10,7.8 V 2.2 C 10,1.5845669 9.3910758,1 8.75,1 Z m 0,0.8 c 0.2301187,0 0.4166667,0.1790861 0.4166667,0.4 0,0.2209139 -0.186548,0.4 -0.4166667,0.4 C 1.0198813,2.6 0.83333333,2.4209139 0.83333333,2.2 0.83333333,1.9790861 1.0198813,1.8 1.25,1.8 Z m 7.5,0 c 0.2301183,0 0.4166667,0.1790861 0.4166667,0.4 0,0.2209139 -0.1865484,0.4 -0.4166667,0.4 C 8.5198817,2.6 8.3333333,2.4209139 8.3333333,2.2 8.3333333,1.9790861 8.5198817,1.8 8.75,1.8 Z M 3.3333333,2.6 H 4.1666667 V 3.4 H 3.3333333 Z M 5,2.6 H 6.6666667 V 3.4 H 5 Z M 1.6666667,4.2 H 8.3333333 V 5 H 1.6666667 Z M 3.3333333,5.8 H 6.6666667 V 6.6 H 3.3333333 Z M 1.25,7.4 c 0.2301187,0 0.4166667,0.1790864 0.4166667,0.4 0,0.2209136 -0.186548,0.4 -0.4166667,0.4 C 1.0198813,8.2 0.83333333,8.0209136 0.83333333,7.8 0.83333333,7.5790864 1.0198813,7.4 1.25,7.4 Z m 7.5,0 c 0.2301183,0 0.4166667,0.1790864 0.4166667,0.4 0,0.2209136 -0.1865484,0.4 -0.4166667,0.4 C 8.5198817,8.2 8.3333333,8.0209136 8.3333333,7.8 8.3333333,7.5790864 8.5198817,7.4 8.75,7.4 Z"
     id="plaque"
     style="fill:#804000;fill-opacity:1;stroke:none;stroke-width:0.816497" />
</svg>
