<?xml version="1.0" encoding="UTF-8" standalone="no"?>
<svg
   width="10"
   height="10"
   viewBox="0 0 10 10"
   version="1.1"
   id="svg5"
   xmlns="http://www.w3.org/2000/svg"
   xmlns:svg="http://www.w3.org/2000/svg">
  <defs
     id="defs9" />
  <rect
     width="16"
     height="16"
     x="0"
     y="0"
     id="canvas"
     style="visibility:hidden;fill:none;stroke:none" />
  <path
     fill-rule="evenodd"
     d="M 5,0 C 2.2385763,0 0,2.2386 0,5 0,7.7614 2.2385763,10 5,10 7.761424,10 10,7.7614 10,5 10,2.2386 7.761424,0 5,0 Z M 5,0.66666666 C 7.393234,0.66666666 9.3333336,2.6067661 9.3333336,5 9.3333336,7.393234 7.393234,9.3333336 5,9.3333336 2.6067661,9.3333336 0.66666666,7.393234 0.66666666,5 0.66666666,2.6067661 2.6067661,0.66666666 5,0.66666666 Z m -2,0.99999994 -0.5,0.5 v 5.6666668 c 0,6.66e-5 0.4999936,0.5 0.5,0.5 H 3.6666666 V 5.6666666 H 6.3333334 V 8.3333334 H 7 l 0.5,-0.5 V 2.1666666 l -0.5,-0.5 H 6.3333334 V 4.3333334 H 3.6666666 V 1.6666666 Z"
     id="path3"
     style="fill:#442178;stroke-width:0.666667;fill-opacity:1" />
</svg>
