<?xml version="1.0" encoding="UTF-8" standalone="no"?>
<svg
   width="10"
   height="10"
   version="1.0"
   viewBox="0 0 10 10"
   id="svg4"
   xmlns="http://www.w3.org/2000/svg"
   xmlns:svg="http://www.w3.org/2000/svg">
  <defs
     id="defs8" />
  <path
     d="m 0.76928995,7.6923077 c 0.49311485,0 1.40703135,0.7692308 1.84629585,0.7692308 0.4115701,0 1.3808755,-0.7692308 1.8462959,-0.7692308 0.4654204,0 1.435495,0.7692308 1.8462959,0.7692308 0.4938841,0 1.4039541,-0.7692308 1.8455265,-0.7692308 C 8.646819,7.67 9.6168936,8.4615385 10,8.4615385 V 10 C 9.5353489,10 8.5921994,9.2307692 8.1537041,9.2307692 7.7159782,9.2307692 6.7728287,10 6.3081776,10 5.8666051,10 4.9273021,9.2307692 4.4618817,9.2307692 3.9933841,9.2307692 3.0548504,10 2.6155858,10 2.1232402,10 1.2354797,9.2307692 0.76928995,9.2307692 Z m 0,-6.1538462 c 0.84160315,0 1.53934915,0.2307693 1.53934915,1.3461539 l -7.693e-4,1.9230769 c 0,1.5384615 1.153935,2.3076923 1.9232249,2.3076923 0,0 -0.384645,-0.7692308 -0.384645,-2.3076923 V 2.8846154 c 0,-0.7038462 -0.4992691,-1.0061539 -0.7700592,-1.3461539 0.8416032,0 1.5393492,0.2307693 1.5393492,1.3461539 v 1.9230769 c 0,1.5384615 1.1539349,2.3076923 1.9232248,2.3076923 0,0 -0.3846449,-0.7692308 -0.3846449,-2.3076923 L 6.2312486,2.8846154 C 6.2593823,2.1813308 5.6550504,1.8784615 5.3850296,1.5384615 c 0.8408339,0 1.5385799,0.2307693 1.5385799,1.3461539 v 1.9230769 c 0,1.5384615 1.1539349,2.3076923 1.9232249,2.3076923 0,0 -0.384645,-0.7692308 -0.384645,-2.3076923 V 2.8846154 C 8.4621894,0.57692308 6.1543196,0 5.3850296,0 H 0 l 3.8464497e-4,1.5384615 z"
     id="path2"
     style="fill:#3399ff;fill-opacity:1;stroke-width:0.769261" />
</svg>
