<?xml version="1.0" encoding="UTF-8" standalone="no"?>
<svg
   version="1.1"
   id="svg2"
   viewBox="0 0 11 11"
   height="11"
   width="11"
   xmlns="http://www.w3.org/2000/svg"
   xmlns:svg="http://www.w3.org/2000/svg">
  <defs
     id="defs22" />
  <rect
     width="14"
     height="14"
     x="0"
     y="0"
     id="canvas"
     style="visibility:hidden;fill:none;stroke:none" />
  <g
     transform="matrix(0.84615384,0,0,0.97030791,0,0.32660985)"
     id="hbars"
     style="fill:#860073;fill-opacity:1">
    <rect
       id="rect5"
       height="0.5"
       width="11"
       y="6"
       x="1"
       style="fill:#860073;fill-opacity:1" />
    <rect
       id="rect7"
       height="0.5"
       width="9.5"
       y="8"
       x="2"
       style="fill:#860073;fill-opacity:1" />
  </g>
  <g
     transform="matrix(0.84615384,0,0,0.97030791,0,0.32660985)"
     id="vbars"
     style="fill:#860073;fill-opacity:1">
    <rect
       id="rect10"
       height="5.5"
       width="0.5"
       y="4.5"
       x="3"
       style="fill:#860073;fill-opacity:1" />
    <rect
       id="rect12"
       height="5.5"
       width="0.5"
       y="4.5"
       x="5"
       style="fill:#860073;fill-opacity:1" />
    <rect
       id="rect14"
       height="5.5"
       width="0.5"
       y="4.5"
       x="7.5"
       style="fill:#860073;fill-opacity:1" />
    <rect
       id="rect16"
       height="5.5"
       width="0.5"
       y="4.5"
       x="9.5"
       style="fill:#860073;fill-opacity:1" />
  </g>
  <path
     d="M 4.9923076,4.2078414 6.6846154,1.2969177 a 0.42831184,0.49115696 0 0 1 0.786923,0.3881232 L 6.0076923,4.2078414 Z"
     id="handle"
     style="fill:#860073;fill-opacity:1;stroke-width:0.906107" />
  <path
     style="fill:#860073;fill-opacity:1;fill-rule:evenodd;stroke-width:0.906107"
     d="M 0,4.2078414 H 11 L 9.3076922,10.999996 H 1.6923076 Z M 1.0576923,5.1781492 H 9.9423078 L 8.673077,10.029688 H 2.326923 Z"
     id="body" />
</svg>
