<?xml version="1.0" encoding="UTF-8" standalone="no"?>
<svg
   id="svg2"
   viewBox="0 0 9 10"
   height="10"
   width="9"
   version="1.1"
   xmlns="http://www.w3.org/2000/svg"
   xmlns:svg="http://www.w3.org/2000/svg">
  <defs
     id="defs6" />
  <rect
     style="visibility:hidden;fill:none;stroke:none"
     id="canvas"
     y="0"
     x="0"
     height="14"
     width="14" />
  <path
     style="fill:#860073;fill-opacity:1;stroke:none;stroke-width:0.703211"
     id="path3795-5-5"
     d="m 4.8461539,7.8571429 h 2.7692307 v 0.3834564 l -2.7692307,0.01555 z m 0,-0.7142858 h 2.7692307 v 0.3834565 l -2.7692307,0.01555 z m 0,-2.8571428 H 7.6153846 V 6.4285714 H 4.8461539 Z m -3.4615385,0 2.7692307,0.016751 v 0.3834563 l -2.7692307,-0.0012 z m 0,3.5714286 h 2.7692307 v 0.3834564 l -2.7692307,0.01555 z m 0,-0.7142858 h 2.7692307 v 0.3834565 l -2.7692307,0.01555 z m 0,-0.7142857 2.7692307,0.016751 v 0.3834565 l -2.7692307,-0.0012 z m 0,-0.7142857 2.7692307,0.016751 V 6.114493 L 1.3846153,6.113293 Z M 1.3846153,5 h 2.7692308 v 0.3834563 l -2.7692307,0.015548 z m 0,-3.5714286 V 3.221695 L 7.6153846,3.255196 V 1.4285714 Z M 0,0 c 0,1.1147481 0,6.383952 0,7.8571429 0,1.4285714 0,0 0,2.1428571 H 6.9230769 9 V 0 Z M 0.69230769,0.71428571 H 8.3076923 V 9.2857143 H 2.0769231 c -0.9749759,0 0,0 -1.38461541,0 z" />
</svg>
