<?xml version="1.0" encoding="UTF-8" standalone="no"?>
<svg
   id="svg4"
   height="6"
   width="2.5"
   y="0px"
   x="0px"
   version="1.1"
   xmlns="http://www.w3.org/2000/svg"
   xmlns:svg="http://www.w3.org/2000/svg">
  <defs
     id="defs7" />
  <rect
     x="0"
     height="13"
     width="13"
     display="none"
     y="0"
     id="canvas" />
  <path
     id="traffic_light"
     d="M 1.25,0 C 0.625,0 0,0.375 0,1.125 v 3.75 c 0,1.5 2.5,1.5 2.5,0 V 1.125 C 2.5,0.375 1.875,0 1.25,0 Z m 0.00214,0.46153846 c 0.4142136,0 0.75,0.30995674 0.75,0.69230764 0,0.382351 -0.3357864,0.6923078 -0.75,0.6923078 -0.41421356,0 -0.75,-0.3099568 -0.75,-0.6923078 0,-0.3823509 0.33578644,-0.69230764 0.75,-0.69230764 z M 1.25,2.3076923 C 1.6642136,2.3076923 2,2.617649 2,3 2,3.382351 1.6642136,3.6923077 1.25,3.6923077 0.83578644,3.6923077 0.5,3.382351 0.5,3 0.5,2.617649 0.83578644,2.3076923 1.25,2.3076923 Z m 0.047851,1.8461538 c 0.4142136,0 0.7500001,0.3099568 0.7500001,0.6923078 0,0.3823509 -0.3357865,0.6923076 -0.7500001,0.6923076 -0.41421351,0 -0.74999995,-0.3099567 -0.74999995,-0.6923076 0,-0.382351 0.33578644,-0.6923078 0.74999995,-0.6923078 z"
     style="stroke-width:0.480384" />
</svg>
